M48
; DRILL file {KiCad 8.0.1} date 2024-05-01T14:39:17+0200
; FORMAT={-:-/ absolute / metric / decimal}
; #@! TF.CreationDate,2024-05-01T14:39:17+02:00
; #@! TF.GenerationSoftware,Kicad,Pcbnew,8.0.1
; #@! TF.FileFunction,NonPlated,1,2,NPTH
FMAT,2
METRIC
; #@! TA.AperFunction,NonPlated,NPTH,ComponentDrill
T1C1.702
; #@! TA.AperFunction,NonPlated,NPTH,ComponentDrill
T2C3.000
; #@! TA.AperFunction,NonPlated,NPTH,ComponentDrill
T3C3.429
; #@! TA.AperFunction,NonPlated,NPTH,ComponentDrill
T4C6.300
%
G90
G05
T1
X52.725Y-65.05
X63.725Y-65.05
X81.82Y-65.17
X92.82Y-65.17
X108.42Y-76.52
X119.42Y-76.52
X125.92Y-129.62
X136.92Y-129.62
X137.75Y-96.15
X143.36Y-65.11
X148.75Y-96.15
X154.36Y-65.11
X164.36Y-85.04
X169.92Y-53.58
X175.36Y-85.04
X180.92Y-53.58
X193.21Y-85.04
X198.89Y-53.46
X204.21Y-85.04
X209.89Y-53.46
X222.42Y-85.04
X227.86Y-53.7
X233.42Y-85.04
X238.86Y-53.7
T2
X58.225Y-59.1
X63.225Y-61.3
X87.32Y-59.22
X92.32Y-61.42
X113.92Y-70.57
X118.92Y-72.77
X131.42Y-123.67
X136.42Y-125.87
X143.25Y-90.2
X148.25Y-92.4
X148.86Y-59.16
X153.86Y-61.36
X169.86Y-79.09
X174.86Y-81.29
X175.42Y-47.63
X180.42Y-49.83
X198.71Y-79.09
X203.71Y-81.29
X204.39Y-47.51
X209.39Y-49.71
X227.92Y-79.09
X232.92Y-81.29
X233.36Y-47.75
X238.36Y-49.95
T3
X58.225Y-65.05
X87.32Y-65.17
X113.92Y-76.52
X131.42Y-129.62
X143.25Y-96.15
X148.86Y-65.11
X169.86Y-85.04
X175.42Y-53.58
X198.71Y-85.04
X204.39Y-53.46
X227.92Y-85.04
X233.36Y-53.7
T4
X47.0Y-37.0
X47.0Y-143.0
X133.5Y-78.0
X150.0Y-37.0
X150.0Y-143.0
X243.0Y-37.0
X243.0Y-143.0
M30
