M48
; DRILL file {KiCad 8.0.1} date 2024-05-01T14:39:17+0200
; FORMAT={-:-/ absolute / metric / decimal}
; #@! TF.CreationDate,2024-05-01T14:39:17+02:00
; #@! TF.GenerationSoftware,Kicad,Pcbnew,8.0.1
; #@! TF.FileFunction,Plated,1,2,PTH
FMAT,2
METRIC
; #@! TA.AperFunction,Plated,PTH,ViaDrill
T1C0.400
; #@! TA.AperFunction,Plated,PTH,ComponentDrill
T2C1.000
; #@! TA.AperFunction,Plated,PTH,ComponentDrill
T3C1.100
; #@! TA.AperFunction,Plated,PTH,ComponentDrill
T4C1.270
; #@! TA.AperFunction,Plated,PTH,ComponentDrill
T5C2.000
%
G90
G05
T1
X63.55Y-90.15
X72.6Y-90.5
X77.675Y-54.5
X77.7Y-88.65
X78.75Y-55.275
X78.75Y-91.75
X82.2Y-93.0
X85.0Y-99.0
X119.75Y-51.75
X121.25Y-44.75
X122.25Y-44.0
X123.525Y-55.925
X123.55Y-57.65
X126.35Y-38.4
X127.0Y-39.6
X127.75Y-56.65
X128.22Y-68.97
X129.225Y-66.975
X129.227Y-56.3
X129.7Y-41.2
X130.0Y-57.0
X130.351Y-39.5
X131.0Y-57.5
X131.2Y-41.1
X132.003Y-57.285
X133.15Y-57.8
X134.25Y-97.0
X137.5Y-53.5
X137.7Y-40.7
X137.8Y-38.05
X138.4Y-35.3
X138.65Y-44.3
X138.75Y-54.1
X139.2Y-41.0
X140.4Y-42.927
X140.45Y-46.25
X141.5Y-44.0
X144.586Y-42.014
X146.0Y-44.0
X149.4Y-43.2
X153.25Y-51.75
X188.5Y-36.9
X189.3Y-36.1
X190.2Y-35.1
X191.1Y-34.3
T2
X96.215Y-105.425
X98.755Y-105.425
X101.295Y-105.425
X103.835Y-105.425
X106.375Y-105.425
X199.725Y-104.05
X199.725Y-106.59
X199.725Y-109.13
X199.725Y-111.67
X199.725Y-114.21
X199.725Y-116.75
X210.99Y-122.812
X213.53Y-122.812
X216.07Y-122.812
X218.61Y-122.812
T3
X55.5Y-36.5
X55.5Y-43.0
X60.0Y-36.5
X60.0Y-43.0
X65.5Y-36.5
X65.5Y-43.0
X70.0Y-36.5
X70.0Y-43.0
X75.5Y-36.5
X75.5Y-43.0
X80.0Y-36.5
X80.0Y-43.0
X88.5Y-36.5
X88.5Y-43.0
X93.0Y-36.5
X93.0Y-43.0
X98.5Y-36.5
X98.5Y-43.0
X103.0Y-36.5
X103.0Y-43.0
X108.5Y-36.5
X108.5Y-43.0
X113.0Y-36.5
X113.0Y-43.0
T4
X53.225Y-68.85
X58.225Y-70.95
X82.32Y-68.97
X87.32Y-71.07
X108.92Y-80.32
X113.92Y-82.42
X126.42Y-133.42
X131.42Y-135.52
X138.25Y-99.95
X143.25Y-102.05
X143.86Y-68.91
X148.86Y-71.01
X164.86Y-88.84
X169.86Y-90.94
X170.42Y-57.38
X175.42Y-59.48
X193.71Y-88.84
X198.71Y-90.94
X199.39Y-57.26
X204.39Y-59.36
X222.92Y-88.84
X227.92Y-90.94
X228.36Y-57.5
X233.36Y-59.6
T5
X203.15Y-123.312
X203.15Y-147.012
X226.45Y-123.312
X226.45Y-147.012
M30
