%TF.GenerationSoftware,KiCad,Pcbnew,8.0.1*%
%TF.CreationDate,2024-05-01T14:37:59+02:00*%
%TF.ProjectId,PE2-for-review,5045322d-666f-4722-9d72-65766965772e,rev?*%
%TF.SameCoordinates,Original*%
%TF.FileFunction,Profile,NP*%
%FSLAX46Y46*%
G04 Gerber Fmt 4.6, Leading zero omitted, Abs format (unit mm)*
G04 Created by KiCad (PCBNEW 8.0.1) date 2024-05-01 14:37:59*
%MOMM*%
%LPD*%
G01*
G04 APERTURE LIST*
%TA.AperFunction,Profile*%
%ADD10C,0.050000*%
%TD*%
%TA.AperFunction,Profile*%
%ADD11C,0.000000*%
%TD*%
G04 APERTURE END LIST*
D10*
X250000000Y-35000000D02*
X250000000Y-145000000D01*
X40000000Y-145000000D02*
X40000000Y-35000000D01*
X45000000Y-30000000D02*
X136000000Y-30000000D01*
X136000000Y-30000000D02*
X245000000Y-30000000D01*
X245000000Y-150000000D02*
X223200000Y-150000000D01*
X40000000Y-35000000D02*
G75*
G02*
X45000000Y-30000000I5000000J0D01*
G01*
X45000000Y-150000000D02*
G75*
G02*
X40000000Y-145000000I0J5000000D01*
G01*
X250000000Y-145000000D02*
G75*
G02*
X245000000Y-150000000I-5000000J0D01*
G01*
X245000000Y-30000000D02*
G75*
G02*
X250000000Y-35000000I0J-5000000D01*
G01*
X223200000Y-150000000D02*
X45000000Y-150000000D01*
D11*
%TA.AperFunction,Profile*%
G36*
X64507708Y-93120184D02*
G01*
X64627430Y-93197125D01*
X64720627Y-93304680D01*
X64779746Y-93434134D01*
X64800000Y-93575000D01*
X64779746Y-93715866D01*
X64720627Y-93845320D01*
X64627430Y-93952875D01*
X64507708Y-94029816D01*
X64371157Y-94069911D01*
X64228843Y-94069911D01*
X64092292Y-94029816D01*
X63972570Y-93952875D01*
X63879373Y-93845320D01*
X63820254Y-93715866D01*
X63800000Y-93575000D01*
X63820254Y-93434134D01*
X63879373Y-93304680D01*
X63972570Y-93197125D01*
X64092292Y-93120184D01*
X64228843Y-93080089D01*
X64371157Y-93080089D01*
X64507708Y-93120184D01*
G37*
%TD.AperFunction*%
%TA.AperFunction,Profile*%
G36*
X67507708Y-93120184D02*
G01*
X67627430Y-93197125D01*
X67720627Y-93304680D01*
X67779746Y-93434134D01*
X67800000Y-93575000D01*
X67779746Y-93715866D01*
X67720627Y-93845320D01*
X67627430Y-93952875D01*
X67507708Y-94029816D01*
X67371157Y-94069911D01*
X67228843Y-94069911D01*
X67092292Y-94029816D01*
X66972570Y-93952875D01*
X66879373Y-93845320D01*
X66820254Y-93715866D01*
X66800000Y-93575000D01*
X66820254Y-93434134D01*
X66879373Y-93304680D01*
X66972570Y-93197125D01*
X67092292Y-93120184D01*
X67228843Y-93080089D01*
X67371157Y-93080089D01*
X67507708Y-93120184D01*
G37*
%TD.AperFunction*%
M02*
