%TF.GenerationSoftware,KiCad,Pcbnew,8.0.1*%
%TF.CreationDate,2024-05-01T14:37:59+02:00*%
%TF.ProjectId,PE2-for-review,5045322d-666f-4722-9d72-65766965772e,rev?*%
%TF.SameCoordinates,Original*%
%TF.FileFunction,Legend,Top*%
%TF.FilePolarity,Positive*%
%FSLAX46Y46*%
G04 Gerber Fmt 4.6, Leading zero omitted, Abs format (unit mm)*
G04 Created by KiCad (PCBNEW 8.0.1) date 2024-05-01 14:37:59*
%MOMM*%
%LPD*%
G01*
G04 APERTURE LIST*
G04 Aperture macros list*
%AMRoundRect*
0 Rectangle with rounded corners*
0 $1 Rounding radius*
0 $2 $3 $4 $5 $6 $7 $8 $9 X,Y pos of 4 corners*
0 Add a 4 corners polygon primitive as box body*
4,1,4,$2,$3,$4,$5,$6,$7,$8,$9,$2,$3,0*
0 Add four circle primitives for the rounded corners*
1,1,$1+$1,$2,$3*
1,1,$1+$1,$4,$5*
1,1,$1+$1,$6,$7*
1,1,$1+$1,$8,$9*
0 Add four rect primitives between the rounded corners*
20,1,$1+$1,$2,$3,$4,$5,0*
20,1,$1+$1,$4,$5,$6,$7,0*
20,1,$1+$1,$6,$7,$8,$9,0*
20,1,$1+$1,$8,$9,$2,$3,0*%
G04 Aperture macros list end*
%ADD10C,0.150000*%
%ADD11C,0.200000*%
%ADD12C,0.300000*%
%ADD13C,0.400000*%
%ADD14C,0.120000*%
%ADD15C,0.101500*%
%ADD16C,0.254000*%
%ADD17C,0.127000*%
%ADD18C,1.701800*%
%ADD19C,3.000000*%
%ADD20C,3.429000*%
%ADD21C,2.032000*%
%ADD22C,6.300000*%
%ADD23C,2.000000*%
%ADD24RoundRect,0.140000X0.170000X-0.140000X0.170000X0.140000X-0.170000X0.140000X-0.170000X-0.140000X0*%
%ADD25R,0.500000X1.850000*%
%ADD26R,2.000000X3.000000*%
%ADD27R,2.000000X3.500000*%
%ADD28C,2.250000*%
%ADD29RoundRect,0.102000X-0.754000X-0.754000X0.754000X-0.754000X0.754000X0.754000X-0.754000X0.754000X0*%
%ADD30C,1.712000*%
%ADD31C,3.204000*%
%ADD32R,2.000000X2.400000*%
%ADD33RoundRect,0.218750X0.256250X-0.218750X0.256250X0.218750X-0.256250X0.218750X-0.256250X-0.218750X0*%
%ADD34RoundRect,0.102000X-0.710000X-0.290000X0.710000X-0.290000X0.710000X0.290000X-0.710000X0.290000X0*%
%ADD35RoundRect,0.225000X-0.250000X0.225000X-0.250000X-0.225000X0.250000X-0.225000X0.250000X0.225000X0*%
%ADD36RoundRect,0.135000X0.185000X-0.135000X0.185000X0.135000X-0.185000X0.135000X-0.185000X-0.135000X0*%
%ADD37RoundRect,0.140000X0.140000X0.170000X-0.140000X0.170000X-0.140000X-0.170000X0.140000X-0.170000X0*%
%ADD38R,0.700000X1.800000*%
%ADD39R,1.000000X0.800000*%
%ADD40RoundRect,0.140000X-0.140000X-0.170000X0.140000X-0.170000X0.140000X0.170000X-0.140000X0.170000X0*%
%ADD41RoundRect,0.135000X-0.185000X0.135000X-0.185000X-0.135000X0.185000X-0.135000X0.185000X0.135000X0*%
%ADD42RoundRect,0.225000X-0.225000X-0.250000X0.225000X-0.250000X0.225000X0.250000X-0.225000X0.250000X0*%
%ADD43R,1.700000X1.700000*%
%ADD44O,1.700000X1.700000*%
%ADD45C,1.000000*%
%ADD46RoundRect,0.225000X0.250000X-0.225000X0.250000X0.225000X-0.250000X0.225000X-0.250000X-0.225000X0*%
%ADD47RoundRect,0.135000X0.135000X0.185000X-0.135000X0.185000X-0.135000X-0.185000X0.135000X-0.185000X0*%
%ADD48RoundRect,0.225000X0.225000X0.250000X-0.225000X0.250000X-0.225000X-0.250000X0.225000X-0.250000X0*%
%ADD49RoundRect,0.140000X-0.170000X0.140000X-0.170000X-0.140000X0.170000X-0.140000X0.170000X0.140000X0*%
%ADD50RoundRect,0.102000X-0.375000X0.500000X-0.375000X-0.500000X0.375000X-0.500000X0.375000X0.500000X0*%
%ADD51R,0.300000X1.500000*%
%ADD52R,1.500000X0.300000*%
G04 APERTURE END LIST*
D10*
X99219819Y-101891792D02*
X98743628Y-102225125D01*
X99219819Y-102463220D02*
X98219819Y-102463220D01*
X98219819Y-102463220D02*
X98219819Y-102082268D01*
X98219819Y-102082268D02*
X98267438Y-101987030D01*
X98267438Y-101987030D02*
X98315057Y-101939411D01*
X98315057Y-101939411D02*
X98410295Y-101891792D01*
X98410295Y-101891792D02*
X98553152Y-101891792D01*
X98553152Y-101891792D02*
X98648390Y-101939411D01*
X98648390Y-101939411D02*
X98696009Y-101987030D01*
X98696009Y-101987030D02*
X98743628Y-102082268D01*
X98743628Y-102082268D02*
X98743628Y-102463220D01*
X99172200Y-101510839D02*
X99219819Y-101367982D01*
X99219819Y-101367982D02*
X99219819Y-101129887D01*
X99219819Y-101129887D02*
X99172200Y-101034649D01*
X99172200Y-101034649D02*
X99124580Y-100987030D01*
X99124580Y-100987030D02*
X99029342Y-100939411D01*
X99029342Y-100939411D02*
X98934104Y-100939411D01*
X98934104Y-100939411D02*
X98838866Y-100987030D01*
X98838866Y-100987030D02*
X98791247Y-101034649D01*
X98791247Y-101034649D02*
X98743628Y-101129887D01*
X98743628Y-101129887D02*
X98696009Y-101320363D01*
X98696009Y-101320363D02*
X98648390Y-101415601D01*
X98648390Y-101415601D02*
X98600771Y-101463220D01*
X98600771Y-101463220D02*
X98505533Y-101510839D01*
X98505533Y-101510839D02*
X98410295Y-101510839D01*
X98410295Y-101510839D02*
X98315057Y-101463220D01*
X98315057Y-101463220D02*
X98267438Y-101415601D01*
X98267438Y-101415601D02*
X98219819Y-101320363D01*
X98219819Y-101320363D02*
X98219819Y-101082268D01*
X98219819Y-101082268D02*
X98267438Y-100939411D01*
X98219819Y-100653696D02*
X98219819Y-100082268D01*
X99219819Y-100367982D02*
X98219819Y-100367982D01*
D11*
X216382567Y-53463258D02*
X216382567Y-53463258D01*
X245355098Y-53699766D02*
X245355098Y-53699766D01*
X75320345Y-65170530D02*
X75327016Y-64768696D01*
X75346925Y-64369048D01*
X75379915Y-63971861D01*
X75425827Y-63577408D01*
X75484504Y-63185963D01*
X75555789Y-62797800D01*
X75639522Y-62413193D01*
X75735548Y-62032415D01*
X75843708Y-61655740D01*
X75963844Y-61283443D01*
X76095799Y-60915796D01*
X76239414Y-60553075D01*
X76394534Y-60195553D01*
X76560999Y-59843503D01*
X76738651Y-59497200D01*
X76927335Y-59156918D01*
X77126890Y-58822929D01*
X77337161Y-58495509D01*
X77557989Y-58174931D01*
X77789217Y-57861469D01*
X78030686Y-57555396D01*
X78282240Y-57256987D01*
X78543720Y-56966516D01*
X78814968Y-56684256D01*
X79095828Y-56410481D01*
X79386142Y-56145465D01*
X79685751Y-55889483D01*
X79994498Y-55642807D01*
X80312226Y-55405711D01*
X80638776Y-55178470D01*
X80973991Y-54961358D01*
X81317714Y-54754648D01*
X93312452Y-54754648D02*
X93656174Y-54961358D01*
X93991389Y-55178470D01*
X94317939Y-55405711D01*
X94635667Y-55642807D01*
X94944414Y-55889483D01*
X95244023Y-56145465D01*
X95534336Y-56410481D01*
X95815196Y-56684256D01*
X96086445Y-56966516D01*
X96347925Y-57256987D01*
X96599479Y-57555396D01*
X96840948Y-57861469D01*
X97072175Y-58174931D01*
X97293003Y-58495509D01*
X97503274Y-58822929D01*
X97702830Y-59156918D01*
X97891513Y-59497200D01*
X98069166Y-59843503D01*
X98235631Y-60195553D01*
X98390750Y-60553075D01*
X98534366Y-60915796D01*
X98666321Y-61283443D01*
X98786457Y-61655740D01*
X98894617Y-62032415D01*
X98990642Y-62413193D01*
X99074376Y-62797800D01*
X99145660Y-63185963D01*
X99204338Y-63577408D01*
X99250250Y-63971861D01*
X99283240Y-64369048D01*
X99303149Y-64768696D01*
X99309821Y-65170530D01*
X181412661Y-63997400D02*
X181062266Y-64192523D01*
X180707142Y-64375058D01*
X180347602Y-64545004D01*
X179983962Y-64702362D01*
X179616538Y-64847131D01*
X179245645Y-64979311D01*
X178871597Y-65098903D01*
X178494712Y-65205907D01*
X178115303Y-65300321D01*
X177733687Y-65382147D01*
X177350179Y-65451385D01*
X176965094Y-65508033D01*
X176578747Y-65552093D01*
X176191454Y-65583565D01*
X175803530Y-65602448D01*
X175415292Y-65608742D01*
X175027053Y-65602448D01*
X174639129Y-65583565D01*
X174251836Y-65552093D01*
X173865489Y-65508033D01*
X173480404Y-65451385D01*
X173096896Y-65382147D01*
X172715280Y-65300321D01*
X172335871Y-65205907D01*
X171958986Y-65098903D01*
X171584938Y-64979311D01*
X171214045Y-64847131D01*
X170846621Y-64702362D01*
X170482981Y-64545004D01*
X170123441Y-64375058D01*
X169768317Y-64192523D01*
X169417923Y-63997400D01*
X233918028Y-74621539D02*
X234261750Y-74828249D01*
X234596965Y-75045361D01*
X234923515Y-75272602D01*
X235241243Y-75509697D01*
X235549990Y-75756373D01*
X235849599Y-76012356D01*
X236139913Y-76277372D01*
X236420773Y-76551147D01*
X236692021Y-76833407D01*
X236953501Y-77123878D01*
X237205055Y-77422287D01*
X237446524Y-77728359D01*
X237677752Y-78041822D01*
X237898580Y-78362400D01*
X238108851Y-78689820D01*
X238308406Y-79023808D01*
X238497090Y-79364091D01*
X238674742Y-79710394D01*
X238841207Y-80062443D01*
X238996327Y-80419966D01*
X239139942Y-80782687D01*
X239271897Y-81150333D01*
X239392033Y-81522630D01*
X239500193Y-81899305D01*
X239596219Y-82280083D01*
X239679952Y-82664691D01*
X239751237Y-83052854D01*
X239809914Y-83444299D01*
X239855826Y-83838752D01*
X239888816Y-84235939D01*
X239908725Y-84635587D01*
X239915397Y-85037421D01*
X187410030Y-53581518D02*
X187410030Y-53581518D01*
X233918028Y-95453303D02*
X233567633Y-95648426D01*
X233212509Y-95830961D01*
X232852969Y-96000907D01*
X232489329Y-96158265D01*
X232121905Y-96303034D01*
X231751012Y-96435214D01*
X231376964Y-96554806D01*
X231000079Y-96661809D01*
X230620670Y-96756224D01*
X230239054Y-96838050D01*
X229855546Y-96907287D01*
X229470461Y-96963936D01*
X229084114Y-97007996D01*
X228696821Y-97039467D01*
X228308897Y-97058350D01*
X227920659Y-97064645D01*
X227532420Y-97058350D01*
X227144496Y-97039467D01*
X226757203Y-97007996D01*
X226370856Y-96963936D01*
X225985771Y-96907287D01*
X225602263Y-96838050D01*
X225220647Y-96756224D01*
X224841238Y-96661809D01*
X224464353Y-96554806D01*
X224090305Y-96435214D01*
X223719412Y-96303034D01*
X223351988Y-96158265D01*
X222988348Y-96000907D01*
X222628808Y-95830961D01*
X222273684Y-95648426D01*
X221923290Y-95453303D01*
X123913745Y-142649412D02*
X123483765Y-142390827D01*
X123064427Y-142119230D01*
X122655929Y-141834964D01*
X122258468Y-141538369D01*
X121872241Y-141229790D01*
X121497445Y-140909568D01*
X121134277Y-140578047D01*
X120782936Y-140235568D01*
X120443617Y-139882475D01*
X120116518Y-139519110D01*
X119801838Y-139145815D01*
X119499772Y-138762934D01*
X119210517Y-138370808D01*
X118934273Y-137969781D01*
X118671235Y-137560195D01*
X118421600Y-137142393D01*
X118185567Y-136716716D01*
X117963332Y-136283508D01*
X117755093Y-135843112D01*
X117561047Y-135395869D01*
X117381391Y-134942123D01*
X117216322Y-134482216D01*
X117066037Y-134016491D01*
X116930735Y-133545290D01*
X116810612Y-133068955D01*
X116705865Y-132587831D01*
X116616692Y-132102258D01*
X116543290Y-131612580D01*
X116485856Y-131119139D01*
X116444588Y-130622277D01*
X116419682Y-130122338D01*
X116411337Y-129619665D01*
X204708930Y-95453303D02*
X204358535Y-95648426D01*
X204003411Y-95830961D01*
X203643871Y-96000907D01*
X203280231Y-96158265D01*
X202912807Y-96303034D01*
X202541914Y-96435214D01*
X202167866Y-96554806D01*
X201790981Y-96661809D01*
X201411572Y-96756224D01*
X201029956Y-96838050D01*
X200646448Y-96907287D01*
X200261363Y-96963936D01*
X199875016Y-97007996D01*
X199487723Y-97039467D01*
X199099799Y-97058350D01*
X198711561Y-97064645D01*
X198323322Y-97058350D01*
X197935398Y-97039467D01*
X197548105Y-97007996D01*
X197161758Y-96963936D01*
X196776673Y-96907287D01*
X196393165Y-96838050D01*
X196011549Y-96756224D01*
X195632140Y-96661809D01*
X195255255Y-96554806D01*
X194881207Y-96435214D01*
X194510314Y-96303034D01*
X194142890Y-96158265D01*
X193779250Y-96000907D01*
X193419710Y-95830961D01*
X193064586Y-95648426D01*
X192714192Y-95453303D01*
X192714192Y-74621539D02*
X193064586Y-74426415D01*
X193419710Y-74243880D01*
X193779250Y-74073934D01*
X194142890Y-73916576D01*
X194510314Y-73771807D01*
X194881207Y-73639627D01*
X195255255Y-73520035D01*
X195632140Y-73413031D01*
X196011549Y-73318617D01*
X196393165Y-73236791D01*
X196776673Y-73167553D01*
X197161758Y-73110905D01*
X197548105Y-73066845D01*
X197935398Y-73035373D01*
X198323322Y-73016490D01*
X198711561Y-73010196D01*
X199099799Y-73016490D01*
X199487723Y-73035373D01*
X199875016Y-73066845D01*
X200261363Y-73110905D01*
X200646448Y-73167553D01*
X201029956Y-73236791D01*
X201411572Y-73318617D01*
X201790981Y-73413031D01*
X202167866Y-73520035D01*
X202541914Y-73639627D01*
X202912807Y-73771807D01*
X203280231Y-73916576D01*
X203643871Y-74073934D01*
X204003411Y-74243880D01*
X204358535Y-74426415D01*
X204708930Y-74621539D01*
X239915397Y-85037421D02*
X239908725Y-85439254D01*
X239888816Y-85838902D01*
X239855826Y-86236089D01*
X239809914Y-86630542D01*
X239751237Y-87021987D01*
X239679952Y-87410150D01*
X239596219Y-87794757D01*
X239500193Y-88175535D01*
X239392033Y-88552210D01*
X239271897Y-88924507D01*
X239139942Y-89292154D01*
X238996327Y-89654875D01*
X238841207Y-90012397D01*
X238674742Y-90364447D01*
X238497090Y-90710750D01*
X238308406Y-91051033D01*
X238108851Y-91385021D01*
X237898580Y-91712441D01*
X237677752Y-92033019D01*
X237446524Y-92346481D01*
X237205055Y-92652554D01*
X236953501Y-92950963D01*
X236692021Y-93241434D01*
X236420773Y-93523694D01*
X236139913Y-93797469D01*
X235849599Y-94062485D01*
X235549990Y-94318467D01*
X235241243Y-94565143D01*
X234923515Y-94802239D01*
X234596965Y-95029480D01*
X234261750Y-95246592D01*
X233918028Y-95453303D01*
X142865684Y-75530868D02*
X142521961Y-75324157D01*
X142186746Y-75107045D01*
X141860196Y-74879804D01*
X141542468Y-74642709D01*
X141233721Y-74396033D01*
X140934112Y-74140050D01*
X140643798Y-73875034D01*
X140362938Y-73601259D01*
X140091690Y-73318999D01*
X139830210Y-73028528D01*
X139578656Y-72730119D01*
X139337187Y-72424047D01*
X139105959Y-72110584D01*
X138885131Y-71790006D01*
X138674860Y-71462586D01*
X138475305Y-71128598D01*
X138286621Y-70788315D01*
X138108969Y-70442012D01*
X137942504Y-70089963D01*
X137787384Y-69732440D01*
X137643769Y-69369719D01*
X137511814Y-69002073D01*
X137391678Y-68629776D01*
X137283518Y-68253101D01*
X137187492Y-67872323D01*
X137103759Y-67487715D01*
X137032474Y-67099552D01*
X136973797Y-66708107D01*
X136927885Y-66313654D01*
X136894895Y-65916467D01*
X136874986Y-65516819D01*
X136868315Y-65114986D01*
X210706299Y-85037421D02*
X210699627Y-85439254D01*
X210679718Y-85838902D01*
X210646728Y-86236089D01*
X210600816Y-86630542D01*
X210542139Y-87021987D01*
X210470854Y-87410150D01*
X210387121Y-87794757D01*
X210291095Y-88175535D01*
X210182935Y-88552210D01*
X210062799Y-88924507D01*
X209930844Y-89292154D01*
X209787229Y-89654875D01*
X209632109Y-90012397D01*
X209465644Y-90364447D01*
X209287992Y-90710750D01*
X209099308Y-91051033D01*
X208899753Y-91385021D01*
X208689482Y-91712441D01*
X208468654Y-92033019D01*
X208237426Y-92346481D01*
X207995957Y-92652554D01*
X207744403Y-92950963D01*
X207482923Y-93241434D01*
X207211675Y-93523694D01*
X206930815Y-93797469D01*
X206640501Y-94062485D01*
X206340892Y-94318467D01*
X206032145Y-94565143D01*
X205714417Y-94802239D01*
X205387867Y-95029480D01*
X205052652Y-95246592D01*
X204708930Y-95453303D01*
X210385198Y-43047376D02*
X210728920Y-43254086D01*
X211064135Y-43471198D01*
X211390685Y-43698439D01*
X211708413Y-43935534D01*
X212017160Y-44182210D01*
X212316769Y-44438193D01*
X212607083Y-44703209D01*
X212887943Y-44976983D01*
X213159191Y-45259243D01*
X213420671Y-45549715D01*
X213672225Y-45848124D01*
X213913694Y-46154196D01*
X214144922Y-46467658D01*
X214365750Y-46788236D01*
X214576021Y-47115656D01*
X214775576Y-47449645D01*
X214964260Y-47789927D01*
X215141912Y-48136230D01*
X215308377Y-48488280D01*
X215463497Y-48845802D01*
X215607112Y-49208524D01*
X215739067Y-49576170D01*
X215859203Y-49948467D01*
X215967363Y-50325142D01*
X216063389Y-50705920D01*
X216147122Y-51090528D01*
X216218407Y-51478691D01*
X216277084Y-51870136D01*
X216322996Y-52264589D01*
X216355986Y-52661776D01*
X216375895Y-53061424D01*
X216382567Y-53463258D01*
X181852021Y-85037421D02*
X181852021Y-85037421D01*
X221923290Y-95453303D02*
X221579567Y-95246592D01*
X221244352Y-95029480D01*
X220917802Y-94802239D01*
X220600074Y-94565143D01*
X220291327Y-94318467D01*
X219991718Y-94062485D01*
X219701404Y-93797469D01*
X219420544Y-93523694D01*
X219149296Y-93241434D01*
X218887816Y-92950963D01*
X218636262Y-92652554D01*
X218394793Y-92346481D01*
X218163565Y-92033019D01*
X217942737Y-91712441D01*
X217732466Y-91385021D01*
X217532911Y-91051033D01*
X217344227Y-90710750D01*
X217166575Y-90364447D01*
X217000110Y-90012397D01*
X216844990Y-89654875D01*
X216701375Y-89292154D01*
X216569420Y-88924507D01*
X216449284Y-88552210D01*
X216341124Y-88175535D01*
X216245098Y-87794757D01*
X216161365Y-87410150D01*
X216090080Y-87021987D01*
X216031403Y-86630542D01*
X215985491Y-86236089D01*
X215952501Y-85838902D01*
X215932592Y-85439254D01*
X215925921Y-85037421D01*
X93312452Y-75586412D02*
X92962057Y-75781535D01*
X92606933Y-75964070D01*
X92247393Y-76134016D01*
X91883753Y-76291374D01*
X91516329Y-76436143D01*
X91145436Y-76568323D01*
X90771388Y-76687915D01*
X90394503Y-76794919D01*
X90015094Y-76889333D01*
X89633478Y-76971159D01*
X89249970Y-77040397D01*
X88864885Y-77097045D01*
X88478538Y-77141105D01*
X88091245Y-77172577D01*
X87703321Y-77191460D01*
X87315083Y-77197754D01*
X86926844Y-77191460D01*
X86538920Y-77172577D01*
X86151627Y-77141105D01*
X85765280Y-77097045D01*
X85380195Y-77040397D01*
X84996687Y-76971159D01*
X84615071Y-76889333D01*
X84235662Y-76794919D01*
X83858777Y-76687915D01*
X83484729Y-76568323D01*
X83113836Y-76436143D01*
X82746412Y-76291374D01*
X82382772Y-76134016D01*
X82023232Y-75964070D01*
X81668108Y-75781535D01*
X81317714Y-75586412D01*
X175854652Y-95453303D02*
X175504257Y-95648426D01*
X175149133Y-95830961D01*
X174789593Y-96000907D01*
X174425953Y-96158265D01*
X174058529Y-96303034D01*
X173687636Y-96435214D01*
X173313588Y-96554806D01*
X172936703Y-96661809D01*
X172557294Y-96756224D01*
X172175678Y-96838050D01*
X171792170Y-96907287D01*
X171407085Y-96963936D01*
X171020738Y-97007996D01*
X170633445Y-97039467D01*
X170245521Y-97058350D01*
X169857283Y-97064645D01*
X169469044Y-97058350D01*
X169081120Y-97039467D01*
X168693827Y-97007996D01*
X168307480Y-96963936D01*
X167922395Y-96907287D01*
X167538887Y-96838050D01*
X167157271Y-96756224D01*
X166777862Y-96661809D01*
X166400977Y-96554806D01*
X166026929Y-96435214D01*
X165656036Y-96303034D01*
X165288612Y-96158265D01*
X164924972Y-96000907D01*
X164565432Y-95830961D01*
X164210308Y-95648426D01*
X163859914Y-95453303D01*
X239915397Y-85037421D02*
X239915397Y-85037421D01*
X186716823Y-85037421D02*
X186723494Y-84635587D01*
X186743403Y-84235939D01*
X186776393Y-83838752D01*
X186822305Y-83444299D01*
X186880983Y-83052854D01*
X186952267Y-82664691D01*
X187036001Y-82280083D01*
X187132026Y-81899305D01*
X187240186Y-81522630D01*
X187360322Y-81150333D01*
X187492277Y-80782687D01*
X187635893Y-80419966D01*
X187791012Y-80062443D01*
X187957477Y-79710394D01*
X188135130Y-79364091D01*
X188323813Y-79023808D01*
X188523369Y-78689820D01*
X188733640Y-78362400D01*
X188954468Y-78041822D01*
X189185695Y-77728359D01*
X189427164Y-77422287D01*
X189678718Y-77123878D01*
X189940198Y-76833407D01*
X190211447Y-76551147D01*
X190492307Y-76277372D01*
X190782620Y-76012356D01*
X191082229Y-75756373D01*
X191390976Y-75509697D01*
X191708704Y-75272602D01*
X192035254Y-75045361D01*
X192370469Y-74828249D01*
X192714192Y-74621539D01*
X138918561Y-142649412D02*
X138480235Y-142893501D01*
X138035992Y-143121843D01*
X137586226Y-143334438D01*
X137131331Y-143531284D01*
X136671701Y-143712383D01*
X136207732Y-143877734D01*
X135739818Y-144027338D01*
X135268353Y-144161193D01*
X134793732Y-144279301D01*
X134316350Y-144381661D01*
X133836600Y-144468274D01*
X133354877Y-144539139D01*
X132871577Y-144594256D01*
X132387093Y-144633625D01*
X131901820Y-144657247D01*
X131416153Y-144665121D01*
X130930485Y-144657247D01*
X130445212Y-144633625D01*
X129960728Y-144594256D01*
X129477428Y-144539139D01*
X128995705Y-144468274D01*
X128515955Y-144381661D01*
X128038573Y-144279301D01*
X127563952Y-144161193D01*
X127092487Y-144027338D01*
X126624573Y-143877734D01*
X126160604Y-143712383D01*
X125700974Y-143531284D01*
X125246079Y-143334438D01*
X124796313Y-143121843D01*
X124352070Y-142893501D01*
X123913745Y-142649412D01*
X169417923Y-43165636D02*
X169768317Y-42970512D01*
X170123441Y-42787977D01*
X170482981Y-42618031D01*
X170846621Y-42460673D01*
X171214045Y-42315904D01*
X171584938Y-42183724D01*
X171958986Y-42064132D01*
X172335871Y-41957129D01*
X172715280Y-41862714D01*
X173096896Y-41780888D01*
X173480404Y-41711651D01*
X173865489Y-41655002D01*
X174251836Y-41610942D01*
X174639129Y-41579471D01*
X175027053Y-41560588D01*
X175415292Y-41554294D01*
X175803530Y-41560588D01*
X176191454Y-41579471D01*
X176578747Y-41610942D01*
X176965094Y-41655002D01*
X177350179Y-41711651D01*
X177733687Y-41780888D01*
X178115303Y-41862714D01*
X178494712Y-41957129D01*
X178871597Y-42064132D01*
X179245645Y-42183724D01*
X179616538Y-42315904D01*
X179983962Y-42460673D01*
X180347602Y-42618031D01*
X180707142Y-42787977D01*
X181062266Y-42970512D01*
X181412661Y-43165636D01*
X64221646Y-54636398D02*
X64565368Y-54843108D01*
X64900583Y-55060220D01*
X65227133Y-55287461D01*
X65544861Y-55524557D01*
X65853608Y-55771233D01*
X66153217Y-56027215D01*
X66443531Y-56292231D01*
X66724391Y-56566006D01*
X66995639Y-56848266D01*
X67257119Y-57138737D01*
X67508673Y-57437146D01*
X67750142Y-57743219D01*
X67981370Y-58056681D01*
X68202198Y-58377259D01*
X68412469Y-58704679D01*
X68612024Y-59038668D01*
X68800708Y-59378950D01*
X68978360Y-59725253D01*
X69144825Y-60077303D01*
X69299945Y-60434825D01*
X69443560Y-60797546D01*
X69575515Y-61165193D01*
X69695651Y-61537490D01*
X69803811Y-61914165D01*
X69899837Y-62294943D01*
X69983570Y-62679550D01*
X70054855Y-63067713D01*
X70113532Y-63459158D01*
X70159444Y-63853611D01*
X70192434Y-64250798D01*
X70212343Y-64650446D01*
X70219015Y-65052280D01*
X245355098Y-53699766D02*
X245339490Y-54318685D01*
X245293170Y-54929479D01*
X245216891Y-55531393D01*
X245111407Y-56123671D01*
X244977471Y-56705556D01*
X244815837Y-57276294D01*
X244627259Y-57835128D01*
X244412491Y-58381304D01*
X244172286Y-58914064D01*
X243907397Y-59432654D01*
X243618578Y-59936318D01*
X243306584Y-60424301D01*
X242972167Y-60895845D01*
X242616082Y-61350197D01*
X242239081Y-61786599D01*
X241841919Y-62204297D01*
X241425350Y-62602535D01*
X240990126Y-62980556D01*
X240537002Y-63337606D01*
X240066731Y-63672928D01*
X239580067Y-63985768D01*
X239077763Y-64275368D01*
X238560574Y-64540975D01*
X238029252Y-64781831D01*
X237484552Y-64997181D01*
X236927227Y-65186269D01*
X236358031Y-65348341D01*
X235777717Y-65482639D01*
X235187040Y-65588409D01*
X234586752Y-65664894D01*
X233977607Y-65711340D01*
X233360360Y-65726990D01*
X160857791Y-65114986D02*
X160851119Y-65516819D01*
X160831210Y-65916467D01*
X160798220Y-66313654D01*
X160752308Y-66708107D01*
X160693631Y-67099552D01*
X160622346Y-67487715D01*
X160538613Y-67872323D01*
X160442587Y-68253101D01*
X160334427Y-68629776D01*
X160214291Y-69002073D01*
X160082336Y-69369719D01*
X159938721Y-69732440D01*
X159783601Y-70089963D01*
X159617136Y-70442012D01*
X159439484Y-70788315D01*
X159250800Y-71128598D01*
X159051245Y-71462586D01*
X158840974Y-71790006D01*
X158620146Y-72110584D01*
X158388918Y-72424047D01*
X158147449Y-72730119D01*
X157895895Y-73028528D01*
X157634415Y-73318999D01*
X157363167Y-73601259D01*
X157082307Y-73875034D01*
X156791993Y-74140050D01*
X156492384Y-74396033D01*
X156183637Y-74642709D01*
X155865909Y-74879804D01*
X155539359Y-75107045D01*
X155204144Y-75324157D01*
X154860422Y-75530868D01*
X52226909Y-54636398D02*
X52577302Y-54441274D01*
X52932427Y-54258739D01*
X53291967Y-54088793D01*
X53655607Y-53931435D01*
X54023031Y-53786666D01*
X54393924Y-53654486D01*
X54767971Y-53534894D01*
X55144857Y-53427890D01*
X55524265Y-53333476D01*
X55905881Y-53251650D01*
X56289390Y-53182412D01*
X56674475Y-53125764D01*
X57060822Y-53081704D01*
X57448114Y-53050232D01*
X57836038Y-53031349D01*
X58224277Y-53025055D01*
X58612516Y-53031349D01*
X59000440Y-53050232D01*
X59387732Y-53081704D01*
X59774079Y-53125764D01*
X60159164Y-53182412D01*
X60542673Y-53251650D01*
X60924289Y-53333476D01*
X61303697Y-53427890D01*
X61680583Y-53534894D01*
X62054630Y-53654486D01*
X62425523Y-53786666D01*
X62792947Y-53931435D01*
X63156587Y-54088793D01*
X63516127Y-54258739D01*
X63871252Y-54441274D01*
X64221646Y-54636398D01*
X131255108Y-96153426D02*
X131261779Y-95751592D01*
X131281688Y-95351944D01*
X131314678Y-94954757D01*
X131360590Y-94560304D01*
X131419268Y-94168859D01*
X131490552Y-93780696D01*
X131574286Y-93396089D01*
X131670311Y-93015311D01*
X131778471Y-92638636D01*
X131898607Y-92266339D01*
X132030562Y-91898692D01*
X132174178Y-91535971D01*
X132329297Y-91178449D01*
X132495762Y-90826399D01*
X132673415Y-90480096D01*
X132862098Y-90139814D01*
X133061654Y-89805825D01*
X133271925Y-89478405D01*
X133492753Y-89157827D01*
X133723980Y-88844365D01*
X133965449Y-88538293D01*
X134217003Y-88239884D01*
X134478483Y-87949413D01*
X134749732Y-87667153D01*
X135030592Y-87393378D01*
X135320905Y-87128362D01*
X135620514Y-86872380D01*
X135929261Y-86625704D01*
X136246989Y-86388609D01*
X136573539Y-86161368D01*
X136908754Y-85944256D01*
X137252477Y-85737546D01*
X192393091Y-53463258D02*
X192399762Y-53061424D01*
X192419671Y-52661776D01*
X192452661Y-52264589D01*
X192498573Y-51870136D01*
X192557250Y-51478691D01*
X192628535Y-51090528D01*
X192712268Y-50705920D01*
X192808294Y-50325142D01*
X192916454Y-49948467D01*
X193036590Y-49576170D01*
X193168545Y-49208524D01*
X193312160Y-48845802D01*
X193467280Y-48488280D01*
X193633745Y-48136230D01*
X193811397Y-47789927D01*
X194000081Y-47449645D01*
X194199636Y-47115656D01*
X194409907Y-46788236D01*
X194630735Y-46467658D01*
X194861963Y-46154196D01*
X195103432Y-45848124D01*
X195354986Y-45549715D01*
X195616466Y-45259243D01*
X195887714Y-44976983D01*
X196168574Y-44703209D01*
X196458888Y-44438193D01*
X196758497Y-44182210D01*
X197067244Y-43935534D01*
X197384972Y-43698439D01*
X197711522Y-43471198D01*
X198046737Y-43254086D01*
X198390460Y-43047376D01*
X119919904Y-86938924D02*
X119569509Y-87134047D01*
X119214385Y-87316582D01*
X118854845Y-87486528D01*
X118491205Y-87643886D01*
X118123781Y-87788655D01*
X117752888Y-87920835D01*
X117378840Y-88040427D01*
X117001955Y-88147430D01*
X116622546Y-88241845D01*
X116240930Y-88323671D01*
X115857422Y-88392908D01*
X115472337Y-88449557D01*
X115085990Y-88493617D01*
X114698697Y-88525088D01*
X114310773Y-88543971D01*
X113922535Y-88550266D01*
X113534296Y-88543971D01*
X113146372Y-88525088D01*
X112759079Y-88493617D01*
X112372732Y-88449557D01*
X111987647Y-88392908D01*
X111604139Y-88323671D01*
X111222523Y-88241845D01*
X110843114Y-88147430D01*
X110466229Y-88040427D01*
X110092181Y-87920835D01*
X109721288Y-87788655D01*
X109353864Y-87643886D01*
X108990224Y-87486528D01*
X108630684Y-87316582D01*
X108275560Y-87134047D01*
X107925166Y-86938924D01*
X101927798Y-76523042D02*
X101934469Y-76121208D01*
X101954378Y-75721560D01*
X101987368Y-75324373D01*
X102033280Y-74929920D01*
X102091957Y-74538475D01*
X102163242Y-74150312D01*
X102246975Y-73765704D01*
X102343001Y-73384926D01*
X102451161Y-73008251D01*
X102571297Y-72635954D01*
X102703252Y-72268308D01*
X102846867Y-71905587D01*
X103001987Y-71548064D01*
X103168451Y-71196015D01*
X103346104Y-70849712D01*
X103534788Y-70509429D01*
X103734343Y-70175441D01*
X103944614Y-69848021D01*
X104165442Y-69527443D01*
X104396669Y-69213980D01*
X104638139Y-68907908D01*
X104889692Y-68609499D01*
X105151172Y-68319028D01*
X105422421Y-68036768D01*
X105703281Y-67762993D01*
X105993594Y-67497977D01*
X106293203Y-67241994D01*
X106601950Y-66995318D01*
X106919678Y-66758223D01*
X107246228Y-66530982D01*
X107581443Y-66313870D01*
X107925166Y-66107160D01*
X137252477Y-85737546D02*
X137602871Y-85542422D01*
X137957995Y-85359887D01*
X138317535Y-85189940D01*
X138681175Y-85032583D01*
X139048599Y-84887814D01*
X139419492Y-84755633D01*
X139793540Y-84636041D01*
X140170425Y-84529038D01*
X140549834Y-84434623D01*
X140931450Y-84352797D01*
X141314958Y-84283560D01*
X141700043Y-84226911D01*
X142086390Y-84182851D01*
X142473683Y-84151379D01*
X142861607Y-84132496D01*
X143249846Y-84126202D01*
X143638084Y-84132496D01*
X144026008Y-84151379D01*
X144413301Y-84182851D01*
X144799648Y-84226911D01*
X145184733Y-84283560D01*
X145568241Y-84352797D01*
X145949857Y-84434623D01*
X146329266Y-84529038D01*
X146706151Y-84636041D01*
X147080199Y-84755633D01*
X147451092Y-84887814D01*
X147818516Y-85032583D01*
X148182156Y-85189940D01*
X148541696Y-85359887D01*
X148896820Y-85542422D01*
X149247215Y-85737546D01*
X154860422Y-54699104D02*
X155204144Y-54905814D01*
X155539359Y-55122926D01*
X155865909Y-55350167D01*
X156183637Y-55587263D01*
X156492384Y-55833939D01*
X156791993Y-56089921D01*
X157082307Y-56354937D01*
X157363167Y-56628712D01*
X157634415Y-56910972D01*
X157895895Y-57201443D01*
X158147449Y-57499852D01*
X158388918Y-57805925D01*
X158620146Y-58119387D01*
X158840974Y-58439965D01*
X159051245Y-58767385D01*
X159250800Y-59101374D01*
X159439484Y-59441656D01*
X159617136Y-59787959D01*
X159783601Y-60140009D01*
X159938721Y-60497531D01*
X160082336Y-60860252D01*
X160214291Y-61227899D01*
X160334427Y-61600196D01*
X160442587Y-61976871D01*
X160538613Y-62357649D01*
X160622346Y-62742256D01*
X160693631Y-63130419D01*
X160752308Y-63521864D01*
X160798220Y-63916317D01*
X160831210Y-64313504D01*
X160851119Y-64713152D01*
X160857791Y-65114986D01*
X221923290Y-74621539D02*
X222273684Y-74426415D01*
X222628808Y-74243880D01*
X222988348Y-74073934D01*
X223351988Y-73916576D01*
X223719412Y-73771807D01*
X224090305Y-73639627D01*
X224464353Y-73520035D01*
X224841238Y-73413031D01*
X225220647Y-73318617D01*
X225602263Y-73236791D01*
X225985771Y-73167553D01*
X226370856Y-73110905D01*
X226757203Y-73066845D01*
X227144496Y-73035373D01*
X227532420Y-73016490D01*
X227920659Y-73010196D01*
X228308897Y-73016490D01*
X228696821Y-73035373D01*
X229084114Y-73066845D01*
X229470461Y-73110905D01*
X229855546Y-73167553D01*
X230239054Y-73236791D01*
X230620670Y-73318617D01*
X231000079Y-73413031D01*
X231376964Y-73520035D01*
X231751012Y-73639627D01*
X232121905Y-73771807D01*
X232489329Y-73916576D01*
X232852969Y-74073934D01*
X233212509Y-74243880D01*
X233567633Y-74426415D01*
X233918028Y-74621539D01*
X155244584Y-96153426D02*
X155244584Y-96153426D01*
X181852021Y-85037421D02*
X181845349Y-85439254D01*
X181825440Y-85838902D01*
X181792450Y-86236089D01*
X181746538Y-86630542D01*
X181687861Y-87021987D01*
X181616576Y-87410150D01*
X181532843Y-87794757D01*
X181436817Y-88175535D01*
X181328657Y-88552210D01*
X181208521Y-88924507D01*
X181076566Y-89292154D01*
X180932951Y-89654875D01*
X180777831Y-90012397D01*
X180611366Y-90364447D01*
X180433714Y-90710750D01*
X180245030Y-91051033D01*
X180045475Y-91385021D01*
X179835204Y-91712441D01*
X179614376Y-92033019D01*
X179383148Y-92346481D01*
X179141679Y-92652554D01*
X178890125Y-92950963D01*
X178628645Y-93241434D01*
X178357397Y-93523694D01*
X178076537Y-93797469D01*
X177786223Y-94062485D01*
X177486614Y-94318467D01*
X177177867Y-94565143D01*
X176860139Y-94802239D01*
X176533589Y-95029480D01*
X176198374Y-95246592D01*
X175854652Y-95453303D01*
X138918561Y-116589918D02*
X139348540Y-116848502D01*
X139767877Y-117120098D01*
X140176375Y-117404365D01*
X140573837Y-117700960D01*
X140960064Y-118009539D01*
X141334860Y-118329761D01*
X141698027Y-118661282D01*
X142049369Y-119003760D01*
X142388688Y-119356854D01*
X142715786Y-119720219D01*
X143030467Y-120093513D01*
X143332533Y-120476395D01*
X143621787Y-120868520D01*
X143898032Y-121269547D01*
X144161070Y-121679133D01*
X144410704Y-122096936D01*
X144646737Y-122522613D01*
X144868972Y-122955820D01*
X145077212Y-123396217D01*
X145271258Y-123843460D01*
X145450914Y-124297206D01*
X145615983Y-124757113D01*
X145766267Y-125222838D01*
X145901570Y-125694039D01*
X146021693Y-126170373D01*
X146126440Y-126651498D01*
X146215613Y-127137071D01*
X146289015Y-127626749D01*
X146346449Y-128120190D01*
X146387717Y-128617052D01*
X146412623Y-129116991D01*
X146420969Y-129619665D01*
X64221646Y-75468162D02*
X63871252Y-75663285D01*
X63516127Y-75845820D01*
X63156587Y-76015766D01*
X62792947Y-76173124D01*
X62425523Y-76317893D01*
X62054630Y-76450073D01*
X61680583Y-76569665D01*
X61303697Y-76676669D01*
X60924289Y-76771083D01*
X60542673Y-76852909D01*
X60159164Y-76922147D01*
X59774079Y-76978795D01*
X59387732Y-77022855D01*
X59000440Y-77054327D01*
X58612516Y-77073210D01*
X58224277Y-77079504D01*
X57836038Y-77073210D01*
X57448114Y-77054327D01*
X57060822Y-77022855D01*
X56674475Y-76978795D01*
X56289390Y-76922147D01*
X55905881Y-76852909D01*
X55524265Y-76771083D01*
X55144857Y-76676669D01*
X54767971Y-76569665D01*
X54393924Y-76450073D01*
X54023031Y-76317893D01*
X53655607Y-76173124D01*
X53291967Y-76015766D01*
X52932427Y-75845820D01*
X52577302Y-75663285D01*
X52226909Y-75468162D01*
X227362991Y-43283884D02*
X227713385Y-43088760D01*
X228068509Y-42906225D01*
X228428049Y-42736279D01*
X228791689Y-42578921D01*
X229159113Y-42434152D01*
X229530006Y-42301972D01*
X229904054Y-42182380D01*
X230280939Y-42075376D01*
X230660348Y-41980962D01*
X231041964Y-41899136D01*
X231425472Y-41829898D01*
X231810557Y-41773250D01*
X232196904Y-41729190D01*
X232584197Y-41697718D01*
X232972121Y-41678835D01*
X233360360Y-41672541D01*
X233748598Y-41678835D01*
X234136522Y-41697718D01*
X234523815Y-41729190D01*
X234910162Y-41773250D01*
X235295247Y-41829898D01*
X235678755Y-41899136D01*
X236060371Y-41980962D01*
X236439780Y-42075376D01*
X236816665Y-42182380D01*
X237190713Y-42301972D01*
X237561606Y-42434152D01*
X237929030Y-42578921D01*
X238292670Y-42736279D01*
X238652210Y-42906225D01*
X239007334Y-43088760D01*
X239357729Y-43283884D01*
X169417923Y-63997400D02*
X169074200Y-63790689D01*
X168738985Y-63573577D01*
X168412435Y-63346336D01*
X168094707Y-63109241D01*
X167785960Y-62862565D01*
X167486351Y-62606582D01*
X167196038Y-62341566D01*
X166915178Y-62067791D01*
X166643929Y-61785531D01*
X166382449Y-61495060D01*
X166130896Y-61196651D01*
X165889426Y-60890579D01*
X165658199Y-60577116D01*
X165437371Y-60256538D01*
X165227100Y-59929118D01*
X165027545Y-59595130D01*
X164838861Y-59254847D01*
X164661208Y-58908544D01*
X164494744Y-58556495D01*
X164339624Y-58198972D01*
X164196009Y-57836251D01*
X164064054Y-57468605D01*
X163943918Y-57096308D01*
X163835758Y-56719633D01*
X163739732Y-56338855D01*
X163655999Y-55954247D01*
X163584714Y-55566084D01*
X163526037Y-55174639D01*
X163480125Y-54780186D01*
X163447135Y-54382999D01*
X163427226Y-53983351D01*
X163420555Y-53581518D01*
X116411337Y-129619665D02*
X116419682Y-129116991D01*
X116444588Y-128617052D01*
X116485856Y-128120190D01*
X116543290Y-127626749D01*
X116616692Y-127137071D01*
X116705865Y-126651498D01*
X116810612Y-126170373D01*
X116930735Y-125694039D01*
X117066037Y-125222838D01*
X117216322Y-124757113D01*
X117381391Y-124297206D01*
X117561047Y-123843460D01*
X117755093Y-123396217D01*
X117963332Y-122955820D01*
X118185567Y-122522613D01*
X118421600Y-122096936D01*
X118671235Y-121679133D01*
X118934273Y-121269547D01*
X119210517Y-120868520D01*
X119499772Y-120476395D01*
X119801838Y-120093513D01*
X120116518Y-119720219D01*
X120443617Y-119356854D01*
X120782936Y-119003760D01*
X121134277Y-118661282D01*
X121497445Y-118329761D01*
X121872241Y-118009539D01*
X122258468Y-117700960D01*
X122655929Y-117404365D01*
X123064427Y-117120098D01*
X123483765Y-116848502D01*
X123913745Y-116589918D01*
X160857791Y-65114986D02*
X160857791Y-65114986D01*
X149247215Y-85737546D02*
X149590937Y-85944256D01*
X149926152Y-86161368D01*
X150252702Y-86388609D01*
X150570430Y-86625704D01*
X150879177Y-86872380D01*
X151178786Y-87128362D01*
X151469100Y-87393378D01*
X151749960Y-87667153D01*
X152021208Y-87949413D01*
X152282688Y-88239884D01*
X152534242Y-88538293D01*
X152775711Y-88844365D01*
X153006939Y-89157827D01*
X153227767Y-89478405D01*
X153438038Y-89805825D01*
X153637593Y-90139814D01*
X153826277Y-90480096D01*
X154003929Y-90826399D01*
X154170394Y-91178449D01*
X154325514Y-91535971D01*
X154469129Y-91898692D01*
X154601084Y-92266339D01*
X154721220Y-92638636D01*
X154829380Y-93015311D01*
X154925406Y-93396089D01*
X155009139Y-93780696D01*
X155080424Y-94168859D01*
X155139101Y-94560304D01*
X155185013Y-94954757D01*
X155218003Y-95351944D01*
X155237912Y-95751592D01*
X155244584Y-96153426D01*
X215925921Y-85037421D02*
X215932592Y-84635587D01*
X215952501Y-84235939D01*
X215985491Y-83838752D01*
X216031403Y-83444299D01*
X216090080Y-83052854D01*
X216161365Y-82664691D01*
X216245098Y-82280083D01*
X216341124Y-81899305D01*
X216449284Y-81522630D01*
X216569420Y-81150333D01*
X216701375Y-80782687D01*
X216844990Y-80419966D01*
X217000110Y-80062443D01*
X217166575Y-79710394D01*
X217344227Y-79364091D01*
X217532911Y-79023808D01*
X217732466Y-78689820D01*
X217942737Y-78362400D01*
X218163565Y-78041822D01*
X218394793Y-77728359D01*
X218636262Y-77422287D01*
X218887816Y-77123878D01*
X219149296Y-76833407D01*
X219420544Y-76551147D01*
X219701404Y-76277372D01*
X219991718Y-76012356D01*
X220291327Y-75756373D01*
X220600074Y-75509697D01*
X220917802Y-75272602D01*
X221244352Y-75045361D01*
X221579567Y-74828249D01*
X221923290Y-74621539D01*
X163859914Y-95453303D02*
X163516191Y-95246592D01*
X163180976Y-95029480D01*
X162854426Y-94802239D01*
X162536698Y-94565143D01*
X162227951Y-94318467D01*
X161928342Y-94062485D01*
X161638028Y-93797469D01*
X161357168Y-93523694D01*
X161085920Y-93241434D01*
X160824440Y-92950963D01*
X160572886Y-92652554D01*
X160331417Y-92346481D01*
X160100189Y-92033019D01*
X159879361Y-91712441D01*
X159669090Y-91385021D01*
X159469535Y-91051033D01*
X159280851Y-90710750D01*
X159103199Y-90364447D01*
X158936734Y-90012397D01*
X158781614Y-89654875D01*
X158637999Y-89292154D01*
X158506044Y-88924507D01*
X158385908Y-88552210D01*
X158277748Y-88175535D01*
X158181722Y-87794757D01*
X158097989Y-87410150D01*
X158026704Y-87021987D01*
X157968027Y-86630542D01*
X157922115Y-86236089D01*
X157889125Y-85838902D01*
X157869216Y-85439254D01*
X157862545Y-85037421D01*
X181412661Y-43165636D02*
X181756383Y-43372346D01*
X182091598Y-43589458D01*
X182418148Y-43816699D01*
X182735876Y-44053795D01*
X183044623Y-44300471D01*
X183344232Y-44556453D01*
X183634546Y-44821469D01*
X183915406Y-45095244D01*
X184186654Y-45377504D01*
X184448134Y-45667975D01*
X184699688Y-45966384D01*
X184941157Y-46272457D01*
X185172385Y-46585919D01*
X185393213Y-46906497D01*
X185603484Y-47233917D01*
X185803039Y-47567906D01*
X185991723Y-47908188D01*
X186169375Y-48254491D01*
X186335840Y-48606541D01*
X186490960Y-48964063D01*
X186634575Y-49326784D01*
X186766530Y-49694431D01*
X186886666Y-50066728D01*
X186994826Y-50443403D01*
X187090852Y-50824181D01*
X187174585Y-51208788D01*
X187245870Y-51596951D01*
X187304547Y-51988396D01*
X187350459Y-52382849D01*
X187383449Y-52780036D01*
X187403358Y-53179684D01*
X187410030Y-53581518D01*
X163859914Y-74621539D02*
X164210308Y-74426415D01*
X164565432Y-74243880D01*
X164924972Y-74073934D01*
X165288612Y-73916576D01*
X165656036Y-73771807D01*
X166026929Y-73639627D01*
X166400977Y-73520035D01*
X166777862Y-73413031D01*
X167157271Y-73318617D01*
X167538887Y-73236791D01*
X167922395Y-73167553D01*
X168307480Y-73110905D01*
X168693827Y-73066845D01*
X169081120Y-73035373D01*
X169469044Y-73016490D01*
X169857283Y-73010196D01*
X170245521Y-73016490D01*
X170633445Y-73035373D01*
X171020738Y-73066845D01*
X171407085Y-73110905D01*
X171792170Y-73167553D01*
X172175678Y-73236791D01*
X172557294Y-73318617D01*
X172936703Y-73413031D01*
X173313588Y-73520035D01*
X173687636Y-73639627D01*
X174058529Y-73771807D01*
X174425953Y-73916576D01*
X174789593Y-74073934D01*
X175149133Y-74243880D01*
X175504257Y-74426415D01*
X175854652Y-74621539D01*
X239357729Y-43283884D02*
X239701451Y-43490594D01*
X240036666Y-43707706D01*
X240363216Y-43934947D01*
X240680944Y-44172043D01*
X240989691Y-44418719D01*
X241289300Y-44674701D01*
X241579614Y-44939717D01*
X241860474Y-45213492D01*
X242131722Y-45495752D01*
X242393202Y-45786223D01*
X242644756Y-46084632D01*
X242886225Y-46390705D01*
X243117453Y-46704167D01*
X243338281Y-47024745D01*
X243548552Y-47352165D01*
X243748107Y-47686154D01*
X243936791Y-48026436D01*
X244114443Y-48372739D01*
X244280908Y-48724789D01*
X244436028Y-49082311D01*
X244579643Y-49445032D01*
X244711598Y-49812679D01*
X244831734Y-50184976D01*
X244939894Y-50561651D01*
X245035920Y-50942429D01*
X245119653Y-51327036D01*
X245190938Y-51715199D01*
X245249615Y-52106644D01*
X245295527Y-52501097D01*
X245328517Y-52898284D01*
X245348426Y-53297932D01*
X245355098Y-53699766D01*
X70219015Y-65052280D02*
X70212343Y-65454113D01*
X70192434Y-65853761D01*
X70159444Y-66250948D01*
X70113532Y-66645401D01*
X70054855Y-67036846D01*
X69983570Y-67425009D01*
X69899837Y-67809616D01*
X69803811Y-68190394D01*
X69695651Y-68567069D01*
X69575515Y-68939366D01*
X69443560Y-69307013D01*
X69299945Y-69669734D01*
X69144825Y-70027256D01*
X68978360Y-70379306D01*
X68800708Y-70725609D01*
X68612024Y-71065892D01*
X68412469Y-71399880D01*
X68202198Y-71727300D01*
X67981370Y-72047878D01*
X67750142Y-72361340D01*
X67508673Y-72667413D01*
X67257119Y-72965822D01*
X66995639Y-73256293D01*
X66724391Y-73538553D01*
X66443531Y-73812328D01*
X66153217Y-74077344D01*
X65853608Y-74333326D01*
X65544861Y-74580002D01*
X65227133Y-74817098D01*
X64900583Y-75044339D01*
X64565368Y-75261451D01*
X64221646Y-75468162D01*
X163420555Y-53581518D02*
X163427226Y-53179684D01*
X163447135Y-52780036D01*
X163480125Y-52382849D01*
X163526037Y-51988396D01*
X163584714Y-51596951D01*
X163655999Y-51208788D01*
X163739732Y-50824181D01*
X163835758Y-50443403D01*
X163943918Y-50066728D01*
X164064054Y-49694431D01*
X164196009Y-49326784D01*
X164339624Y-48964063D01*
X164494744Y-48606541D01*
X164661208Y-48254491D01*
X164838861Y-47908188D01*
X165027545Y-47567906D01*
X165227100Y-47233917D01*
X165437371Y-46906497D01*
X165658199Y-46585919D01*
X165889426Y-46272457D01*
X166130896Y-45966384D01*
X166382449Y-45667975D01*
X166643929Y-45377504D01*
X166915178Y-45095244D01*
X167196038Y-44821469D01*
X167486351Y-44556453D01*
X167785960Y-44300471D01*
X168094707Y-44053795D01*
X168412435Y-43816699D01*
X168738985Y-43589458D01*
X169074200Y-43372346D01*
X169417923Y-43165636D01*
X70219015Y-65052280D02*
X70219015Y-65052280D01*
X107925166Y-66107160D02*
X108275560Y-65912036D01*
X108630684Y-65729501D01*
X108990224Y-65559555D01*
X109353864Y-65402197D01*
X109721288Y-65257428D01*
X110092181Y-65125248D01*
X110466229Y-65005656D01*
X110843114Y-64898652D01*
X111222523Y-64804238D01*
X111604139Y-64722412D01*
X111987647Y-64653174D01*
X112372732Y-64596526D01*
X112759079Y-64552466D01*
X113146372Y-64520994D01*
X113534296Y-64502111D01*
X113922535Y-64495817D01*
X114310773Y-64502111D01*
X114698697Y-64520994D01*
X115085990Y-64552466D01*
X115472337Y-64596526D01*
X115857422Y-64653174D01*
X116240930Y-64722412D01*
X116622546Y-64804238D01*
X117001955Y-64898652D01*
X117378840Y-65005656D01*
X117752888Y-65125248D01*
X118123781Y-65257428D01*
X118491205Y-65402197D01*
X118854845Y-65559555D01*
X119214385Y-65729501D01*
X119569509Y-65912036D01*
X119919904Y-66107160D01*
X146420969Y-129619665D02*
X146412623Y-130122338D01*
X146387717Y-130622277D01*
X146346449Y-131119139D01*
X146289015Y-131612580D01*
X146215613Y-132102258D01*
X146126440Y-132587831D01*
X146021693Y-133068955D01*
X145901570Y-133545290D01*
X145766267Y-134016491D01*
X145615983Y-134482216D01*
X145450914Y-134942123D01*
X145271258Y-135395869D01*
X145077212Y-135843112D01*
X144868972Y-136283508D01*
X144646737Y-136716716D01*
X144410704Y-137142393D01*
X144161070Y-137560195D01*
X143898032Y-137969781D01*
X143621787Y-138370808D01*
X143332533Y-138762934D01*
X143030467Y-139145815D01*
X142715786Y-139519110D01*
X142388688Y-139882475D01*
X142049369Y-140235568D01*
X141698027Y-140578047D01*
X141334860Y-140909568D01*
X140960064Y-141229790D01*
X140573837Y-141538369D01*
X140176375Y-141834964D01*
X139767877Y-142119230D01*
X139348540Y-142390827D01*
X138918561Y-142649412D01*
X157862545Y-85037421D02*
X157869216Y-84635587D01*
X157889125Y-84235939D01*
X157922115Y-83838752D01*
X157968027Y-83444299D01*
X158026704Y-83052854D01*
X158097989Y-82664691D01*
X158181722Y-82280083D01*
X158277748Y-81899305D01*
X158385908Y-81522630D01*
X158506044Y-81150333D01*
X158637999Y-80782687D01*
X158781614Y-80419966D01*
X158936734Y-80062443D01*
X159103199Y-79710394D01*
X159280851Y-79364091D01*
X159469535Y-79023808D01*
X159669090Y-78689820D01*
X159879361Y-78362400D01*
X160100189Y-78041822D01*
X160331417Y-77728359D01*
X160572886Y-77422287D01*
X160824440Y-77123878D01*
X161085920Y-76833407D01*
X161357168Y-76551147D01*
X161638028Y-76277372D01*
X161928342Y-76012356D01*
X162227951Y-75756373D01*
X162536698Y-75509697D01*
X162854426Y-75272602D01*
X163180976Y-75045361D01*
X163516191Y-74828249D01*
X163859914Y-74621539D01*
X119919904Y-66107160D02*
X120263626Y-66313870D01*
X120598841Y-66530982D01*
X120925391Y-66758223D01*
X121243119Y-66995318D01*
X121551866Y-67241994D01*
X121851475Y-67497977D01*
X122141789Y-67762993D01*
X122422649Y-68036768D01*
X122693897Y-68319028D01*
X122955377Y-68609499D01*
X123206931Y-68907908D01*
X123448400Y-69213980D01*
X123679628Y-69527443D01*
X123900456Y-69848021D01*
X124110727Y-70175441D01*
X124310282Y-70509429D01*
X124498966Y-70849712D01*
X124676618Y-71196015D01*
X124843083Y-71548064D01*
X124998203Y-71905587D01*
X125141818Y-72268308D01*
X125273773Y-72635954D01*
X125393909Y-73008251D01*
X125502069Y-73384926D01*
X125598095Y-73765704D01*
X125681828Y-74150312D01*
X125753113Y-74538475D01*
X125811790Y-74929920D01*
X125857702Y-75324373D01*
X125890692Y-75721560D01*
X125910601Y-76121208D01*
X125917273Y-76523042D01*
X123913745Y-116589918D02*
X124352070Y-116345828D01*
X124796313Y-116117486D01*
X125246079Y-115904891D01*
X125700974Y-115708045D01*
X126160604Y-115526946D01*
X126624573Y-115361595D01*
X127092487Y-115211991D01*
X127563952Y-115078136D01*
X128038573Y-114960028D01*
X128515955Y-114857668D01*
X128995705Y-114771055D01*
X129477428Y-114700190D01*
X129960728Y-114645073D01*
X130445212Y-114605704D01*
X130930485Y-114582082D01*
X131416153Y-114574209D01*
X131901820Y-114582082D01*
X132387093Y-114605704D01*
X132871577Y-114645073D01*
X133354877Y-114700190D01*
X133836600Y-114771055D01*
X134316350Y-114857668D01*
X134793732Y-114960028D01*
X135268353Y-115078136D01*
X135739818Y-115211991D01*
X136207732Y-115361595D01*
X136671701Y-115526946D01*
X137131331Y-115708045D01*
X137586226Y-115904891D01*
X138035992Y-116117486D01*
X138480235Y-116345828D01*
X138918561Y-116589918D01*
X107925166Y-86938924D02*
X107581443Y-86732213D01*
X107246228Y-86515101D01*
X106919678Y-86287860D01*
X106601950Y-86050764D01*
X106293203Y-85804088D01*
X105993594Y-85548106D01*
X105703281Y-85283090D01*
X105422421Y-85009315D01*
X105151172Y-84727055D01*
X104889692Y-84436584D01*
X104638139Y-84138175D01*
X104396669Y-83832102D01*
X104165442Y-83518640D01*
X103944614Y-83198062D01*
X103734343Y-82870642D01*
X103534788Y-82536654D01*
X103346104Y-82196371D01*
X103168451Y-81850068D01*
X103001987Y-81498018D01*
X102846867Y-81140496D01*
X102703252Y-80777775D01*
X102571297Y-80410128D01*
X102451161Y-80037831D01*
X102343001Y-79661156D01*
X102246975Y-79280378D01*
X102163242Y-78895771D01*
X102091957Y-78507608D01*
X102033280Y-78116163D01*
X101987368Y-77721710D01*
X101954378Y-77324523D01*
X101934469Y-76924875D01*
X101927798Y-76523042D01*
X210385198Y-63879139D02*
X210034803Y-64074262D01*
X209679679Y-64256797D01*
X209320139Y-64426743D01*
X208956499Y-64584101D01*
X208589075Y-64728870D01*
X208218182Y-64861050D01*
X207844134Y-64980642D01*
X207467249Y-65087646D01*
X207087840Y-65182060D01*
X206706224Y-65263886D01*
X206322716Y-65333124D01*
X205937631Y-65389772D01*
X205551284Y-65433832D01*
X205163991Y-65465304D01*
X204776067Y-65484187D01*
X204387829Y-65490481D01*
X203999590Y-65484187D01*
X203611666Y-65465304D01*
X203224373Y-65433832D01*
X202838026Y-65389772D01*
X202452941Y-65333124D01*
X202069433Y-65263886D01*
X201687817Y-65182060D01*
X201308408Y-65087646D01*
X200931523Y-64980642D01*
X200557475Y-64861050D01*
X200186582Y-64728870D01*
X199819158Y-64584101D01*
X199455518Y-64426743D01*
X199095978Y-64256797D01*
X198740854Y-64074262D01*
X198390460Y-63879139D01*
X221365622Y-53699766D02*
X221372293Y-53297932D01*
X221392202Y-52898284D01*
X221425192Y-52501097D01*
X221471104Y-52106644D01*
X221529781Y-51715199D01*
X221601066Y-51327036D01*
X221684799Y-50942429D01*
X221780825Y-50561651D01*
X221888985Y-50184976D01*
X222009121Y-49812679D01*
X222141076Y-49445032D01*
X222284691Y-49082311D01*
X222439811Y-48724789D01*
X222606276Y-48372739D01*
X222783928Y-48026436D01*
X222972612Y-47686154D01*
X223172167Y-47352165D01*
X223382438Y-47024745D01*
X223603266Y-46704167D01*
X223834494Y-46390705D01*
X224075963Y-46084632D01*
X224327517Y-45786223D01*
X224588997Y-45495752D01*
X224860245Y-45213492D01*
X225141105Y-44939717D01*
X225431419Y-44674701D01*
X225731028Y-44418719D01*
X226039775Y-44172043D01*
X226357503Y-43934947D01*
X226684053Y-43707706D01*
X227019268Y-43490594D01*
X227362991Y-43283884D01*
X81317714Y-75586412D02*
X80973991Y-75379701D01*
X80638776Y-75162589D01*
X80312226Y-74935348D01*
X79994498Y-74698253D01*
X79685751Y-74451577D01*
X79386142Y-74195594D01*
X79095828Y-73930578D01*
X78814968Y-73656803D01*
X78543720Y-73374543D01*
X78282240Y-73084072D01*
X78030686Y-72785663D01*
X77789217Y-72479591D01*
X77557989Y-72166128D01*
X77337161Y-71845550D01*
X77126890Y-71518130D01*
X76927335Y-71184142D01*
X76738651Y-70843859D01*
X76560999Y-70497556D01*
X76394534Y-70145507D01*
X76239414Y-69787984D01*
X76095799Y-69425263D01*
X75963844Y-69057617D01*
X75843708Y-68685320D01*
X75735548Y-68308645D01*
X75639522Y-67927867D01*
X75555789Y-67543259D01*
X75484504Y-67155096D01*
X75425827Y-66763651D01*
X75379915Y-66369198D01*
X75346925Y-65972011D01*
X75327016Y-65572363D01*
X75320345Y-65170530D01*
X187410030Y-53581518D02*
X187403358Y-53983351D01*
X187383449Y-54382999D01*
X187350459Y-54780186D01*
X187304547Y-55174639D01*
X187245870Y-55566084D01*
X187174585Y-55954247D01*
X187090852Y-56338855D01*
X186994826Y-56719633D01*
X186886666Y-57096308D01*
X186766530Y-57468605D01*
X186634575Y-57836251D01*
X186490960Y-58198972D01*
X186335840Y-58556495D01*
X186169375Y-58908544D01*
X185991723Y-59254847D01*
X185803039Y-59595130D01*
X185603484Y-59929118D01*
X185393213Y-60256538D01*
X185172385Y-60577116D01*
X184941157Y-60890579D01*
X184699688Y-61196651D01*
X184448134Y-61495060D01*
X184186654Y-61785531D01*
X183915406Y-62067791D01*
X183634546Y-62341566D01*
X183344232Y-62606582D01*
X183044623Y-62862565D01*
X182735876Y-63109241D01*
X182418148Y-63346336D01*
X182091598Y-63573577D01*
X181756383Y-63790689D01*
X181412661Y-63997400D01*
X198390460Y-63879139D02*
X198046737Y-63672428D01*
X197711522Y-63455316D01*
X197384972Y-63228075D01*
X197067244Y-62990980D01*
X196758497Y-62744304D01*
X196458888Y-62488321D01*
X196168574Y-62223305D01*
X195887714Y-61949531D01*
X195616466Y-61667271D01*
X195354986Y-61376799D01*
X195103432Y-61078390D01*
X194861963Y-60772318D01*
X194630735Y-60458856D01*
X194409907Y-60138278D01*
X194199636Y-59810858D01*
X194000081Y-59476869D01*
X193811397Y-59136587D01*
X193633745Y-58790284D01*
X193467280Y-58438234D01*
X193312160Y-58080712D01*
X193168545Y-57717991D01*
X193036590Y-57350344D01*
X192916454Y-56978047D01*
X192808294Y-56601372D01*
X192712268Y-56220594D01*
X192628535Y-55835987D01*
X192557250Y-55447824D01*
X192498573Y-55056379D01*
X192452661Y-54661926D01*
X192419671Y-54264739D01*
X192399762Y-53865091D01*
X192393091Y-53463258D01*
X137252477Y-106569308D02*
X136908754Y-106362597D01*
X136573539Y-106145485D01*
X136246989Y-105918244D01*
X135929261Y-105681149D01*
X135620514Y-105434473D01*
X135320905Y-105178490D01*
X135030592Y-104913474D01*
X134749732Y-104639700D01*
X134478483Y-104357440D01*
X134217003Y-104066968D01*
X133965449Y-103768559D01*
X133723980Y-103462487D01*
X133492753Y-103149025D01*
X133271925Y-102828447D01*
X133061654Y-102501027D01*
X132862098Y-102167038D01*
X132673415Y-101826756D01*
X132495762Y-101480453D01*
X132329297Y-101128403D01*
X132174178Y-100770881D01*
X132030562Y-100408159D01*
X131898607Y-100040513D01*
X131778471Y-99668216D01*
X131670311Y-99291541D01*
X131574286Y-98910763D01*
X131490552Y-98526155D01*
X131419268Y-98137992D01*
X131360590Y-97746547D01*
X131314678Y-97352094D01*
X131281688Y-96954907D01*
X131261779Y-96555259D01*
X131255108Y-96153426D01*
X81317714Y-54754648D02*
X81668108Y-54559524D01*
X82023232Y-54376989D01*
X82382772Y-54207043D01*
X82746412Y-54049685D01*
X83113836Y-53904916D01*
X83484729Y-53772736D01*
X83858777Y-53653144D01*
X84235662Y-53546141D01*
X84615071Y-53451726D01*
X84996687Y-53369900D01*
X85380195Y-53300663D01*
X85765280Y-53244014D01*
X86151627Y-53199954D01*
X86538920Y-53168483D01*
X86926844Y-53149600D01*
X87315083Y-53143306D01*
X87703321Y-53149600D01*
X88091245Y-53168483D01*
X88478538Y-53199954D01*
X88864885Y-53244014D01*
X89249970Y-53300663D01*
X89633478Y-53369900D01*
X90015094Y-53451726D01*
X90394503Y-53546141D01*
X90771388Y-53653144D01*
X91145436Y-53772736D01*
X91516329Y-53904916D01*
X91883753Y-54049685D01*
X92247393Y-54207043D01*
X92606933Y-54376989D01*
X92962057Y-54559524D01*
X93312452Y-54754648D01*
X136868315Y-65114986D02*
X136874986Y-64713152D01*
X136894895Y-64313504D01*
X136927885Y-63916317D01*
X136973797Y-63521864D01*
X137032474Y-63130419D01*
X137103759Y-62742256D01*
X137187492Y-62357649D01*
X137283518Y-61976871D01*
X137391678Y-61600196D01*
X137511814Y-61227899D01*
X137643769Y-60860252D01*
X137787384Y-60497531D01*
X137942504Y-60140009D01*
X138108969Y-59787959D01*
X138286621Y-59441656D01*
X138475305Y-59101374D01*
X138674860Y-58767385D01*
X138885131Y-58439965D01*
X139105959Y-58119387D01*
X139337187Y-57805925D01*
X139578656Y-57499852D01*
X139830210Y-57201443D01*
X140091690Y-56910972D01*
X140362938Y-56628712D01*
X140643798Y-56354937D01*
X140934112Y-56089921D01*
X141233721Y-55833939D01*
X141542468Y-55587263D01*
X141860196Y-55350167D01*
X142186746Y-55122926D01*
X142521961Y-54905814D01*
X142865684Y-54699104D01*
X125917273Y-76523042D02*
X125917273Y-76523042D01*
X99309821Y-65170530D02*
X99309821Y-65170530D01*
X149247215Y-106569308D02*
X148896820Y-106764431D01*
X148541696Y-106946966D01*
X148182156Y-107116912D01*
X147818516Y-107274270D01*
X147451092Y-107419039D01*
X147080199Y-107551219D01*
X146706151Y-107670811D01*
X146329266Y-107777815D01*
X145949857Y-107872229D01*
X145568241Y-107954055D01*
X145184733Y-108023293D01*
X144799648Y-108079941D01*
X144413301Y-108124001D01*
X144026008Y-108155473D01*
X143638084Y-108174356D01*
X143249846Y-108180650D01*
X142861607Y-108174356D01*
X142473683Y-108155473D01*
X142086390Y-108124001D01*
X141700043Y-108079941D01*
X141314958Y-108023293D01*
X140931450Y-107954055D01*
X140549834Y-107872229D01*
X140170425Y-107777815D01*
X139793540Y-107670811D01*
X139419492Y-107551219D01*
X139048599Y-107419039D01*
X138681175Y-107274270D01*
X138317535Y-107116912D01*
X137957995Y-106946966D01*
X137602871Y-106764431D01*
X137252477Y-106569308D01*
X155244584Y-96153426D02*
X155237912Y-96555259D01*
X155218003Y-96954907D01*
X155185013Y-97352094D01*
X155139101Y-97746547D01*
X155080424Y-98137992D01*
X155009139Y-98526155D01*
X154925406Y-98910763D01*
X154829380Y-99291541D01*
X154721220Y-99668216D01*
X154601084Y-100040513D01*
X154469129Y-100408159D01*
X154325514Y-100770881D01*
X154170394Y-101128403D01*
X154003929Y-101480453D01*
X153826277Y-101826756D01*
X153637593Y-102167038D01*
X153438038Y-102501027D01*
X153227767Y-102828447D01*
X153006939Y-103149025D01*
X152775711Y-103462487D01*
X152534242Y-103768559D01*
X152282688Y-104066968D01*
X152021208Y-104357440D01*
X151749960Y-104639700D01*
X151469100Y-104913474D01*
X151178786Y-105178490D01*
X150879177Y-105434473D01*
X150570430Y-105681149D01*
X150252702Y-105918244D01*
X149926152Y-106145485D01*
X149590937Y-106362597D01*
X149247215Y-106569308D01*
X99309821Y-65170530D02*
X99303149Y-65572363D01*
X99283240Y-65972011D01*
X99250250Y-66369198D01*
X99204338Y-66763651D01*
X99145660Y-67155096D01*
X99074376Y-67543259D01*
X98990642Y-67927867D01*
X98894617Y-68308645D01*
X98786457Y-68685320D01*
X98666321Y-69057617D01*
X98534366Y-69425263D01*
X98390750Y-69787984D01*
X98235631Y-70145507D01*
X98069166Y-70497556D01*
X97891513Y-70843859D01*
X97702830Y-71184142D01*
X97503274Y-71518130D01*
X97293003Y-71845550D01*
X97072175Y-72166128D01*
X96840948Y-72479591D01*
X96599479Y-72785663D01*
X96347925Y-73084072D01*
X96086445Y-73374543D01*
X95815196Y-73656803D01*
X95534336Y-73930578D01*
X95244023Y-74195594D01*
X94944414Y-74451577D01*
X94635667Y-74698253D01*
X94317939Y-74935348D01*
X93991389Y-75162589D01*
X93656174Y-75379701D01*
X93312452Y-75586412D01*
X192714192Y-95453303D02*
X192370469Y-95246592D01*
X192035254Y-95029480D01*
X191708704Y-94802239D01*
X191390976Y-94565143D01*
X191082229Y-94318467D01*
X190782620Y-94062485D01*
X190492307Y-93797469D01*
X190211447Y-93523694D01*
X189940198Y-93241434D01*
X189678718Y-92950963D01*
X189427164Y-92652554D01*
X189185695Y-92346481D01*
X188954468Y-92033019D01*
X188733640Y-91712441D01*
X188523369Y-91385021D01*
X188323813Y-91051033D01*
X188135130Y-90710750D01*
X187957477Y-90364447D01*
X187791012Y-90012397D01*
X187635893Y-89654875D01*
X187492277Y-89292154D01*
X187360322Y-88924507D01*
X187240186Y-88552210D01*
X187132026Y-88175535D01*
X187036001Y-87794757D01*
X186952267Y-87410150D01*
X186880983Y-87021987D01*
X186822305Y-86630542D01*
X186776393Y-86236089D01*
X186743403Y-85838902D01*
X186723494Y-85439254D01*
X186716823Y-85037421D01*
X175854652Y-74621539D02*
X176198374Y-74828249D01*
X176533589Y-75045361D01*
X176860139Y-75272602D01*
X177177867Y-75509697D01*
X177486614Y-75756373D01*
X177786223Y-76012356D01*
X178076537Y-76277372D01*
X178357397Y-76551147D01*
X178628645Y-76833407D01*
X178890125Y-77123878D01*
X179141679Y-77422287D01*
X179383148Y-77728359D01*
X179614376Y-78041822D01*
X179835204Y-78362400D01*
X180045475Y-78689820D01*
X180245030Y-79023808D01*
X180433714Y-79364091D01*
X180611366Y-79710394D01*
X180777831Y-80062443D01*
X180932951Y-80419966D01*
X181076566Y-80782687D01*
X181208521Y-81150333D01*
X181328657Y-81522630D01*
X181436817Y-81899305D01*
X181532843Y-82280083D01*
X181616576Y-82664691D01*
X181687861Y-83052854D01*
X181746538Y-83444299D01*
X181792450Y-83838752D01*
X181825440Y-84235939D01*
X181845349Y-84635587D01*
X181852021Y-85037421D01*
X52226909Y-75468162D02*
X51883186Y-75261451D01*
X51547971Y-75044339D01*
X51221421Y-74817098D01*
X50903693Y-74580002D01*
X50594946Y-74333326D01*
X50295337Y-74077344D01*
X50005023Y-73812328D01*
X49724163Y-73538553D01*
X49452915Y-73256293D01*
X49191435Y-72965822D01*
X48939881Y-72667413D01*
X48698412Y-72361340D01*
X48467184Y-72047878D01*
X48246356Y-71727300D01*
X48036085Y-71399880D01*
X47836530Y-71065892D01*
X47647846Y-70725609D01*
X47470194Y-70379306D01*
X47303729Y-70027256D01*
X47148609Y-69669734D01*
X47004994Y-69307013D01*
X46873039Y-68939366D01*
X46752903Y-68567069D01*
X46644743Y-68190394D01*
X46548717Y-67809616D01*
X46464984Y-67425009D01*
X46393699Y-67036846D01*
X46335022Y-66645401D01*
X46289110Y-66250948D01*
X46256120Y-65853761D01*
X46236211Y-65454113D01*
X46229540Y-65052280D01*
X46229540Y-65052280D02*
X46236211Y-64650446D01*
X46256120Y-64250798D01*
X46289110Y-63853611D01*
X46335022Y-63459158D01*
X46393699Y-63067713D01*
X46464984Y-62679550D01*
X46548717Y-62294943D01*
X46644743Y-61914165D01*
X46752903Y-61537490D01*
X46873039Y-61165193D01*
X47004994Y-60797546D01*
X47148609Y-60434825D01*
X47303729Y-60077303D01*
X47470194Y-59725253D01*
X47647846Y-59378950D01*
X47836530Y-59038668D01*
X48036085Y-58704679D01*
X48246356Y-58377259D01*
X48467184Y-58056681D01*
X48698412Y-57743219D01*
X48939881Y-57437146D01*
X49191435Y-57138737D01*
X49452915Y-56848266D01*
X49724163Y-56566006D01*
X50005023Y-56292231D01*
X50295337Y-56027215D01*
X50594946Y-55771233D01*
X50903693Y-55524557D01*
X51221421Y-55287461D01*
X51547971Y-55060220D01*
X51883186Y-54843108D01*
X52226909Y-54636398D01*
X146420969Y-129619665D02*
X146420969Y-129619665D01*
X125917273Y-76523042D02*
X125910601Y-76924875D01*
X125890692Y-77324523D01*
X125857702Y-77721710D01*
X125811790Y-78116163D01*
X125753113Y-78507608D01*
X125681828Y-78895771D01*
X125598095Y-79280378D01*
X125502069Y-79661156D01*
X125393909Y-80037831D01*
X125273773Y-80410128D01*
X125141818Y-80777775D01*
X124998203Y-81140496D01*
X124843083Y-81498018D01*
X124676618Y-81850068D01*
X124498966Y-82196371D01*
X124310282Y-82536654D01*
X124110727Y-82870642D01*
X123900456Y-83198062D01*
X123679628Y-83518640D01*
X123448400Y-83832102D01*
X123206931Y-84138175D01*
X122955377Y-84436584D01*
X122693897Y-84727055D01*
X122422649Y-85009315D01*
X122141789Y-85283090D01*
X121851475Y-85548106D01*
X121551866Y-85804088D01*
X121243119Y-86050764D01*
X120925391Y-86287860D01*
X120598841Y-86515101D01*
X120263626Y-86732213D01*
X119919904Y-86938924D01*
X233360360Y-65726990D02*
X232743112Y-65711340D01*
X232133967Y-65664894D01*
X231533679Y-65588409D01*
X230943002Y-65482639D01*
X230362688Y-65348341D01*
X229793492Y-65186269D01*
X229236167Y-64997181D01*
X228691467Y-64781831D01*
X228160145Y-64540975D01*
X227642956Y-64275368D01*
X227140652Y-63985768D01*
X226653988Y-63672928D01*
X226183717Y-63337606D01*
X225730593Y-62980556D01*
X225295369Y-62602535D01*
X224878800Y-62204297D01*
X224481638Y-61786599D01*
X224104637Y-61350197D01*
X223748552Y-60895845D01*
X223414135Y-60424301D01*
X223102141Y-59936318D01*
X222813322Y-59432654D01*
X222548433Y-58914064D01*
X222308228Y-58381304D01*
X222093460Y-57835128D01*
X221904882Y-57276294D01*
X221743248Y-56705556D01*
X221609312Y-56123671D01*
X221503828Y-55531393D01*
X221427549Y-54929479D01*
X221381229Y-54318685D01*
X221365622Y-53699766D01*
X154860422Y-75530868D02*
X154510027Y-75725991D01*
X154154903Y-75908526D01*
X153795363Y-76078472D01*
X153431723Y-76235830D01*
X153064299Y-76380599D01*
X152693406Y-76512779D01*
X152319358Y-76632371D01*
X151942473Y-76739375D01*
X151563064Y-76833789D01*
X151181448Y-76915615D01*
X150797940Y-76984853D01*
X150412855Y-77041501D01*
X150026508Y-77085561D01*
X149639215Y-77117033D01*
X149251291Y-77135916D01*
X148863053Y-77142210D01*
X148474814Y-77135916D01*
X148086890Y-77117033D01*
X147699597Y-77085561D01*
X147313250Y-77041501D01*
X146928165Y-76984853D01*
X146544657Y-76915615D01*
X146163041Y-76833789D01*
X145783632Y-76739375D01*
X145406747Y-76632371D01*
X145032699Y-76512779D01*
X144661806Y-76380599D01*
X144294382Y-76235830D01*
X143930742Y-76078472D01*
X143571202Y-75908526D01*
X143216078Y-75725991D01*
X142865684Y-75530868D01*
X204708930Y-74621539D02*
X205052652Y-74828249D01*
X205387867Y-75045361D01*
X205714417Y-75272602D01*
X206032145Y-75509697D01*
X206340892Y-75756373D01*
X206640501Y-76012356D01*
X206930815Y-76277372D01*
X207211675Y-76551147D01*
X207482923Y-76833407D01*
X207744403Y-77123878D01*
X207995957Y-77422287D01*
X208237426Y-77728359D01*
X208468654Y-78041822D01*
X208689482Y-78362400D01*
X208899753Y-78689820D01*
X209099308Y-79023808D01*
X209287992Y-79364091D01*
X209465644Y-79710394D01*
X209632109Y-80062443D01*
X209787229Y-80419966D01*
X209930844Y-80782687D01*
X210062799Y-81150333D01*
X210182935Y-81522630D01*
X210291095Y-81899305D01*
X210387121Y-82280083D01*
X210470854Y-82664691D01*
X210542139Y-83052854D01*
X210600816Y-83444299D01*
X210646728Y-83838752D01*
X210679718Y-84235939D01*
X210699627Y-84635587D01*
X210706299Y-85037421D01*
X198390460Y-43047376D02*
X198740854Y-42852252D01*
X199095978Y-42669717D01*
X199455518Y-42499771D01*
X199819158Y-42342413D01*
X200186582Y-42197644D01*
X200557475Y-42065464D01*
X200931523Y-41945872D01*
X201308408Y-41838868D01*
X201687817Y-41744454D01*
X202069433Y-41662628D01*
X202452941Y-41593390D01*
X202838026Y-41536742D01*
X203224373Y-41492682D01*
X203611666Y-41461210D01*
X203999590Y-41442327D01*
X204387829Y-41436033D01*
X204776067Y-41442327D01*
X205163991Y-41461210D01*
X205551284Y-41492682D01*
X205937631Y-41536742D01*
X206322716Y-41593390D01*
X206706224Y-41662628D01*
X207087840Y-41744454D01*
X207467249Y-41838868D01*
X207844134Y-41945872D01*
X208218182Y-42065464D01*
X208589075Y-42197644D01*
X208956499Y-42342413D01*
X209320139Y-42499771D01*
X209679679Y-42669717D01*
X210034803Y-42852252D01*
X210385198Y-43047376D01*
X216382567Y-53463258D02*
X216375895Y-53865091D01*
X216355986Y-54264739D01*
X216322996Y-54661926D01*
X216277084Y-55056379D01*
X216218407Y-55447824D01*
X216147122Y-55835987D01*
X216063389Y-56220594D01*
X215967363Y-56601372D01*
X215859203Y-56978047D01*
X215739067Y-57350344D01*
X215607112Y-57717991D01*
X215463497Y-58080712D01*
X215308377Y-58438234D01*
X215141912Y-58790284D01*
X214964260Y-59136587D01*
X214775576Y-59476869D01*
X214576021Y-59810858D01*
X214365750Y-60138278D01*
X214144922Y-60458856D01*
X213913694Y-60772318D01*
X213672225Y-61078390D01*
X213420671Y-61376799D01*
X213159191Y-61667271D01*
X212887943Y-61949531D01*
X212607083Y-62223305D01*
X212316769Y-62488321D01*
X212017160Y-62744304D01*
X211708413Y-62990980D01*
X211390685Y-63228075D01*
X211064135Y-63455316D01*
X210728920Y-63672428D01*
X210385198Y-63879139D01*
X142865684Y-54699104D02*
X143216078Y-54503980D01*
X143571202Y-54321445D01*
X143930742Y-54151499D01*
X144294382Y-53994141D01*
X144661806Y-53849372D01*
X145032699Y-53717192D01*
X145406747Y-53597600D01*
X145783632Y-53490597D01*
X146163041Y-53396182D01*
X146544657Y-53314356D01*
X146928165Y-53245119D01*
X147313250Y-53188470D01*
X147699597Y-53144410D01*
X148086890Y-53112939D01*
X148474814Y-53094056D01*
X148863053Y-53087762D01*
X149251291Y-53094056D01*
X149639215Y-53112939D01*
X150026508Y-53144410D01*
X150412855Y-53188470D01*
X150797940Y-53245119D01*
X151181448Y-53314356D01*
X151563064Y-53396182D01*
X151942473Y-53490597D01*
X152319358Y-53597600D01*
X152693406Y-53717192D01*
X153064299Y-53849372D01*
X153431723Y-53994141D01*
X153795363Y-54151499D01*
X154154903Y-54321445D01*
X154510027Y-54503980D01*
X154860422Y-54699104D01*
X210706299Y-85037421D02*
X210706299Y-85037421D01*
D12*
X73761653Y-101525828D02*
X73261653Y-100811542D01*
X72904510Y-101525828D02*
X72904510Y-100025828D01*
X72904510Y-100025828D02*
X73475939Y-100025828D01*
X73475939Y-100025828D02*
X73618796Y-100097257D01*
X73618796Y-100097257D02*
X73690225Y-100168685D01*
X73690225Y-100168685D02*
X73761653Y-100311542D01*
X73761653Y-100311542D02*
X73761653Y-100525828D01*
X73761653Y-100525828D02*
X73690225Y-100668685D01*
X73690225Y-100668685D02*
X73618796Y-100740114D01*
X73618796Y-100740114D02*
X73475939Y-100811542D01*
X73475939Y-100811542D02*
X72904510Y-100811542D01*
X74333082Y-101454400D02*
X74547368Y-101525828D01*
X74547368Y-101525828D02*
X74904510Y-101525828D01*
X74904510Y-101525828D02*
X75047368Y-101454400D01*
X75047368Y-101454400D02*
X75118796Y-101382971D01*
X75118796Y-101382971D02*
X75190225Y-101240114D01*
X75190225Y-101240114D02*
X75190225Y-101097257D01*
X75190225Y-101097257D02*
X75118796Y-100954400D01*
X75118796Y-100954400D02*
X75047368Y-100882971D01*
X75047368Y-100882971D02*
X74904510Y-100811542D01*
X74904510Y-100811542D02*
X74618796Y-100740114D01*
X74618796Y-100740114D02*
X74475939Y-100668685D01*
X74475939Y-100668685D02*
X74404510Y-100597257D01*
X74404510Y-100597257D02*
X74333082Y-100454400D01*
X74333082Y-100454400D02*
X74333082Y-100311542D01*
X74333082Y-100311542D02*
X74404510Y-100168685D01*
X74404510Y-100168685D02*
X74475939Y-100097257D01*
X74475939Y-100097257D02*
X74618796Y-100025828D01*
X74618796Y-100025828D02*
X74975939Y-100025828D01*
X74975939Y-100025828D02*
X75190225Y-100097257D01*
X75618796Y-100025828D02*
X76475939Y-100025828D01*
X76047367Y-101525828D02*
X76047367Y-100025828D01*
D11*
X88869673Y-100117219D02*
X88869673Y-100926742D01*
X88869673Y-100926742D02*
X88917292Y-101021980D01*
X88917292Y-101021980D02*
X88964911Y-101069600D01*
X88964911Y-101069600D02*
X89060149Y-101117219D01*
X89060149Y-101117219D02*
X89250625Y-101117219D01*
X89250625Y-101117219D02*
X89345863Y-101069600D01*
X89345863Y-101069600D02*
X89393482Y-101021980D01*
X89393482Y-101021980D02*
X89441101Y-100926742D01*
X89441101Y-100926742D02*
X89441101Y-100117219D01*
X89869673Y-101069600D02*
X90012530Y-101117219D01*
X90012530Y-101117219D02*
X90250625Y-101117219D01*
X90250625Y-101117219D02*
X90345863Y-101069600D01*
X90345863Y-101069600D02*
X90393482Y-101021980D01*
X90393482Y-101021980D02*
X90441101Y-100926742D01*
X90441101Y-100926742D02*
X90441101Y-100831504D01*
X90441101Y-100831504D02*
X90393482Y-100736266D01*
X90393482Y-100736266D02*
X90345863Y-100688647D01*
X90345863Y-100688647D02*
X90250625Y-100641028D01*
X90250625Y-100641028D02*
X90060149Y-100593409D01*
X90060149Y-100593409D02*
X89964911Y-100545790D01*
X89964911Y-100545790D02*
X89917292Y-100498171D01*
X89917292Y-100498171D02*
X89869673Y-100402933D01*
X89869673Y-100402933D02*
X89869673Y-100307695D01*
X89869673Y-100307695D02*
X89917292Y-100212457D01*
X89917292Y-100212457D02*
X89964911Y-100164838D01*
X89964911Y-100164838D02*
X90060149Y-100117219D01*
X90060149Y-100117219D02*
X90298244Y-100117219D01*
X90298244Y-100117219D02*
X90441101Y-100164838D01*
X91441101Y-101117219D02*
X91107768Y-100641028D01*
X90869673Y-101117219D02*
X90869673Y-100117219D01*
X90869673Y-100117219D02*
X91250625Y-100117219D01*
X91250625Y-100117219D02*
X91345863Y-100164838D01*
X91345863Y-100164838D02*
X91393482Y-100212457D01*
X91393482Y-100212457D02*
X91441101Y-100307695D01*
X91441101Y-100307695D02*
X91441101Y-100450552D01*
X91441101Y-100450552D02*
X91393482Y-100545790D01*
X91393482Y-100545790D02*
X91345863Y-100593409D01*
X91345863Y-100593409D02*
X91250625Y-100641028D01*
X91250625Y-100641028D02*
X90869673Y-100641028D01*
X83619673Y-101117219D02*
X83619673Y-100117219D01*
X83619673Y-100117219D02*
X84000625Y-100117219D01*
X84000625Y-100117219D02*
X84095863Y-100164838D01*
X84095863Y-100164838D02*
X84143482Y-100212457D01*
X84143482Y-100212457D02*
X84191101Y-100307695D01*
X84191101Y-100307695D02*
X84191101Y-100450552D01*
X84191101Y-100450552D02*
X84143482Y-100545790D01*
X84143482Y-100545790D02*
X84095863Y-100593409D01*
X84095863Y-100593409D02*
X84000625Y-100641028D01*
X84000625Y-100641028D02*
X83619673Y-100641028D01*
X84524435Y-100117219D02*
X84762530Y-101117219D01*
X84762530Y-101117219D02*
X84953006Y-100402933D01*
X84953006Y-100402933D02*
X85143482Y-101117219D01*
X85143482Y-101117219D02*
X85381578Y-100117219D01*
X86333958Y-101117219D02*
X86000625Y-100641028D01*
X85762530Y-101117219D02*
X85762530Y-100117219D01*
X85762530Y-100117219D02*
X86143482Y-100117219D01*
X86143482Y-100117219D02*
X86238720Y-100164838D01*
X86238720Y-100164838D02*
X86286339Y-100212457D01*
X86286339Y-100212457D02*
X86333958Y-100307695D01*
X86333958Y-100307695D02*
X86333958Y-100450552D01*
X86333958Y-100450552D02*
X86286339Y-100545790D01*
X86286339Y-100545790D02*
X86238720Y-100593409D01*
X86238720Y-100593409D02*
X86143482Y-100641028D01*
X86143482Y-100641028D02*
X85762530Y-100641028D01*
D10*
X105869819Y-102558458D02*
X105869819Y-101939411D01*
X105869819Y-101939411D02*
X106250771Y-102272744D01*
X106250771Y-102272744D02*
X106250771Y-102129887D01*
X106250771Y-102129887D02*
X106298390Y-102034649D01*
X106298390Y-102034649D02*
X106346009Y-101987030D01*
X106346009Y-101987030D02*
X106441247Y-101939411D01*
X106441247Y-101939411D02*
X106679342Y-101939411D01*
X106679342Y-101939411D02*
X106774580Y-101987030D01*
X106774580Y-101987030D02*
X106822200Y-102034649D01*
X106822200Y-102034649D02*
X106869819Y-102129887D01*
X106869819Y-102129887D02*
X106869819Y-102415601D01*
X106869819Y-102415601D02*
X106822200Y-102510839D01*
X106822200Y-102510839D02*
X106774580Y-102558458D01*
X105869819Y-101653696D02*
X106869819Y-101320363D01*
X106869819Y-101320363D02*
X105869819Y-100987030D01*
X105869819Y-100748934D02*
X105869819Y-100129887D01*
X105869819Y-100129887D02*
X106250771Y-100463220D01*
X106250771Y-100463220D02*
X106250771Y-100320363D01*
X106250771Y-100320363D02*
X106298390Y-100225125D01*
X106298390Y-100225125D02*
X106346009Y-100177506D01*
X106346009Y-100177506D02*
X106441247Y-100129887D01*
X106441247Y-100129887D02*
X106679342Y-100129887D01*
X106679342Y-100129887D02*
X106774580Y-100177506D01*
X106774580Y-100177506D02*
X106822200Y-100225125D01*
X106822200Y-100225125D02*
X106869819Y-100320363D01*
X106869819Y-100320363D02*
X106869819Y-100606077D01*
X106869819Y-100606077D02*
X106822200Y-100701315D01*
X106822200Y-100701315D02*
X106774580Y-100748934D01*
D13*
X55839347Y-115786819D02*
X56506014Y-115786819D01*
X56791728Y-116834438D02*
X55839347Y-116834438D01*
X55839347Y-116834438D02*
X55839347Y-114834438D01*
X55839347Y-114834438D02*
X56791728Y-114834438D01*
X57648871Y-115501104D02*
X57648871Y-116834438D01*
X57648871Y-115691580D02*
X57744109Y-115596342D01*
X57744109Y-115596342D02*
X57934585Y-115501104D01*
X57934585Y-115501104D02*
X58220300Y-115501104D01*
X58220300Y-115501104D02*
X58410776Y-115596342D01*
X58410776Y-115596342D02*
X58506014Y-115786819D01*
X58506014Y-115786819D02*
X58506014Y-116834438D01*
X60220300Y-116739200D02*
X60029824Y-116834438D01*
X60029824Y-116834438D02*
X59648871Y-116834438D01*
X59648871Y-116834438D02*
X59458395Y-116739200D01*
X59458395Y-116739200D02*
X59363157Y-116548723D01*
X59363157Y-116548723D02*
X59363157Y-115786819D01*
X59363157Y-115786819D02*
X59458395Y-115596342D01*
X59458395Y-115596342D02*
X59648871Y-115501104D01*
X59648871Y-115501104D02*
X60029824Y-115501104D01*
X60029824Y-115501104D02*
X60220300Y-115596342D01*
X60220300Y-115596342D02*
X60315538Y-115786819D01*
X60315538Y-115786819D02*
X60315538Y-115977295D01*
X60315538Y-115977295D02*
X59363157Y-116167771D01*
X62029824Y-116834438D02*
X62029824Y-115786819D01*
X62029824Y-115786819D02*
X61934586Y-115596342D01*
X61934586Y-115596342D02*
X61744110Y-115501104D01*
X61744110Y-115501104D02*
X61363157Y-115501104D01*
X61363157Y-115501104D02*
X61172681Y-115596342D01*
X62029824Y-116739200D02*
X61839348Y-116834438D01*
X61839348Y-116834438D02*
X61363157Y-116834438D01*
X61363157Y-116834438D02*
X61172681Y-116739200D01*
X61172681Y-116739200D02*
X61077443Y-116548723D01*
X61077443Y-116548723D02*
X61077443Y-116358247D01*
X61077443Y-116358247D02*
X61172681Y-116167771D01*
X61172681Y-116167771D02*
X61363157Y-116072533D01*
X61363157Y-116072533D02*
X61839348Y-116072533D01*
X61839348Y-116072533D02*
X62029824Y-115977295D01*
X62886967Y-116739200D02*
X63077443Y-116834438D01*
X63077443Y-116834438D02*
X63458395Y-116834438D01*
X63458395Y-116834438D02*
X63648872Y-116739200D01*
X63648872Y-116739200D02*
X63744110Y-116548723D01*
X63744110Y-116548723D02*
X63744110Y-116453485D01*
X63744110Y-116453485D02*
X63648872Y-116263009D01*
X63648872Y-116263009D02*
X63458395Y-116167771D01*
X63458395Y-116167771D02*
X63172681Y-116167771D01*
X63172681Y-116167771D02*
X62982205Y-116072533D01*
X62982205Y-116072533D02*
X62886967Y-115882057D01*
X62886967Y-115882057D02*
X62886967Y-115786819D01*
X62886967Y-115786819D02*
X62982205Y-115596342D01*
X62982205Y-115596342D02*
X63172681Y-115501104D01*
X63172681Y-115501104D02*
X63458395Y-115501104D01*
X63458395Y-115501104D02*
X63648872Y-115596342D01*
X66125063Y-116834438D02*
X66125063Y-114834438D01*
X66125063Y-114834438D02*
X66886968Y-114834438D01*
X66886968Y-114834438D02*
X67077444Y-114929676D01*
X67077444Y-114929676D02*
X67172682Y-115024914D01*
X67172682Y-115024914D02*
X67267920Y-115215390D01*
X67267920Y-115215390D02*
X67267920Y-115501104D01*
X67267920Y-115501104D02*
X67172682Y-115691580D01*
X67172682Y-115691580D02*
X67077444Y-115786819D01*
X67077444Y-115786819D02*
X66886968Y-115882057D01*
X66886968Y-115882057D02*
X66125063Y-115882057D01*
X68125063Y-115786819D02*
X68791730Y-115786819D01*
X69077444Y-116834438D02*
X68125063Y-116834438D01*
X68125063Y-116834438D02*
X68125063Y-114834438D01*
X68125063Y-114834438D02*
X69077444Y-114834438D01*
X69839349Y-115024914D02*
X69934587Y-114929676D01*
X69934587Y-114929676D02*
X70125063Y-114834438D01*
X70125063Y-114834438D02*
X70601254Y-114834438D01*
X70601254Y-114834438D02*
X70791730Y-114929676D01*
X70791730Y-114929676D02*
X70886968Y-115024914D01*
X70886968Y-115024914D02*
X70982206Y-115215390D01*
X70982206Y-115215390D02*
X70982206Y-115405866D01*
X70982206Y-115405866D02*
X70886968Y-115691580D01*
X70886968Y-115691580D02*
X69744111Y-116834438D01*
X69744111Y-116834438D02*
X70982206Y-116834438D01*
X73077445Y-114834438D02*
X73744111Y-116834438D01*
X73744111Y-116834438D02*
X74410778Y-114834438D01*
X76125064Y-116834438D02*
X74982207Y-116834438D01*
X75553635Y-116834438D02*
X75553635Y-114834438D01*
X75553635Y-114834438D02*
X75363159Y-115120152D01*
X75363159Y-115120152D02*
X75172683Y-115310628D01*
X75172683Y-115310628D02*
X74982207Y-115405866D01*
D10*
X101722200Y-102510839D02*
X101769819Y-102367982D01*
X101769819Y-102367982D02*
X101769819Y-102129887D01*
X101769819Y-102129887D02*
X101722200Y-102034649D01*
X101722200Y-102034649D02*
X101674580Y-101987030D01*
X101674580Y-101987030D02*
X101579342Y-101939411D01*
X101579342Y-101939411D02*
X101484104Y-101939411D01*
X101484104Y-101939411D02*
X101388866Y-101987030D01*
X101388866Y-101987030D02*
X101341247Y-102034649D01*
X101341247Y-102034649D02*
X101293628Y-102129887D01*
X101293628Y-102129887D02*
X101246009Y-102320363D01*
X101246009Y-102320363D02*
X101198390Y-102415601D01*
X101198390Y-102415601D02*
X101150771Y-102463220D01*
X101150771Y-102463220D02*
X101055533Y-102510839D01*
X101055533Y-102510839D02*
X100960295Y-102510839D01*
X100960295Y-102510839D02*
X100865057Y-102463220D01*
X100865057Y-102463220D02*
X100817438Y-102415601D01*
X100817438Y-102415601D02*
X100769819Y-102320363D01*
X100769819Y-102320363D02*
X100769819Y-102082268D01*
X100769819Y-102082268D02*
X100817438Y-101939411D01*
X100769819Y-101606077D02*
X101769819Y-101367982D01*
X101769819Y-101367982D02*
X101055533Y-101177506D01*
X101055533Y-101177506D02*
X101769819Y-100987030D01*
X101769819Y-100987030D02*
X100769819Y-100748935D01*
X101674580Y-99796554D02*
X101722200Y-99844173D01*
X101722200Y-99844173D02*
X101769819Y-99987030D01*
X101769819Y-99987030D02*
X101769819Y-100082268D01*
X101769819Y-100082268D02*
X101722200Y-100225125D01*
X101722200Y-100225125D02*
X101626961Y-100320363D01*
X101626961Y-100320363D02*
X101531723Y-100367982D01*
X101531723Y-100367982D02*
X101341247Y-100415601D01*
X101341247Y-100415601D02*
X101198390Y-100415601D01*
X101198390Y-100415601D02*
X101007914Y-100367982D01*
X101007914Y-100367982D02*
X100912676Y-100320363D01*
X100912676Y-100320363D02*
X100817438Y-100225125D01*
X100817438Y-100225125D02*
X100769819Y-100082268D01*
X100769819Y-100082268D02*
X100769819Y-99987030D01*
X100769819Y-99987030D02*
X100817438Y-99844173D01*
X100817438Y-99844173D02*
X100865057Y-99796554D01*
X101769819Y-98891792D02*
X101769819Y-99367982D01*
X101769819Y-99367982D02*
X100769819Y-99367982D01*
X101769819Y-98558458D02*
X100769819Y-98558458D01*
X101769819Y-97987030D02*
X101198390Y-98415601D01*
X100769819Y-97987030D02*
X101341247Y-98558458D01*
X104272200Y-102535839D02*
X104319819Y-102392982D01*
X104319819Y-102392982D02*
X104319819Y-102154887D01*
X104319819Y-102154887D02*
X104272200Y-102059649D01*
X104272200Y-102059649D02*
X104224580Y-102012030D01*
X104224580Y-102012030D02*
X104129342Y-101964411D01*
X104129342Y-101964411D02*
X104034104Y-101964411D01*
X104034104Y-101964411D02*
X103938866Y-102012030D01*
X103938866Y-102012030D02*
X103891247Y-102059649D01*
X103891247Y-102059649D02*
X103843628Y-102154887D01*
X103843628Y-102154887D02*
X103796009Y-102345363D01*
X103796009Y-102345363D02*
X103748390Y-102440601D01*
X103748390Y-102440601D02*
X103700771Y-102488220D01*
X103700771Y-102488220D02*
X103605533Y-102535839D01*
X103605533Y-102535839D02*
X103510295Y-102535839D01*
X103510295Y-102535839D02*
X103415057Y-102488220D01*
X103415057Y-102488220D02*
X103367438Y-102440601D01*
X103367438Y-102440601D02*
X103319819Y-102345363D01*
X103319819Y-102345363D02*
X103319819Y-102107268D01*
X103319819Y-102107268D02*
X103367438Y-101964411D01*
X103319819Y-101631077D02*
X104319819Y-101392982D01*
X104319819Y-101392982D02*
X103605533Y-101202506D01*
X103605533Y-101202506D02*
X104319819Y-101012030D01*
X104319819Y-101012030D02*
X103319819Y-100773935D01*
X104319819Y-100392982D02*
X103319819Y-100392982D01*
X103319819Y-100392982D02*
X103319819Y-100154887D01*
X103319819Y-100154887D02*
X103367438Y-100012030D01*
X103367438Y-100012030D02*
X103462676Y-99916792D01*
X103462676Y-99916792D02*
X103557914Y-99869173D01*
X103557914Y-99869173D02*
X103748390Y-99821554D01*
X103748390Y-99821554D02*
X103891247Y-99821554D01*
X103891247Y-99821554D02*
X104081723Y-99869173D01*
X104081723Y-99869173D02*
X104176961Y-99916792D01*
X104176961Y-99916792D02*
X104272200Y-100012030D01*
X104272200Y-100012030D02*
X104319819Y-100154887D01*
X104319819Y-100154887D02*
X104319819Y-100392982D01*
X104319819Y-99392982D02*
X103319819Y-99392982D01*
X103319819Y-98726316D02*
X103319819Y-98535840D01*
X103319819Y-98535840D02*
X103367438Y-98440602D01*
X103367438Y-98440602D02*
X103462676Y-98345364D01*
X103462676Y-98345364D02*
X103653152Y-98297745D01*
X103653152Y-98297745D02*
X103986485Y-98297745D01*
X103986485Y-98297745D02*
X104176961Y-98345364D01*
X104176961Y-98345364D02*
X104272200Y-98440602D01*
X104272200Y-98440602D02*
X104319819Y-98535840D01*
X104319819Y-98535840D02*
X104319819Y-98726316D01*
X104319819Y-98726316D02*
X104272200Y-98821554D01*
X104272200Y-98821554D02*
X104176961Y-98916792D01*
X104176961Y-98916792D02*
X103986485Y-98964411D01*
X103986485Y-98964411D02*
X103653152Y-98964411D01*
X103653152Y-98964411D02*
X103462676Y-98916792D01*
X103462676Y-98916792D02*
X103367438Y-98821554D01*
X103367438Y-98821554D02*
X103319819Y-98726316D01*
D12*
X98808082Y-118379400D02*
X99022368Y-118450828D01*
X99022368Y-118450828D02*
X99379510Y-118450828D01*
X99379510Y-118450828D02*
X99522368Y-118379400D01*
X99522368Y-118379400D02*
X99593796Y-118307971D01*
X99593796Y-118307971D02*
X99665225Y-118165114D01*
X99665225Y-118165114D02*
X99665225Y-118022257D01*
X99665225Y-118022257D02*
X99593796Y-117879400D01*
X99593796Y-117879400D02*
X99522368Y-117807971D01*
X99522368Y-117807971D02*
X99379510Y-117736542D01*
X99379510Y-117736542D02*
X99093796Y-117665114D01*
X99093796Y-117665114D02*
X98950939Y-117593685D01*
X98950939Y-117593685D02*
X98879510Y-117522257D01*
X98879510Y-117522257D02*
X98808082Y-117379400D01*
X98808082Y-117379400D02*
X98808082Y-117236542D01*
X98808082Y-117236542D02*
X98879510Y-117093685D01*
X98879510Y-117093685D02*
X98950939Y-117022257D01*
X98950939Y-117022257D02*
X99093796Y-116950828D01*
X99093796Y-116950828D02*
X99450939Y-116950828D01*
X99450939Y-116950828D02*
X99665225Y-117022257D01*
X100093796Y-116950828D02*
X100950939Y-116950828D01*
X100522367Y-118450828D02*
X100522367Y-116950828D01*
X102165224Y-118450828D02*
X101450938Y-118450828D01*
X101450938Y-118450828D02*
X101450938Y-116950828D01*
X102665224Y-118450828D02*
X102665224Y-116950828D01*
X103379510Y-118450828D02*
X103379510Y-116950828D01*
X103379510Y-116950828D02*
X104236653Y-118450828D01*
X104236653Y-118450828D02*
X104236653Y-116950828D01*
X104950939Y-118450828D02*
X104950939Y-116950828D01*
X105808082Y-118450828D02*
X105165225Y-117593685D01*
X105808082Y-116950828D02*
X104950939Y-117807971D01*
D10*
X95717438Y-101939411D02*
X95669819Y-102034649D01*
X95669819Y-102034649D02*
X95669819Y-102177506D01*
X95669819Y-102177506D02*
X95717438Y-102320363D01*
X95717438Y-102320363D02*
X95812676Y-102415601D01*
X95812676Y-102415601D02*
X95907914Y-102463220D01*
X95907914Y-102463220D02*
X96098390Y-102510839D01*
X96098390Y-102510839D02*
X96241247Y-102510839D01*
X96241247Y-102510839D02*
X96431723Y-102463220D01*
X96431723Y-102463220D02*
X96526961Y-102415601D01*
X96526961Y-102415601D02*
X96622200Y-102320363D01*
X96622200Y-102320363D02*
X96669819Y-102177506D01*
X96669819Y-102177506D02*
X96669819Y-102082268D01*
X96669819Y-102082268D02*
X96622200Y-101939411D01*
X96622200Y-101939411D02*
X96574580Y-101891792D01*
X96574580Y-101891792D02*
X96241247Y-101891792D01*
X96241247Y-101891792D02*
X96241247Y-102082268D01*
X96669819Y-101463220D02*
X95669819Y-101463220D01*
X95669819Y-101463220D02*
X96669819Y-100891792D01*
X96669819Y-100891792D02*
X95669819Y-100891792D01*
X96669819Y-100415601D02*
X95669819Y-100415601D01*
X95669819Y-100415601D02*
X95669819Y-100177506D01*
X95669819Y-100177506D02*
X95717438Y-100034649D01*
X95717438Y-100034649D02*
X95812676Y-99939411D01*
X95812676Y-99939411D02*
X95907914Y-99891792D01*
X95907914Y-99891792D02*
X96098390Y-99844173D01*
X96098390Y-99844173D02*
X96241247Y-99844173D01*
X96241247Y-99844173D02*
X96431723Y-99891792D01*
X96431723Y-99891792D02*
X96526961Y-99939411D01*
X96526961Y-99939411D02*
X96622200Y-100034649D01*
X96622200Y-100034649D02*
X96669819Y-100177506D01*
X96669819Y-100177506D02*
X96669819Y-100415601D01*
D12*
X64054510Y-97965114D02*
X64268796Y-98036542D01*
X64268796Y-98036542D02*
X64340225Y-98107971D01*
X64340225Y-98107971D02*
X64411653Y-98250828D01*
X64411653Y-98250828D02*
X64411653Y-98465114D01*
X64411653Y-98465114D02*
X64340225Y-98607971D01*
X64340225Y-98607971D02*
X64268796Y-98679400D01*
X64268796Y-98679400D02*
X64125939Y-98750828D01*
X64125939Y-98750828D02*
X63554510Y-98750828D01*
X63554510Y-98750828D02*
X63554510Y-97250828D01*
X63554510Y-97250828D02*
X64054510Y-97250828D01*
X64054510Y-97250828D02*
X64197368Y-97322257D01*
X64197368Y-97322257D02*
X64268796Y-97393685D01*
X64268796Y-97393685D02*
X64340225Y-97536542D01*
X64340225Y-97536542D02*
X64340225Y-97679400D01*
X64340225Y-97679400D02*
X64268796Y-97822257D01*
X64268796Y-97822257D02*
X64197368Y-97893685D01*
X64197368Y-97893685D02*
X64054510Y-97965114D01*
X64054510Y-97965114D02*
X63554510Y-97965114D01*
X65340225Y-97250828D02*
X65625939Y-97250828D01*
X65625939Y-97250828D02*
X65768796Y-97322257D01*
X65768796Y-97322257D02*
X65911653Y-97465114D01*
X65911653Y-97465114D02*
X65983082Y-97750828D01*
X65983082Y-97750828D02*
X65983082Y-98250828D01*
X65983082Y-98250828D02*
X65911653Y-98536542D01*
X65911653Y-98536542D02*
X65768796Y-98679400D01*
X65768796Y-98679400D02*
X65625939Y-98750828D01*
X65625939Y-98750828D02*
X65340225Y-98750828D01*
X65340225Y-98750828D02*
X65197368Y-98679400D01*
X65197368Y-98679400D02*
X65054510Y-98536542D01*
X65054510Y-98536542D02*
X64983082Y-98250828D01*
X64983082Y-98250828D02*
X64983082Y-97750828D01*
X64983082Y-97750828D02*
X65054510Y-97465114D01*
X65054510Y-97465114D02*
X65197368Y-97322257D01*
X65197368Y-97322257D02*
X65340225Y-97250828D01*
X66911654Y-97250828D02*
X67197368Y-97250828D01*
X67197368Y-97250828D02*
X67340225Y-97322257D01*
X67340225Y-97322257D02*
X67483082Y-97465114D01*
X67483082Y-97465114D02*
X67554511Y-97750828D01*
X67554511Y-97750828D02*
X67554511Y-98250828D01*
X67554511Y-98250828D02*
X67483082Y-98536542D01*
X67483082Y-98536542D02*
X67340225Y-98679400D01*
X67340225Y-98679400D02*
X67197368Y-98750828D01*
X67197368Y-98750828D02*
X66911654Y-98750828D01*
X66911654Y-98750828D02*
X66768797Y-98679400D01*
X66768797Y-98679400D02*
X66625939Y-98536542D01*
X66625939Y-98536542D02*
X66554511Y-98250828D01*
X66554511Y-98250828D02*
X66554511Y-97750828D01*
X66554511Y-97750828D02*
X66625939Y-97465114D01*
X66625939Y-97465114D02*
X66768797Y-97322257D01*
X66768797Y-97322257D02*
X66911654Y-97250828D01*
X67983083Y-97250828D02*
X68840226Y-97250828D01*
X68411654Y-98750828D02*
X68411654Y-97250828D01*
D10*
X85986667Y-57322200D02*
X86129524Y-57369819D01*
X86129524Y-57369819D02*
X86367619Y-57369819D01*
X86367619Y-57369819D02*
X86462857Y-57322200D01*
X86462857Y-57322200D02*
X86510476Y-57274580D01*
X86510476Y-57274580D02*
X86558095Y-57179342D01*
X86558095Y-57179342D02*
X86558095Y-57084104D01*
X86558095Y-57084104D02*
X86510476Y-56988866D01*
X86510476Y-56988866D02*
X86462857Y-56941247D01*
X86462857Y-56941247D02*
X86367619Y-56893628D01*
X86367619Y-56893628D02*
X86177143Y-56846009D01*
X86177143Y-56846009D02*
X86081905Y-56798390D01*
X86081905Y-56798390D02*
X86034286Y-56750771D01*
X86034286Y-56750771D02*
X85986667Y-56655533D01*
X85986667Y-56655533D02*
X85986667Y-56560295D01*
X85986667Y-56560295D02*
X86034286Y-56465057D01*
X86034286Y-56465057D02*
X86081905Y-56417438D01*
X86081905Y-56417438D02*
X86177143Y-56369819D01*
X86177143Y-56369819D02*
X86415238Y-56369819D01*
X86415238Y-56369819D02*
X86558095Y-56417438D01*
X86891429Y-56369819D02*
X87129524Y-57369819D01*
X87129524Y-57369819D02*
X87320000Y-56655533D01*
X87320000Y-56655533D02*
X87510476Y-57369819D01*
X87510476Y-57369819D02*
X87748572Y-56369819D01*
X88558095Y-56369819D02*
X88367619Y-56369819D01*
X88367619Y-56369819D02*
X88272381Y-56417438D01*
X88272381Y-56417438D02*
X88224762Y-56465057D01*
X88224762Y-56465057D02*
X88129524Y-56607914D01*
X88129524Y-56607914D02*
X88081905Y-56798390D01*
X88081905Y-56798390D02*
X88081905Y-57179342D01*
X88081905Y-57179342D02*
X88129524Y-57274580D01*
X88129524Y-57274580D02*
X88177143Y-57322200D01*
X88177143Y-57322200D02*
X88272381Y-57369819D01*
X88272381Y-57369819D02*
X88462857Y-57369819D01*
X88462857Y-57369819D02*
X88558095Y-57322200D01*
X88558095Y-57322200D02*
X88605714Y-57274580D01*
X88605714Y-57274580D02*
X88653333Y-57179342D01*
X88653333Y-57179342D02*
X88653333Y-56941247D01*
X88653333Y-56941247D02*
X88605714Y-56846009D01*
X88605714Y-56846009D02*
X88558095Y-56798390D01*
X88558095Y-56798390D02*
X88462857Y-56750771D01*
X88462857Y-56750771D02*
X88272381Y-56750771D01*
X88272381Y-56750771D02*
X88177143Y-56798390D01*
X88177143Y-56798390D02*
X88129524Y-56846009D01*
X88129524Y-56846009D02*
X88081905Y-56941247D01*
X112110476Y-68672200D02*
X112253333Y-68719819D01*
X112253333Y-68719819D02*
X112491428Y-68719819D01*
X112491428Y-68719819D02*
X112586666Y-68672200D01*
X112586666Y-68672200D02*
X112634285Y-68624580D01*
X112634285Y-68624580D02*
X112681904Y-68529342D01*
X112681904Y-68529342D02*
X112681904Y-68434104D01*
X112681904Y-68434104D02*
X112634285Y-68338866D01*
X112634285Y-68338866D02*
X112586666Y-68291247D01*
X112586666Y-68291247D02*
X112491428Y-68243628D01*
X112491428Y-68243628D02*
X112300952Y-68196009D01*
X112300952Y-68196009D02*
X112205714Y-68148390D01*
X112205714Y-68148390D02*
X112158095Y-68100771D01*
X112158095Y-68100771D02*
X112110476Y-68005533D01*
X112110476Y-68005533D02*
X112110476Y-67910295D01*
X112110476Y-67910295D02*
X112158095Y-67815057D01*
X112158095Y-67815057D02*
X112205714Y-67767438D01*
X112205714Y-67767438D02*
X112300952Y-67719819D01*
X112300952Y-67719819D02*
X112539047Y-67719819D01*
X112539047Y-67719819D02*
X112681904Y-67767438D01*
X113015238Y-67719819D02*
X113253333Y-68719819D01*
X113253333Y-68719819D02*
X113443809Y-68005533D01*
X113443809Y-68005533D02*
X113634285Y-68719819D01*
X113634285Y-68719819D02*
X113872381Y-67719819D01*
X114777142Y-68719819D02*
X114205714Y-68719819D01*
X114491428Y-68719819D02*
X114491428Y-67719819D01*
X114491428Y-67719819D02*
X114396190Y-67862676D01*
X114396190Y-67862676D02*
X114300952Y-67957914D01*
X114300952Y-67957914D02*
X114205714Y-68005533D01*
X115158095Y-67815057D02*
X115205714Y-67767438D01*
X115205714Y-67767438D02*
X115300952Y-67719819D01*
X115300952Y-67719819D02*
X115539047Y-67719819D01*
X115539047Y-67719819D02*
X115634285Y-67767438D01*
X115634285Y-67767438D02*
X115681904Y-67815057D01*
X115681904Y-67815057D02*
X115729523Y-67910295D01*
X115729523Y-67910295D02*
X115729523Y-68005533D01*
X115729523Y-68005533D02*
X115681904Y-68148390D01*
X115681904Y-68148390D02*
X115110476Y-68719819D01*
X115110476Y-68719819D02*
X115729523Y-68719819D01*
X129610476Y-121772200D02*
X129753333Y-121819819D01*
X129753333Y-121819819D02*
X129991428Y-121819819D01*
X129991428Y-121819819D02*
X130086666Y-121772200D01*
X130086666Y-121772200D02*
X130134285Y-121724580D01*
X130134285Y-121724580D02*
X130181904Y-121629342D01*
X130181904Y-121629342D02*
X130181904Y-121534104D01*
X130181904Y-121534104D02*
X130134285Y-121438866D01*
X130134285Y-121438866D02*
X130086666Y-121391247D01*
X130086666Y-121391247D02*
X129991428Y-121343628D01*
X129991428Y-121343628D02*
X129800952Y-121296009D01*
X129800952Y-121296009D02*
X129705714Y-121248390D01*
X129705714Y-121248390D02*
X129658095Y-121200771D01*
X129658095Y-121200771D02*
X129610476Y-121105533D01*
X129610476Y-121105533D02*
X129610476Y-121010295D01*
X129610476Y-121010295D02*
X129658095Y-120915057D01*
X129658095Y-120915057D02*
X129705714Y-120867438D01*
X129705714Y-120867438D02*
X129800952Y-120819819D01*
X129800952Y-120819819D02*
X130039047Y-120819819D01*
X130039047Y-120819819D02*
X130181904Y-120867438D01*
X130515238Y-120819819D02*
X130753333Y-121819819D01*
X130753333Y-121819819D02*
X130943809Y-121105533D01*
X130943809Y-121105533D02*
X131134285Y-121819819D01*
X131134285Y-121819819D02*
X131372381Y-120819819D01*
X132277142Y-121819819D02*
X131705714Y-121819819D01*
X131991428Y-121819819D02*
X131991428Y-120819819D01*
X131991428Y-120819819D02*
X131896190Y-120962676D01*
X131896190Y-120962676D02*
X131800952Y-121057914D01*
X131800952Y-121057914D02*
X131705714Y-121105533D01*
X132848571Y-121248390D02*
X132753333Y-121200771D01*
X132753333Y-121200771D02*
X132705714Y-121153152D01*
X132705714Y-121153152D02*
X132658095Y-121057914D01*
X132658095Y-121057914D02*
X132658095Y-121010295D01*
X132658095Y-121010295D02*
X132705714Y-120915057D01*
X132705714Y-120915057D02*
X132753333Y-120867438D01*
X132753333Y-120867438D02*
X132848571Y-120819819D01*
X132848571Y-120819819D02*
X133039047Y-120819819D01*
X133039047Y-120819819D02*
X133134285Y-120867438D01*
X133134285Y-120867438D02*
X133181904Y-120915057D01*
X133181904Y-120915057D02*
X133229523Y-121010295D01*
X133229523Y-121010295D02*
X133229523Y-121057914D01*
X133229523Y-121057914D02*
X133181904Y-121153152D01*
X133181904Y-121153152D02*
X133134285Y-121200771D01*
X133134285Y-121200771D02*
X133039047Y-121248390D01*
X133039047Y-121248390D02*
X132848571Y-121248390D01*
X132848571Y-121248390D02*
X132753333Y-121296009D01*
X132753333Y-121296009D02*
X132705714Y-121343628D01*
X132705714Y-121343628D02*
X132658095Y-121438866D01*
X132658095Y-121438866D02*
X132658095Y-121629342D01*
X132658095Y-121629342D02*
X132705714Y-121724580D01*
X132705714Y-121724580D02*
X132753333Y-121772200D01*
X132753333Y-121772200D02*
X132848571Y-121819819D01*
X132848571Y-121819819D02*
X133039047Y-121819819D01*
X133039047Y-121819819D02*
X133134285Y-121772200D01*
X133134285Y-121772200D02*
X133181904Y-121724580D01*
X133181904Y-121724580D02*
X133229523Y-121629342D01*
X133229523Y-121629342D02*
X133229523Y-121438866D01*
X133229523Y-121438866D02*
X133181904Y-121343628D01*
X133181904Y-121343628D02*
X133134285Y-121296009D01*
X133134285Y-121296009D02*
X133039047Y-121248390D01*
X147050476Y-57262200D02*
X147193333Y-57309819D01*
X147193333Y-57309819D02*
X147431428Y-57309819D01*
X147431428Y-57309819D02*
X147526666Y-57262200D01*
X147526666Y-57262200D02*
X147574285Y-57214580D01*
X147574285Y-57214580D02*
X147621904Y-57119342D01*
X147621904Y-57119342D02*
X147621904Y-57024104D01*
X147621904Y-57024104D02*
X147574285Y-56928866D01*
X147574285Y-56928866D02*
X147526666Y-56881247D01*
X147526666Y-56881247D02*
X147431428Y-56833628D01*
X147431428Y-56833628D02*
X147240952Y-56786009D01*
X147240952Y-56786009D02*
X147145714Y-56738390D01*
X147145714Y-56738390D02*
X147098095Y-56690771D01*
X147098095Y-56690771D02*
X147050476Y-56595533D01*
X147050476Y-56595533D02*
X147050476Y-56500295D01*
X147050476Y-56500295D02*
X147098095Y-56405057D01*
X147098095Y-56405057D02*
X147145714Y-56357438D01*
X147145714Y-56357438D02*
X147240952Y-56309819D01*
X147240952Y-56309819D02*
X147479047Y-56309819D01*
X147479047Y-56309819D02*
X147621904Y-56357438D01*
X147955238Y-56309819D02*
X148193333Y-57309819D01*
X148193333Y-57309819D02*
X148383809Y-56595533D01*
X148383809Y-56595533D02*
X148574285Y-57309819D01*
X148574285Y-57309819D02*
X148812381Y-56309819D01*
X149717142Y-57309819D02*
X149145714Y-57309819D01*
X149431428Y-57309819D02*
X149431428Y-56309819D01*
X149431428Y-56309819D02*
X149336190Y-56452676D01*
X149336190Y-56452676D02*
X149240952Y-56547914D01*
X149240952Y-56547914D02*
X149145714Y-56595533D01*
X150574285Y-56309819D02*
X150383809Y-56309819D01*
X150383809Y-56309819D02*
X150288571Y-56357438D01*
X150288571Y-56357438D02*
X150240952Y-56405057D01*
X150240952Y-56405057D02*
X150145714Y-56547914D01*
X150145714Y-56547914D02*
X150098095Y-56738390D01*
X150098095Y-56738390D02*
X150098095Y-57119342D01*
X150098095Y-57119342D02*
X150145714Y-57214580D01*
X150145714Y-57214580D02*
X150193333Y-57262200D01*
X150193333Y-57262200D02*
X150288571Y-57309819D01*
X150288571Y-57309819D02*
X150479047Y-57309819D01*
X150479047Y-57309819D02*
X150574285Y-57262200D01*
X150574285Y-57262200D02*
X150621904Y-57214580D01*
X150621904Y-57214580D02*
X150669523Y-57119342D01*
X150669523Y-57119342D02*
X150669523Y-56881247D01*
X150669523Y-56881247D02*
X150621904Y-56786009D01*
X150621904Y-56786009D02*
X150574285Y-56738390D01*
X150574285Y-56738390D02*
X150479047Y-56690771D01*
X150479047Y-56690771D02*
X150288571Y-56690771D01*
X150288571Y-56690771D02*
X150193333Y-56738390D01*
X150193333Y-56738390D02*
X150145714Y-56786009D01*
X150145714Y-56786009D02*
X150098095Y-56881247D01*
X174086667Y-45732200D02*
X174229524Y-45779819D01*
X174229524Y-45779819D02*
X174467619Y-45779819D01*
X174467619Y-45779819D02*
X174562857Y-45732200D01*
X174562857Y-45732200D02*
X174610476Y-45684580D01*
X174610476Y-45684580D02*
X174658095Y-45589342D01*
X174658095Y-45589342D02*
X174658095Y-45494104D01*
X174658095Y-45494104D02*
X174610476Y-45398866D01*
X174610476Y-45398866D02*
X174562857Y-45351247D01*
X174562857Y-45351247D02*
X174467619Y-45303628D01*
X174467619Y-45303628D02*
X174277143Y-45256009D01*
X174277143Y-45256009D02*
X174181905Y-45208390D01*
X174181905Y-45208390D02*
X174134286Y-45160771D01*
X174134286Y-45160771D02*
X174086667Y-45065533D01*
X174086667Y-45065533D02*
X174086667Y-44970295D01*
X174086667Y-44970295D02*
X174134286Y-44875057D01*
X174134286Y-44875057D02*
X174181905Y-44827438D01*
X174181905Y-44827438D02*
X174277143Y-44779819D01*
X174277143Y-44779819D02*
X174515238Y-44779819D01*
X174515238Y-44779819D02*
X174658095Y-44827438D01*
X174991429Y-44779819D02*
X175229524Y-45779819D01*
X175229524Y-45779819D02*
X175420000Y-45065533D01*
X175420000Y-45065533D02*
X175610476Y-45779819D01*
X175610476Y-45779819D02*
X175848572Y-44779819D01*
X176134286Y-44779819D02*
X176753333Y-44779819D01*
X176753333Y-44779819D02*
X176420000Y-45160771D01*
X176420000Y-45160771D02*
X176562857Y-45160771D01*
X176562857Y-45160771D02*
X176658095Y-45208390D01*
X176658095Y-45208390D02*
X176705714Y-45256009D01*
X176705714Y-45256009D02*
X176753333Y-45351247D01*
X176753333Y-45351247D02*
X176753333Y-45589342D01*
X176753333Y-45589342D02*
X176705714Y-45684580D01*
X176705714Y-45684580D02*
X176658095Y-45732200D01*
X176658095Y-45732200D02*
X176562857Y-45779819D01*
X176562857Y-45779819D02*
X176277143Y-45779819D01*
X176277143Y-45779819D02*
X176181905Y-45732200D01*
X176181905Y-45732200D02*
X176134286Y-45684580D01*
X203056667Y-45612200D02*
X203199524Y-45659819D01*
X203199524Y-45659819D02*
X203437619Y-45659819D01*
X203437619Y-45659819D02*
X203532857Y-45612200D01*
X203532857Y-45612200D02*
X203580476Y-45564580D01*
X203580476Y-45564580D02*
X203628095Y-45469342D01*
X203628095Y-45469342D02*
X203628095Y-45374104D01*
X203628095Y-45374104D02*
X203580476Y-45278866D01*
X203580476Y-45278866D02*
X203532857Y-45231247D01*
X203532857Y-45231247D02*
X203437619Y-45183628D01*
X203437619Y-45183628D02*
X203247143Y-45136009D01*
X203247143Y-45136009D02*
X203151905Y-45088390D01*
X203151905Y-45088390D02*
X203104286Y-45040771D01*
X203104286Y-45040771D02*
X203056667Y-44945533D01*
X203056667Y-44945533D02*
X203056667Y-44850295D01*
X203056667Y-44850295D02*
X203104286Y-44755057D01*
X203104286Y-44755057D02*
X203151905Y-44707438D01*
X203151905Y-44707438D02*
X203247143Y-44659819D01*
X203247143Y-44659819D02*
X203485238Y-44659819D01*
X203485238Y-44659819D02*
X203628095Y-44707438D01*
X203961429Y-44659819D02*
X204199524Y-45659819D01*
X204199524Y-45659819D02*
X204390000Y-44945533D01*
X204390000Y-44945533D02*
X204580476Y-45659819D01*
X204580476Y-45659819D02*
X204818572Y-44659819D01*
X205104286Y-44659819D02*
X205770952Y-44659819D01*
X205770952Y-44659819D02*
X205342381Y-45659819D01*
X231550476Y-45852200D02*
X231693333Y-45899819D01*
X231693333Y-45899819D02*
X231931428Y-45899819D01*
X231931428Y-45899819D02*
X232026666Y-45852200D01*
X232026666Y-45852200D02*
X232074285Y-45804580D01*
X232074285Y-45804580D02*
X232121904Y-45709342D01*
X232121904Y-45709342D02*
X232121904Y-45614104D01*
X232121904Y-45614104D02*
X232074285Y-45518866D01*
X232074285Y-45518866D02*
X232026666Y-45471247D01*
X232026666Y-45471247D02*
X231931428Y-45423628D01*
X231931428Y-45423628D02*
X231740952Y-45376009D01*
X231740952Y-45376009D02*
X231645714Y-45328390D01*
X231645714Y-45328390D02*
X231598095Y-45280771D01*
X231598095Y-45280771D02*
X231550476Y-45185533D01*
X231550476Y-45185533D02*
X231550476Y-45090295D01*
X231550476Y-45090295D02*
X231598095Y-44995057D01*
X231598095Y-44995057D02*
X231645714Y-44947438D01*
X231645714Y-44947438D02*
X231740952Y-44899819D01*
X231740952Y-44899819D02*
X231979047Y-44899819D01*
X231979047Y-44899819D02*
X232121904Y-44947438D01*
X232455238Y-44899819D02*
X232693333Y-45899819D01*
X232693333Y-45899819D02*
X232883809Y-45185533D01*
X232883809Y-45185533D02*
X233074285Y-45899819D01*
X233074285Y-45899819D02*
X233312381Y-44899819D01*
X234217142Y-45899819D02*
X233645714Y-45899819D01*
X233931428Y-45899819D02*
X233931428Y-44899819D01*
X233931428Y-44899819D02*
X233836190Y-45042676D01*
X233836190Y-45042676D02*
X233740952Y-45137914D01*
X233740952Y-45137914D02*
X233645714Y-45185533D01*
X234550476Y-44899819D02*
X235169523Y-44899819D01*
X235169523Y-44899819D02*
X234836190Y-45280771D01*
X234836190Y-45280771D02*
X234979047Y-45280771D01*
X234979047Y-45280771D02*
X235074285Y-45328390D01*
X235074285Y-45328390D02*
X235121904Y-45376009D01*
X235121904Y-45376009D02*
X235169523Y-45471247D01*
X235169523Y-45471247D02*
X235169523Y-45709342D01*
X235169523Y-45709342D02*
X235121904Y-45804580D01*
X235121904Y-45804580D02*
X235074285Y-45852200D01*
X235074285Y-45852200D02*
X234979047Y-45899819D01*
X234979047Y-45899819D02*
X234693333Y-45899819D01*
X234693333Y-45899819D02*
X234598095Y-45852200D01*
X234598095Y-45852200D02*
X234550476Y-45804580D01*
X141440476Y-88302200D02*
X141583333Y-88349819D01*
X141583333Y-88349819D02*
X141821428Y-88349819D01*
X141821428Y-88349819D02*
X141916666Y-88302200D01*
X141916666Y-88302200D02*
X141964285Y-88254580D01*
X141964285Y-88254580D02*
X142011904Y-88159342D01*
X142011904Y-88159342D02*
X142011904Y-88064104D01*
X142011904Y-88064104D02*
X141964285Y-87968866D01*
X141964285Y-87968866D02*
X141916666Y-87921247D01*
X141916666Y-87921247D02*
X141821428Y-87873628D01*
X141821428Y-87873628D02*
X141630952Y-87826009D01*
X141630952Y-87826009D02*
X141535714Y-87778390D01*
X141535714Y-87778390D02*
X141488095Y-87730771D01*
X141488095Y-87730771D02*
X141440476Y-87635533D01*
X141440476Y-87635533D02*
X141440476Y-87540295D01*
X141440476Y-87540295D02*
X141488095Y-87445057D01*
X141488095Y-87445057D02*
X141535714Y-87397438D01*
X141535714Y-87397438D02*
X141630952Y-87349819D01*
X141630952Y-87349819D02*
X141869047Y-87349819D01*
X141869047Y-87349819D02*
X142011904Y-87397438D01*
X142345238Y-87349819D02*
X142583333Y-88349819D01*
X142583333Y-88349819D02*
X142773809Y-87635533D01*
X142773809Y-87635533D02*
X142964285Y-88349819D01*
X142964285Y-88349819D02*
X143202381Y-87349819D01*
X144107142Y-88349819D02*
X143535714Y-88349819D01*
X143821428Y-88349819D02*
X143821428Y-87349819D01*
X143821428Y-87349819D02*
X143726190Y-87492676D01*
X143726190Y-87492676D02*
X143630952Y-87587914D01*
X143630952Y-87587914D02*
X143535714Y-87635533D01*
X144440476Y-87349819D02*
X145107142Y-87349819D01*
X145107142Y-87349819D02*
X144678571Y-88349819D01*
X168526667Y-77192200D02*
X168669524Y-77239819D01*
X168669524Y-77239819D02*
X168907619Y-77239819D01*
X168907619Y-77239819D02*
X169002857Y-77192200D01*
X169002857Y-77192200D02*
X169050476Y-77144580D01*
X169050476Y-77144580D02*
X169098095Y-77049342D01*
X169098095Y-77049342D02*
X169098095Y-76954104D01*
X169098095Y-76954104D02*
X169050476Y-76858866D01*
X169050476Y-76858866D02*
X169002857Y-76811247D01*
X169002857Y-76811247D02*
X168907619Y-76763628D01*
X168907619Y-76763628D02*
X168717143Y-76716009D01*
X168717143Y-76716009D02*
X168621905Y-76668390D01*
X168621905Y-76668390D02*
X168574286Y-76620771D01*
X168574286Y-76620771D02*
X168526667Y-76525533D01*
X168526667Y-76525533D02*
X168526667Y-76430295D01*
X168526667Y-76430295D02*
X168574286Y-76335057D01*
X168574286Y-76335057D02*
X168621905Y-76287438D01*
X168621905Y-76287438D02*
X168717143Y-76239819D01*
X168717143Y-76239819D02*
X168955238Y-76239819D01*
X168955238Y-76239819D02*
X169098095Y-76287438D01*
X169431429Y-76239819D02*
X169669524Y-77239819D01*
X169669524Y-77239819D02*
X169860000Y-76525533D01*
X169860000Y-76525533D02*
X170050476Y-77239819D01*
X170050476Y-77239819D02*
X170288572Y-76239819D01*
X171098095Y-76573152D02*
X171098095Y-77239819D01*
X170860000Y-76192200D02*
X170621905Y-76906485D01*
X170621905Y-76906485D02*
X171240952Y-76906485D01*
X197376667Y-77192200D02*
X197519524Y-77239819D01*
X197519524Y-77239819D02*
X197757619Y-77239819D01*
X197757619Y-77239819D02*
X197852857Y-77192200D01*
X197852857Y-77192200D02*
X197900476Y-77144580D01*
X197900476Y-77144580D02*
X197948095Y-77049342D01*
X197948095Y-77049342D02*
X197948095Y-76954104D01*
X197948095Y-76954104D02*
X197900476Y-76858866D01*
X197900476Y-76858866D02*
X197852857Y-76811247D01*
X197852857Y-76811247D02*
X197757619Y-76763628D01*
X197757619Y-76763628D02*
X197567143Y-76716009D01*
X197567143Y-76716009D02*
X197471905Y-76668390D01*
X197471905Y-76668390D02*
X197424286Y-76620771D01*
X197424286Y-76620771D02*
X197376667Y-76525533D01*
X197376667Y-76525533D02*
X197376667Y-76430295D01*
X197376667Y-76430295D02*
X197424286Y-76335057D01*
X197424286Y-76335057D02*
X197471905Y-76287438D01*
X197471905Y-76287438D02*
X197567143Y-76239819D01*
X197567143Y-76239819D02*
X197805238Y-76239819D01*
X197805238Y-76239819D02*
X197948095Y-76287438D01*
X198281429Y-76239819D02*
X198519524Y-77239819D01*
X198519524Y-77239819D02*
X198710000Y-76525533D01*
X198710000Y-76525533D02*
X198900476Y-77239819D01*
X198900476Y-77239819D02*
X199138572Y-76239819D01*
X199662381Y-76668390D02*
X199567143Y-76620771D01*
X199567143Y-76620771D02*
X199519524Y-76573152D01*
X199519524Y-76573152D02*
X199471905Y-76477914D01*
X199471905Y-76477914D02*
X199471905Y-76430295D01*
X199471905Y-76430295D02*
X199519524Y-76335057D01*
X199519524Y-76335057D02*
X199567143Y-76287438D01*
X199567143Y-76287438D02*
X199662381Y-76239819D01*
X199662381Y-76239819D02*
X199852857Y-76239819D01*
X199852857Y-76239819D02*
X199948095Y-76287438D01*
X199948095Y-76287438D02*
X199995714Y-76335057D01*
X199995714Y-76335057D02*
X200043333Y-76430295D01*
X200043333Y-76430295D02*
X200043333Y-76477914D01*
X200043333Y-76477914D02*
X199995714Y-76573152D01*
X199995714Y-76573152D02*
X199948095Y-76620771D01*
X199948095Y-76620771D02*
X199852857Y-76668390D01*
X199852857Y-76668390D02*
X199662381Y-76668390D01*
X199662381Y-76668390D02*
X199567143Y-76716009D01*
X199567143Y-76716009D02*
X199519524Y-76763628D01*
X199519524Y-76763628D02*
X199471905Y-76858866D01*
X199471905Y-76858866D02*
X199471905Y-77049342D01*
X199471905Y-77049342D02*
X199519524Y-77144580D01*
X199519524Y-77144580D02*
X199567143Y-77192200D01*
X199567143Y-77192200D02*
X199662381Y-77239819D01*
X199662381Y-77239819D02*
X199852857Y-77239819D01*
X199852857Y-77239819D02*
X199948095Y-77192200D01*
X199948095Y-77192200D02*
X199995714Y-77144580D01*
X199995714Y-77144580D02*
X200043333Y-77049342D01*
X200043333Y-77049342D02*
X200043333Y-76858866D01*
X200043333Y-76858866D02*
X199995714Y-76763628D01*
X199995714Y-76763628D02*
X199948095Y-76716009D01*
X199948095Y-76716009D02*
X199852857Y-76668390D01*
X226110476Y-77192200D02*
X226253333Y-77239819D01*
X226253333Y-77239819D02*
X226491428Y-77239819D01*
X226491428Y-77239819D02*
X226586666Y-77192200D01*
X226586666Y-77192200D02*
X226634285Y-77144580D01*
X226634285Y-77144580D02*
X226681904Y-77049342D01*
X226681904Y-77049342D02*
X226681904Y-76954104D01*
X226681904Y-76954104D02*
X226634285Y-76858866D01*
X226634285Y-76858866D02*
X226586666Y-76811247D01*
X226586666Y-76811247D02*
X226491428Y-76763628D01*
X226491428Y-76763628D02*
X226300952Y-76716009D01*
X226300952Y-76716009D02*
X226205714Y-76668390D01*
X226205714Y-76668390D02*
X226158095Y-76620771D01*
X226158095Y-76620771D02*
X226110476Y-76525533D01*
X226110476Y-76525533D02*
X226110476Y-76430295D01*
X226110476Y-76430295D02*
X226158095Y-76335057D01*
X226158095Y-76335057D02*
X226205714Y-76287438D01*
X226205714Y-76287438D02*
X226300952Y-76239819D01*
X226300952Y-76239819D02*
X226539047Y-76239819D01*
X226539047Y-76239819D02*
X226681904Y-76287438D01*
X227015238Y-76239819D02*
X227253333Y-77239819D01*
X227253333Y-77239819D02*
X227443809Y-76525533D01*
X227443809Y-76525533D02*
X227634285Y-77239819D01*
X227634285Y-77239819D02*
X227872381Y-76239819D01*
X228777142Y-77239819D02*
X228205714Y-77239819D01*
X228491428Y-77239819D02*
X228491428Y-76239819D01*
X228491428Y-76239819D02*
X228396190Y-76382676D01*
X228396190Y-76382676D02*
X228300952Y-76477914D01*
X228300952Y-76477914D02*
X228205714Y-76525533D01*
X229634285Y-76573152D02*
X229634285Y-77239819D01*
X229396190Y-76192200D02*
X229158095Y-76906485D01*
X229158095Y-76906485D02*
X229777142Y-76906485D01*
X56891667Y-57202200D02*
X57034524Y-57249819D01*
X57034524Y-57249819D02*
X57272619Y-57249819D01*
X57272619Y-57249819D02*
X57367857Y-57202200D01*
X57367857Y-57202200D02*
X57415476Y-57154580D01*
X57415476Y-57154580D02*
X57463095Y-57059342D01*
X57463095Y-57059342D02*
X57463095Y-56964104D01*
X57463095Y-56964104D02*
X57415476Y-56868866D01*
X57415476Y-56868866D02*
X57367857Y-56821247D01*
X57367857Y-56821247D02*
X57272619Y-56773628D01*
X57272619Y-56773628D02*
X57082143Y-56726009D01*
X57082143Y-56726009D02*
X56986905Y-56678390D01*
X56986905Y-56678390D02*
X56939286Y-56630771D01*
X56939286Y-56630771D02*
X56891667Y-56535533D01*
X56891667Y-56535533D02*
X56891667Y-56440295D01*
X56891667Y-56440295D02*
X56939286Y-56345057D01*
X56939286Y-56345057D02*
X56986905Y-56297438D01*
X56986905Y-56297438D02*
X57082143Y-56249819D01*
X57082143Y-56249819D02*
X57320238Y-56249819D01*
X57320238Y-56249819D02*
X57463095Y-56297438D01*
X57796429Y-56249819D02*
X58034524Y-57249819D01*
X58034524Y-57249819D02*
X58225000Y-56535533D01*
X58225000Y-56535533D02*
X58415476Y-57249819D01*
X58415476Y-57249819D02*
X58653572Y-56249819D01*
X58986905Y-56345057D02*
X59034524Y-56297438D01*
X59034524Y-56297438D02*
X59129762Y-56249819D01*
X59129762Y-56249819D02*
X59367857Y-56249819D01*
X59367857Y-56249819D02*
X59463095Y-56297438D01*
X59463095Y-56297438D02*
X59510714Y-56345057D01*
X59510714Y-56345057D02*
X59558333Y-56440295D01*
X59558333Y-56440295D02*
X59558333Y-56535533D01*
X59558333Y-56535533D02*
X59510714Y-56678390D01*
X59510714Y-56678390D02*
X58939286Y-57249819D01*
X58939286Y-57249819D02*
X59558333Y-57249819D01*
X86907200Y-41559523D02*
X86954819Y-41416666D01*
X86954819Y-41416666D02*
X86954819Y-41178571D01*
X86954819Y-41178571D02*
X86907200Y-41083333D01*
X86907200Y-41083333D02*
X86859580Y-41035714D01*
X86859580Y-41035714D02*
X86764342Y-40988095D01*
X86764342Y-40988095D02*
X86669104Y-40988095D01*
X86669104Y-40988095D02*
X86573866Y-41035714D01*
X86573866Y-41035714D02*
X86526247Y-41083333D01*
X86526247Y-41083333D02*
X86478628Y-41178571D01*
X86478628Y-41178571D02*
X86431009Y-41369047D01*
X86431009Y-41369047D02*
X86383390Y-41464285D01*
X86383390Y-41464285D02*
X86335771Y-41511904D01*
X86335771Y-41511904D02*
X86240533Y-41559523D01*
X86240533Y-41559523D02*
X86145295Y-41559523D01*
X86145295Y-41559523D02*
X86050057Y-41511904D01*
X86050057Y-41511904D02*
X86002438Y-41464285D01*
X86002438Y-41464285D02*
X85954819Y-41369047D01*
X85954819Y-41369047D02*
X85954819Y-41130952D01*
X85954819Y-41130952D02*
X86002438Y-40988095D01*
X85954819Y-40654761D02*
X86954819Y-40416666D01*
X86954819Y-40416666D02*
X86240533Y-40226190D01*
X86240533Y-40226190D02*
X86954819Y-40035714D01*
X86954819Y-40035714D02*
X85954819Y-39797619D01*
X86954819Y-38892857D02*
X86954819Y-39464285D01*
X86954819Y-39178571D02*
X85954819Y-39178571D01*
X85954819Y-39178571D02*
X86097676Y-39273809D01*
X86097676Y-39273809D02*
X86192914Y-39369047D01*
X86192914Y-39369047D02*
X86240533Y-39464285D01*
X86954819Y-37940476D02*
X86954819Y-38511904D01*
X86954819Y-38226190D02*
X85954819Y-38226190D01*
X85954819Y-38226190D02*
X86097676Y-38321428D01*
X86097676Y-38321428D02*
X86192914Y-38416666D01*
X86192914Y-38416666D02*
X86240533Y-38511904D01*
X63907200Y-41083332D02*
X63954819Y-40940475D01*
X63954819Y-40940475D02*
X63954819Y-40702380D01*
X63954819Y-40702380D02*
X63907200Y-40607142D01*
X63907200Y-40607142D02*
X63859580Y-40559523D01*
X63859580Y-40559523D02*
X63764342Y-40511904D01*
X63764342Y-40511904D02*
X63669104Y-40511904D01*
X63669104Y-40511904D02*
X63573866Y-40559523D01*
X63573866Y-40559523D02*
X63526247Y-40607142D01*
X63526247Y-40607142D02*
X63478628Y-40702380D01*
X63478628Y-40702380D02*
X63431009Y-40892856D01*
X63431009Y-40892856D02*
X63383390Y-40988094D01*
X63383390Y-40988094D02*
X63335771Y-41035713D01*
X63335771Y-41035713D02*
X63240533Y-41083332D01*
X63240533Y-41083332D02*
X63145295Y-41083332D01*
X63145295Y-41083332D02*
X63050057Y-41035713D01*
X63050057Y-41035713D02*
X63002438Y-40988094D01*
X63002438Y-40988094D02*
X62954819Y-40892856D01*
X62954819Y-40892856D02*
X62954819Y-40654761D01*
X62954819Y-40654761D02*
X63002438Y-40511904D01*
X62954819Y-40178570D02*
X63954819Y-39940475D01*
X63954819Y-39940475D02*
X63240533Y-39749999D01*
X63240533Y-39749999D02*
X63954819Y-39559523D01*
X63954819Y-39559523D02*
X62954819Y-39321428D01*
X62954819Y-38464285D02*
X62954819Y-38940475D01*
X62954819Y-38940475D02*
X63431009Y-38988094D01*
X63431009Y-38988094D02*
X63383390Y-38940475D01*
X63383390Y-38940475D02*
X63335771Y-38845237D01*
X63335771Y-38845237D02*
X63335771Y-38607142D01*
X63335771Y-38607142D02*
X63383390Y-38511904D01*
X63383390Y-38511904D02*
X63431009Y-38464285D01*
X63431009Y-38464285D02*
X63526247Y-38416666D01*
X63526247Y-38416666D02*
X63764342Y-38416666D01*
X63764342Y-38416666D02*
X63859580Y-38464285D01*
X63859580Y-38464285D02*
X63907200Y-38511904D01*
X63907200Y-38511904D02*
X63954819Y-38607142D01*
X63954819Y-38607142D02*
X63954819Y-38845237D01*
X63954819Y-38845237D02*
X63907200Y-38940475D01*
X63907200Y-38940475D02*
X63859580Y-38988094D01*
X96907200Y-41559523D02*
X96954819Y-41416666D01*
X96954819Y-41416666D02*
X96954819Y-41178571D01*
X96954819Y-41178571D02*
X96907200Y-41083333D01*
X96907200Y-41083333D02*
X96859580Y-41035714D01*
X96859580Y-41035714D02*
X96764342Y-40988095D01*
X96764342Y-40988095D02*
X96669104Y-40988095D01*
X96669104Y-40988095D02*
X96573866Y-41035714D01*
X96573866Y-41035714D02*
X96526247Y-41083333D01*
X96526247Y-41083333D02*
X96478628Y-41178571D01*
X96478628Y-41178571D02*
X96431009Y-41369047D01*
X96431009Y-41369047D02*
X96383390Y-41464285D01*
X96383390Y-41464285D02*
X96335771Y-41511904D01*
X96335771Y-41511904D02*
X96240533Y-41559523D01*
X96240533Y-41559523D02*
X96145295Y-41559523D01*
X96145295Y-41559523D02*
X96050057Y-41511904D01*
X96050057Y-41511904D02*
X96002438Y-41464285D01*
X96002438Y-41464285D02*
X95954819Y-41369047D01*
X95954819Y-41369047D02*
X95954819Y-41130952D01*
X95954819Y-41130952D02*
X96002438Y-40988095D01*
X95954819Y-40654761D02*
X96954819Y-40416666D01*
X96954819Y-40416666D02*
X96240533Y-40226190D01*
X96240533Y-40226190D02*
X96954819Y-40035714D01*
X96954819Y-40035714D02*
X95954819Y-39797619D01*
X96954819Y-38892857D02*
X96954819Y-39464285D01*
X96954819Y-39178571D02*
X95954819Y-39178571D01*
X95954819Y-39178571D02*
X96097676Y-39273809D01*
X96097676Y-39273809D02*
X96192914Y-39369047D01*
X96192914Y-39369047D02*
X96240533Y-39464285D01*
X95954819Y-37988095D02*
X95954819Y-38464285D01*
X95954819Y-38464285D02*
X96431009Y-38511904D01*
X96431009Y-38511904D02*
X96383390Y-38464285D01*
X96383390Y-38464285D02*
X96335771Y-38369047D01*
X96335771Y-38369047D02*
X96335771Y-38130952D01*
X96335771Y-38130952D02*
X96383390Y-38035714D01*
X96383390Y-38035714D02*
X96431009Y-37988095D01*
X96431009Y-37988095D02*
X96526247Y-37940476D01*
X96526247Y-37940476D02*
X96764342Y-37940476D01*
X96764342Y-37940476D02*
X96859580Y-37988095D01*
X96859580Y-37988095D02*
X96907200Y-38035714D01*
X96907200Y-38035714D02*
X96954819Y-38130952D01*
X96954819Y-38130952D02*
X96954819Y-38369047D01*
X96954819Y-38369047D02*
X96907200Y-38464285D01*
X96907200Y-38464285D02*
X96859580Y-38511904D01*
X53907200Y-41083332D02*
X53954819Y-40940475D01*
X53954819Y-40940475D02*
X53954819Y-40702380D01*
X53954819Y-40702380D02*
X53907200Y-40607142D01*
X53907200Y-40607142D02*
X53859580Y-40559523D01*
X53859580Y-40559523D02*
X53764342Y-40511904D01*
X53764342Y-40511904D02*
X53669104Y-40511904D01*
X53669104Y-40511904D02*
X53573866Y-40559523D01*
X53573866Y-40559523D02*
X53526247Y-40607142D01*
X53526247Y-40607142D02*
X53478628Y-40702380D01*
X53478628Y-40702380D02*
X53431009Y-40892856D01*
X53431009Y-40892856D02*
X53383390Y-40988094D01*
X53383390Y-40988094D02*
X53335771Y-41035713D01*
X53335771Y-41035713D02*
X53240533Y-41083332D01*
X53240533Y-41083332D02*
X53145295Y-41083332D01*
X53145295Y-41083332D02*
X53050057Y-41035713D01*
X53050057Y-41035713D02*
X53002438Y-40988094D01*
X53002438Y-40988094D02*
X52954819Y-40892856D01*
X52954819Y-40892856D02*
X52954819Y-40654761D01*
X52954819Y-40654761D02*
X53002438Y-40511904D01*
X52954819Y-40178570D02*
X53954819Y-39940475D01*
X53954819Y-39940475D02*
X53240533Y-39749999D01*
X53240533Y-39749999D02*
X53954819Y-39559523D01*
X53954819Y-39559523D02*
X52954819Y-39321428D01*
X53954819Y-38416666D02*
X53954819Y-38988094D01*
X53954819Y-38702380D02*
X52954819Y-38702380D01*
X52954819Y-38702380D02*
X53097676Y-38797618D01*
X53097676Y-38797618D02*
X53192914Y-38892856D01*
X53192914Y-38892856D02*
X53240533Y-38988094D01*
X73907200Y-41083332D02*
X73954819Y-40940475D01*
X73954819Y-40940475D02*
X73954819Y-40702380D01*
X73954819Y-40702380D02*
X73907200Y-40607142D01*
X73907200Y-40607142D02*
X73859580Y-40559523D01*
X73859580Y-40559523D02*
X73764342Y-40511904D01*
X73764342Y-40511904D02*
X73669104Y-40511904D01*
X73669104Y-40511904D02*
X73573866Y-40559523D01*
X73573866Y-40559523D02*
X73526247Y-40607142D01*
X73526247Y-40607142D02*
X73478628Y-40702380D01*
X73478628Y-40702380D02*
X73431009Y-40892856D01*
X73431009Y-40892856D02*
X73383390Y-40988094D01*
X73383390Y-40988094D02*
X73335771Y-41035713D01*
X73335771Y-41035713D02*
X73240533Y-41083332D01*
X73240533Y-41083332D02*
X73145295Y-41083332D01*
X73145295Y-41083332D02*
X73050057Y-41035713D01*
X73050057Y-41035713D02*
X73002438Y-40988094D01*
X73002438Y-40988094D02*
X72954819Y-40892856D01*
X72954819Y-40892856D02*
X72954819Y-40654761D01*
X72954819Y-40654761D02*
X73002438Y-40511904D01*
X72954819Y-40178570D02*
X73954819Y-39940475D01*
X73954819Y-39940475D02*
X73240533Y-39749999D01*
X73240533Y-39749999D02*
X73954819Y-39559523D01*
X73954819Y-39559523D02*
X72954819Y-39321428D01*
X73954819Y-38892856D02*
X73954819Y-38702380D01*
X73954819Y-38702380D02*
X73907200Y-38607142D01*
X73907200Y-38607142D02*
X73859580Y-38559523D01*
X73859580Y-38559523D02*
X73716723Y-38464285D01*
X73716723Y-38464285D02*
X73526247Y-38416666D01*
X73526247Y-38416666D02*
X73145295Y-38416666D01*
X73145295Y-38416666D02*
X73050057Y-38464285D01*
X73050057Y-38464285D02*
X73002438Y-38511904D01*
X73002438Y-38511904D02*
X72954819Y-38607142D01*
X72954819Y-38607142D02*
X72954819Y-38797618D01*
X72954819Y-38797618D02*
X73002438Y-38892856D01*
X73002438Y-38892856D02*
X73050057Y-38940475D01*
X73050057Y-38940475D02*
X73145295Y-38988094D01*
X73145295Y-38988094D02*
X73383390Y-38988094D01*
X73383390Y-38988094D02*
X73478628Y-38940475D01*
X73478628Y-38940475D02*
X73526247Y-38892856D01*
X73526247Y-38892856D02*
X73573866Y-38797618D01*
X73573866Y-38797618D02*
X73573866Y-38607142D01*
X73573866Y-38607142D02*
X73526247Y-38511904D01*
X73526247Y-38511904D02*
X73478628Y-38464285D01*
X73478628Y-38464285D02*
X73383390Y-38416666D01*
X106907200Y-41559523D02*
X106954819Y-41416666D01*
X106954819Y-41416666D02*
X106954819Y-41178571D01*
X106954819Y-41178571D02*
X106907200Y-41083333D01*
X106907200Y-41083333D02*
X106859580Y-41035714D01*
X106859580Y-41035714D02*
X106764342Y-40988095D01*
X106764342Y-40988095D02*
X106669104Y-40988095D01*
X106669104Y-40988095D02*
X106573866Y-41035714D01*
X106573866Y-41035714D02*
X106526247Y-41083333D01*
X106526247Y-41083333D02*
X106478628Y-41178571D01*
X106478628Y-41178571D02*
X106431009Y-41369047D01*
X106431009Y-41369047D02*
X106383390Y-41464285D01*
X106383390Y-41464285D02*
X106335771Y-41511904D01*
X106335771Y-41511904D02*
X106240533Y-41559523D01*
X106240533Y-41559523D02*
X106145295Y-41559523D01*
X106145295Y-41559523D02*
X106050057Y-41511904D01*
X106050057Y-41511904D02*
X106002438Y-41464285D01*
X106002438Y-41464285D02*
X105954819Y-41369047D01*
X105954819Y-41369047D02*
X105954819Y-41130952D01*
X105954819Y-41130952D02*
X106002438Y-40988095D01*
X105954819Y-40654761D02*
X106954819Y-40416666D01*
X106954819Y-40416666D02*
X106240533Y-40226190D01*
X106240533Y-40226190D02*
X106954819Y-40035714D01*
X106954819Y-40035714D02*
X105954819Y-39797619D01*
X106954819Y-38892857D02*
X106954819Y-39464285D01*
X106954819Y-39178571D02*
X105954819Y-39178571D01*
X105954819Y-39178571D02*
X106097676Y-39273809D01*
X106097676Y-39273809D02*
X106192914Y-39369047D01*
X106192914Y-39369047D02*
X106240533Y-39464285D01*
X106954819Y-38416666D02*
X106954819Y-38226190D01*
X106954819Y-38226190D02*
X106907200Y-38130952D01*
X106907200Y-38130952D02*
X106859580Y-38083333D01*
X106859580Y-38083333D02*
X106716723Y-37988095D01*
X106716723Y-37988095D02*
X106526247Y-37940476D01*
X106526247Y-37940476D02*
X106145295Y-37940476D01*
X106145295Y-37940476D02*
X106050057Y-37988095D01*
X106050057Y-37988095D02*
X106002438Y-38035714D01*
X106002438Y-38035714D02*
X105954819Y-38130952D01*
X105954819Y-38130952D02*
X105954819Y-38321428D01*
X105954819Y-38321428D02*
X106002438Y-38416666D01*
X106002438Y-38416666D02*
X106050057Y-38464285D01*
X106050057Y-38464285D02*
X106145295Y-38511904D01*
X106145295Y-38511904D02*
X106383390Y-38511904D01*
X106383390Y-38511904D02*
X106478628Y-38464285D01*
X106478628Y-38464285D02*
X106526247Y-38416666D01*
X106526247Y-38416666D02*
X106573866Y-38321428D01*
X106573866Y-38321428D02*
X106573866Y-38130952D01*
X106573866Y-38130952D02*
X106526247Y-38035714D01*
X106526247Y-38035714D02*
X106478628Y-37988095D01*
X106478628Y-37988095D02*
X106383390Y-37940476D01*
X122759580Y-54016666D02*
X122807200Y-54064285D01*
X122807200Y-54064285D02*
X122854819Y-54207142D01*
X122854819Y-54207142D02*
X122854819Y-54302380D01*
X122854819Y-54302380D02*
X122807200Y-54445237D01*
X122807200Y-54445237D02*
X122711961Y-54540475D01*
X122711961Y-54540475D02*
X122616723Y-54588094D01*
X122616723Y-54588094D02*
X122426247Y-54635713D01*
X122426247Y-54635713D02*
X122283390Y-54635713D01*
X122283390Y-54635713D02*
X122092914Y-54588094D01*
X122092914Y-54588094D02*
X121997676Y-54540475D01*
X121997676Y-54540475D02*
X121902438Y-54445237D01*
X121902438Y-54445237D02*
X121854819Y-54302380D01*
X121854819Y-54302380D02*
X121854819Y-54207142D01*
X121854819Y-54207142D02*
X121902438Y-54064285D01*
X121902438Y-54064285D02*
X121950057Y-54016666D01*
X121854819Y-53683332D02*
X121854819Y-53016666D01*
X121854819Y-53016666D02*
X122854819Y-53445237D01*
X121391666Y-36554819D02*
X121391666Y-37269104D01*
X121391666Y-37269104D02*
X121344047Y-37411961D01*
X121344047Y-37411961D02*
X121248809Y-37507200D01*
X121248809Y-37507200D02*
X121105952Y-37554819D01*
X121105952Y-37554819D02*
X121010714Y-37554819D01*
X122391666Y-37554819D02*
X121820238Y-37554819D01*
X122105952Y-37554819D02*
X122105952Y-36554819D01*
X122105952Y-36554819D02*
X122010714Y-36697676D01*
X122010714Y-36697676D02*
X121915476Y-36792914D01*
X121915476Y-36792914D02*
X121820238Y-36840533D01*
X204513095Y-119797319D02*
X204513095Y-120606842D01*
X204513095Y-120606842D02*
X204560714Y-120702080D01*
X204560714Y-120702080D02*
X204608333Y-120749700D01*
X204608333Y-120749700D02*
X204703571Y-120797319D01*
X204703571Y-120797319D02*
X204894047Y-120797319D01*
X204894047Y-120797319D02*
X204989285Y-120749700D01*
X204989285Y-120749700D02*
X205036904Y-120702080D01*
X205036904Y-120702080D02*
X205084523Y-120606842D01*
X205084523Y-120606842D02*
X205084523Y-119797319D01*
X205989285Y-120130652D02*
X205989285Y-120797319D01*
X205751190Y-119749700D02*
X205513095Y-120463985D01*
X205513095Y-120463985D02*
X206132142Y-120463985D01*
X126423809Y-62928628D02*
X126423809Y-63404819D01*
X126090476Y-62404819D02*
X126423809Y-62928628D01*
X126423809Y-62928628D02*
X126757142Y-62404819D01*
X127614285Y-63404819D02*
X127042857Y-63404819D01*
X127328571Y-63404819D02*
X127328571Y-62404819D01*
X127328571Y-62404819D02*
X127233333Y-62547676D01*
X127233333Y-62547676D02*
X127138095Y-62642914D01*
X127138095Y-62642914D02*
X127042857Y-62690533D01*
X89024819Y-97038094D02*
X88024819Y-97038094D01*
X88024819Y-97038094D02*
X88024819Y-96799999D01*
X88024819Y-96799999D02*
X88072438Y-96657142D01*
X88072438Y-96657142D02*
X88167676Y-96561904D01*
X88167676Y-96561904D02*
X88262914Y-96514285D01*
X88262914Y-96514285D02*
X88453390Y-96466666D01*
X88453390Y-96466666D02*
X88596247Y-96466666D01*
X88596247Y-96466666D02*
X88786723Y-96514285D01*
X88786723Y-96514285D02*
X88881961Y-96561904D01*
X88881961Y-96561904D02*
X88977200Y-96657142D01*
X88977200Y-96657142D02*
X89024819Y-96799999D01*
X89024819Y-96799999D02*
X89024819Y-97038094D01*
X88120057Y-96085713D02*
X88072438Y-96038094D01*
X88072438Y-96038094D02*
X88024819Y-95942856D01*
X88024819Y-95942856D02*
X88024819Y-95704761D01*
X88024819Y-95704761D02*
X88072438Y-95609523D01*
X88072438Y-95609523D02*
X88120057Y-95561904D01*
X88120057Y-95561904D02*
X88215295Y-95514285D01*
X88215295Y-95514285D02*
X88310533Y-95514285D01*
X88310533Y-95514285D02*
X88453390Y-95561904D01*
X88453390Y-95561904D02*
X89024819Y-96133332D01*
X89024819Y-96133332D02*
X89024819Y-95514285D01*
X140938095Y-40054819D02*
X140938095Y-40864342D01*
X140938095Y-40864342D02*
X140985714Y-40959580D01*
X140985714Y-40959580D02*
X141033333Y-41007200D01*
X141033333Y-41007200D02*
X141128571Y-41054819D01*
X141128571Y-41054819D02*
X141319047Y-41054819D01*
X141319047Y-41054819D02*
X141414285Y-41007200D01*
X141414285Y-41007200D02*
X141461904Y-40959580D01*
X141461904Y-40959580D02*
X141509523Y-40864342D01*
X141509523Y-40864342D02*
X141509523Y-40054819D01*
X141938095Y-40150057D02*
X141985714Y-40102438D01*
X141985714Y-40102438D02*
X142080952Y-40054819D01*
X142080952Y-40054819D02*
X142319047Y-40054819D01*
X142319047Y-40054819D02*
X142414285Y-40102438D01*
X142414285Y-40102438D02*
X142461904Y-40150057D01*
X142461904Y-40150057D02*
X142509523Y-40245295D01*
X142509523Y-40245295D02*
X142509523Y-40340533D01*
X142509523Y-40340533D02*
X142461904Y-40483390D01*
X142461904Y-40483390D02*
X141890476Y-41054819D01*
X141890476Y-41054819D02*
X142509523Y-41054819D01*
X133509580Y-60217857D02*
X133557200Y-60265476D01*
X133557200Y-60265476D02*
X133604819Y-60408333D01*
X133604819Y-60408333D02*
X133604819Y-60503571D01*
X133604819Y-60503571D02*
X133557200Y-60646428D01*
X133557200Y-60646428D02*
X133461961Y-60741666D01*
X133461961Y-60741666D02*
X133366723Y-60789285D01*
X133366723Y-60789285D02*
X133176247Y-60836904D01*
X133176247Y-60836904D02*
X133033390Y-60836904D01*
X133033390Y-60836904D02*
X132842914Y-60789285D01*
X132842914Y-60789285D02*
X132747676Y-60741666D01*
X132747676Y-60741666D02*
X132652438Y-60646428D01*
X132652438Y-60646428D02*
X132604819Y-60503571D01*
X132604819Y-60503571D02*
X132604819Y-60408333D01*
X132604819Y-60408333D02*
X132652438Y-60265476D01*
X132652438Y-60265476D02*
X132700057Y-60217857D01*
X133604819Y-59265476D02*
X133604819Y-59836904D01*
X133604819Y-59551190D02*
X132604819Y-59551190D01*
X132604819Y-59551190D02*
X132747676Y-59646428D01*
X132747676Y-59646428D02*
X132842914Y-59741666D01*
X132842914Y-59741666D02*
X132890533Y-59836904D01*
X132604819Y-58646428D02*
X132604819Y-58551190D01*
X132604819Y-58551190D02*
X132652438Y-58455952D01*
X132652438Y-58455952D02*
X132700057Y-58408333D01*
X132700057Y-58408333D02*
X132795295Y-58360714D01*
X132795295Y-58360714D02*
X132985771Y-58313095D01*
X132985771Y-58313095D02*
X133223866Y-58313095D01*
X133223866Y-58313095D02*
X133414342Y-58360714D01*
X133414342Y-58360714D02*
X133509580Y-58408333D01*
X133509580Y-58408333D02*
X133557200Y-58455952D01*
X133557200Y-58455952D02*
X133604819Y-58551190D01*
X133604819Y-58551190D02*
X133604819Y-58646428D01*
X133604819Y-58646428D02*
X133557200Y-58741666D01*
X133557200Y-58741666D02*
X133509580Y-58789285D01*
X133509580Y-58789285D02*
X133414342Y-58836904D01*
X133414342Y-58836904D02*
X133223866Y-58884523D01*
X133223866Y-58884523D02*
X132985771Y-58884523D01*
X132985771Y-58884523D02*
X132795295Y-58836904D01*
X132795295Y-58836904D02*
X132700057Y-58789285D01*
X132700057Y-58789285D02*
X132652438Y-58741666D01*
X132652438Y-58741666D02*
X132604819Y-58646428D01*
X89079819Y-93066666D02*
X88603628Y-93399999D01*
X89079819Y-93638094D02*
X88079819Y-93638094D01*
X88079819Y-93638094D02*
X88079819Y-93257142D01*
X88079819Y-93257142D02*
X88127438Y-93161904D01*
X88127438Y-93161904D02*
X88175057Y-93114285D01*
X88175057Y-93114285D02*
X88270295Y-93066666D01*
X88270295Y-93066666D02*
X88413152Y-93066666D01*
X88413152Y-93066666D02*
X88508390Y-93114285D01*
X88508390Y-93114285D02*
X88556009Y-93161904D01*
X88556009Y-93161904D02*
X88603628Y-93257142D01*
X88603628Y-93257142D02*
X88603628Y-93638094D01*
X88413152Y-92209523D02*
X89079819Y-92209523D01*
X88032200Y-92447618D02*
X88746485Y-92685713D01*
X88746485Y-92685713D02*
X88746485Y-92066666D01*
X129932142Y-58109580D02*
X129884523Y-58157200D01*
X129884523Y-58157200D02*
X129741666Y-58204819D01*
X129741666Y-58204819D02*
X129646428Y-58204819D01*
X129646428Y-58204819D02*
X129503571Y-58157200D01*
X129503571Y-58157200D02*
X129408333Y-58061961D01*
X129408333Y-58061961D02*
X129360714Y-57966723D01*
X129360714Y-57966723D02*
X129313095Y-57776247D01*
X129313095Y-57776247D02*
X129313095Y-57633390D01*
X129313095Y-57633390D02*
X129360714Y-57442914D01*
X129360714Y-57442914D02*
X129408333Y-57347676D01*
X129408333Y-57347676D02*
X129503571Y-57252438D01*
X129503571Y-57252438D02*
X129646428Y-57204819D01*
X129646428Y-57204819D02*
X129741666Y-57204819D01*
X129741666Y-57204819D02*
X129884523Y-57252438D01*
X129884523Y-57252438D02*
X129932142Y-57300057D01*
X130884523Y-58204819D02*
X130313095Y-58204819D01*
X130598809Y-58204819D02*
X130598809Y-57204819D01*
X130598809Y-57204819D02*
X130503571Y-57347676D01*
X130503571Y-57347676D02*
X130408333Y-57442914D01*
X130408333Y-57442914D02*
X130313095Y-57490533D01*
X131741666Y-57538152D02*
X131741666Y-58204819D01*
X131503571Y-57157200D02*
X131265476Y-57871485D01*
X131265476Y-57871485D02*
X131884523Y-57871485D01*
X65038095Y-95253819D02*
X65038095Y-96063342D01*
X65038095Y-96063342D02*
X65085714Y-96158580D01*
X65085714Y-96158580D02*
X65133333Y-96206200D01*
X65133333Y-96206200D02*
X65228571Y-96253819D01*
X65228571Y-96253819D02*
X65419047Y-96253819D01*
X65419047Y-96253819D02*
X65514285Y-96206200D01*
X65514285Y-96206200D02*
X65561904Y-96158580D01*
X65561904Y-96158580D02*
X65609523Y-96063342D01*
X65609523Y-96063342D02*
X65609523Y-95253819D01*
X66609523Y-96253819D02*
X66038095Y-96253819D01*
X66323809Y-96253819D02*
X66323809Y-95253819D01*
X66323809Y-95253819D02*
X66228571Y-95396676D01*
X66228571Y-95396676D02*
X66133333Y-95491914D01*
X66133333Y-95491914D02*
X66038095Y-95539533D01*
X123733333Y-40959580D02*
X123685714Y-41007200D01*
X123685714Y-41007200D02*
X123542857Y-41054819D01*
X123542857Y-41054819D02*
X123447619Y-41054819D01*
X123447619Y-41054819D02*
X123304762Y-41007200D01*
X123304762Y-41007200D02*
X123209524Y-40911961D01*
X123209524Y-40911961D02*
X123161905Y-40816723D01*
X123161905Y-40816723D02*
X123114286Y-40626247D01*
X123114286Y-40626247D02*
X123114286Y-40483390D01*
X123114286Y-40483390D02*
X123161905Y-40292914D01*
X123161905Y-40292914D02*
X123209524Y-40197676D01*
X123209524Y-40197676D02*
X123304762Y-40102438D01*
X123304762Y-40102438D02*
X123447619Y-40054819D01*
X123447619Y-40054819D02*
X123542857Y-40054819D01*
X123542857Y-40054819D02*
X123685714Y-40102438D01*
X123685714Y-40102438D02*
X123733333Y-40150057D01*
X124590476Y-40054819D02*
X124400000Y-40054819D01*
X124400000Y-40054819D02*
X124304762Y-40102438D01*
X124304762Y-40102438D02*
X124257143Y-40150057D01*
X124257143Y-40150057D02*
X124161905Y-40292914D01*
X124161905Y-40292914D02*
X124114286Y-40483390D01*
X124114286Y-40483390D02*
X124114286Y-40864342D01*
X124114286Y-40864342D02*
X124161905Y-40959580D01*
X124161905Y-40959580D02*
X124209524Y-41007200D01*
X124209524Y-41007200D02*
X124304762Y-41054819D01*
X124304762Y-41054819D02*
X124495238Y-41054819D01*
X124495238Y-41054819D02*
X124590476Y-41007200D01*
X124590476Y-41007200D02*
X124638095Y-40959580D01*
X124638095Y-40959580D02*
X124685714Y-40864342D01*
X124685714Y-40864342D02*
X124685714Y-40626247D01*
X124685714Y-40626247D02*
X124638095Y-40531009D01*
X124638095Y-40531009D02*
X124590476Y-40483390D01*
X124590476Y-40483390D02*
X124495238Y-40435771D01*
X124495238Y-40435771D02*
X124304762Y-40435771D01*
X124304762Y-40435771D02*
X124209524Y-40483390D01*
X124209524Y-40483390D02*
X124161905Y-40531009D01*
X124161905Y-40531009D02*
X124114286Y-40626247D01*
X84004819Y-93041666D02*
X83528628Y-93374999D01*
X84004819Y-93613094D02*
X83004819Y-93613094D01*
X83004819Y-93613094D02*
X83004819Y-93232142D01*
X83004819Y-93232142D02*
X83052438Y-93136904D01*
X83052438Y-93136904D02*
X83100057Y-93089285D01*
X83100057Y-93089285D02*
X83195295Y-93041666D01*
X83195295Y-93041666D02*
X83338152Y-93041666D01*
X83338152Y-93041666D02*
X83433390Y-93089285D01*
X83433390Y-93089285D02*
X83481009Y-93136904D01*
X83481009Y-93136904D02*
X83528628Y-93232142D01*
X83528628Y-93232142D02*
X83528628Y-93613094D01*
X83004819Y-92708332D02*
X83004819Y-92089285D01*
X83004819Y-92089285D02*
X83385771Y-92422618D01*
X83385771Y-92422618D02*
X83385771Y-92279761D01*
X83385771Y-92279761D02*
X83433390Y-92184523D01*
X83433390Y-92184523D02*
X83481009Y-92136904D01*
X83481009Y-92136904D02*
X83576247Y-92089285D01*
X83576247Y-92089285D02*
X83814342Y-92089285D01*
X83814342Y-92089285D02*
X83909580Y-92136904D01*
X83909580Y-92136904D02*
X83957200Y-92184523D01*
X83957200Y-92184523D02*
X84004819Y-92279761D01*
X84004819Y-92279761D02*
X84004819Y-92565475D01*
X84004819Y-92565475D02*
X83957200Y-92660713D01*
X83957200Y-92660713D02*
X83909580Y-92708332D01*
X131133333Y-39909580D02*
X131085714Y-39957200D01*
X131085714Y-39957200D02*
X130942857Y-40004819D01*
X130942857Y-40004819D02*
X130847619Y-40004819D01*
X130847619Y-40004819D02*
X130704762Y-39957200D01*
X130704762Y-39957200D02*
X130609524Y-39861961D01*
X130609524Y-39861961D02*
X130561905Y-39766723D01*
X130561905Y-39766723D02*
X130514286Y-39576247D01*
X130514286Y-39576247D02*
X130514286Y-39433390D01*
X130514286Y-39433390D02*
X130561905Y-39242914D01*
X130561905Y-39242914D02*
X130609524Y-39147676D01*
X130609524Y-39147676D02*
X130704762Y-39052438D01*
X130704762Y-39052438D02*
X130847619Y-39004819D01*
X130847619Y-39004819D02*
X130942857Y-39004819D01*
X130942857Y-39004819D02*
X131085714Y-39052438D01*
X131085714Y-39052438D02*
X131133333Y-39100057D01*
X131990476Y-39338152D02*
X131990476Y-40004819D01*
X131752381Y-38957200D02*
X131514286Y-39671485D01*
X131514286Y-39671485D02*
X132133333Y-39671485D01*
X141307142Y-46659580D02*
X141259523Y-46707200D01*
X141259523Y-46707200D02*
X141116666Y-46754819D01*
X141116666Y-46754819D02*
X141021428Y-46754819D01*
X141021428Y-46754819D02*
X140878571Y-46707200D01*
X140878571Y-46707200D02*
X140783333Y-46611961D01*
X140783333Y-46611961D02*
X140735714Y-46516723D01*
X140735714Y-46516723D02*
X140688095Y-46326247D01*
X140688095Y-46326247D02*
X140688095Y-46183390D01*
X140688095Y-46183390D02*
X140735714Y-45992914D01*
X140735714Y-45992914D02*
X140783333Y-45897676D01*
X140783333Y-45897676D02*
X140878571Y-45802438D01*
X140878571Y-45802438D02*
X141021428Y-45754819D01*
X141021428Y-45754819D02*
X141116666Y-45754819D01*
X141116666Y-45754819D02*
X141259523Y-45802438D01*
X141259523Y-45802438D02*
X141307142Y-45850057D01*
X142259523Y-46754819D02*
X141688095Y-46754819D01*
X141973809Y-46754819D02*
X141973809Y-45754819D01*
X141973809Y-45754819D02*
X141878571Y-45897676D01*
X141878571Y-45897676D02*
X141783333Y-45992914D01*
X141783333Y-45992914D02*
X141688095Y-46040533D01*
X143164285Y-45754819D02*
X142688095Y-45754819D01*
X142688095Y-45754819D02*
X142640476Y-46231009D01*
X142640476Y-46231009D02*
X142688095Y-46183390D01*
X142688095Y-46183390D02*
X142783333Y-46135771D01*
X142783333Y-46135771D02*
X143021428Y-46135771D01*
X143021428Y-46135771D02*
X143116666Y-46183390D01*
X143116666Y-46183390D02*
X143164285Y-46231009D01*
X143164285Y-46231009D02*
X143211904Y-46326247D01*
X143211904Y-46326247D02*
X143211904Y-46564342D01*
X143211904Y-46564342D02*
X143164285Y-46659580D01*
X143164285Y-46659580D02*
X143116666Y-46707200D01*
X143116666Y-46707200D02*
X143021428Y-46754819D01*
X143021428Y-46754819D02*
X142783333Y-46754819D01*
X142783333Y-46754819D02*
X142688095Y-46707200D01*
X142688095Y-46707200D02*
X142640476Y-46659580D01*
X203776666Y-101234819D02*
X203776666Y-101949104D01*
X203776666Y-101949104D02*
X203729047Y-102091961D01*
X203729047Y-102091961D02*
X203633809Y-102187200D01*
X203633809Y-102187200D02*
X203490952Y-102234819D01*
X203490952Y-102234819D02*
X203395714Y-102234819D01*
X204205238Y-101330057D02*
X204252857Y-101282438D01*
X204252857Y-101282438D02*
X204348095Y-101234819D01*
X204348095Y-101234819D02*
X204586190Y-101234819D01*
X204586190Y-101234819D02*
X204681428Y-101282438D01*
X204681428Y-101282438D02*
X204729047Y-101330057D01*
X204729047Y-101330057D02*
X204776666Y-101425295D01*
X204776666Y-101425295D02*
X204776666Y-101520533D01*
X204776666Y-101520533D02*
X204729047Y-101663390D01*
X204729047Y-101663390D02*
X204157619Y-102234819D01*
X204157619Y-102234819D02*
X204776666Y-102234819D01*
X68354819Y-89366666D02*
X67878628Y-89699999D01*
X68354819Y-89938094D02*
X67354819Y-89938094D01*
X67354819Y-89938094D02*
X67354819Y-89557142D01*
X67354819Y-89557142D02*
X67402438Y-89461904D01*
X67402438Y-89461904D02*
X67450057Y-89414285D01*
X67450057Y-89414285D02*
X67545295Y-89366666D01*
X67545295Y-89366666D02*
X67688152Y-89366666D01*
X67688152Y-89366666D02*
X67783390Y-89414285D01*
X67783390Y-89414285D02*
X67831009Y-89461904D01*
X67831009Y-89461904D02*
X67878628Y-89557142D01*
X67878628Y-89557142D02*
X67878628Y-89938094D01*
X67450057Y-88985713D02*
X67402438Y-88938094D01*
X67402438Y-88938094D02*
X67354819Y-88842856D01*
X67354819Y-88842856D02*
X67354819Y-88604761D01*
X67354819Y-88604761D02*
X67402438Y-88509523D01*
X67402438Y-88509523D02*
X67450057Y-88461904D01*
X67450057Y-88461904D02*
X67545295Y-88414285D01*
X67545295Y-88414285D02*
X67640533Y-88414285D01*
X67640533Y-88414285D02*
X67783390Y-88461904D01*
X67783390Y-88461904D02*
X68354819Y-89033332D01*
X68354819Y-89033332D02*
X68354819Y-88414285D01*
X119829580Y-54266666D02*
X119877200Y-54314285D01*
X119877200Y-54314285D02*
X119924819Y-54457142D01*
X119924819Y-54457142D02*
X119924819Y-54552380D01*
X119924819Y-54552380D02*
X119877200Y-54695237D01*
X119877200Y-54695237D02*
X119781961Y-54790475D01*
X119781961Y-54790475D02*
X119686723Y-54838094D01*
X119686723Y-54838094D02*
X119496247Y-54885713D01*
X119496247Y-54885713D02*
X119353390Y-54885713D01*
X119353390Y-54885713D02*
X119162914Y-54838094D01*
X119162914Y-54838094D02*
X119067676Y-54790475D01*
X119067676Y-54790475D02*
X118972438Y-54695237D01*
X118972438Y-54695237D02*
X118924819Y-54552380D01*
X118924819Y-54552380D02*
X118924819Y-54457142D01*
X118924819Y-54457142D02*
X118972438Y-54314285D01*
X118972438Y-54314285D02*
X119020057Y-54266666D01*
X118924819Y-53361904D02*
X118924819Y-53838094D01*
X118924819Y-53838094D02*
X119401009Y-53885713D01*
X119401009Y-53885713D02*
X119353390Y-53838094D01*
X119353390Y-53838094D02*
X119305771Y-53742856D01*
X119305771Y-53742856D02*
X119305771Y-53504761D01*
X119305771Y-53504761D02*
X119353390Y-53409523D01*
X119353390Y-53409523D02*
X119401009Y-53361904D01*
X119401009Y-53361904D02*
X119496247Y-53314285D01*
X119496247Y-53314285D02*
X119734342Y-53314285D01*
X119734342Y-53314285D02*
X119829580Y-53361904D01*
X119829580Y-53361904D02*
X119877200Y-53409523D01*
X119877200Y-53409523D02*
X119924819Y-53504761D01*
X119924819Y-53504761D02*
X119924819Y-53742856D01*
X119924819Y-53742856D02*
X119877200Y-53838094D01*
X119877200Y-53838094D02*
X119829580Y-53885713D01*
X80533333Y-90754819D02*
X80200000Y-90278628D01*
X79961905Y-90754819D02*
X79961905Y-89754819D01*
X79961905Y-89754819D02*
X80342857Y-89754819D01*
X80342857Y-89754819D02*
X80438095Y-89802438D01*
X80438095Y-89802438D02*
X80485714Y-89850057D01*
X80485714Y-89850057D02*
X80533333Y-89945295D01*
X80533333Y-89945295D02*
X80533333Y-90088152D01*
X80533333Y-90088152D02*
X80485714Y-90183390D01*
X80485714Y-90183390D02*
X80438095Y-90231009D01*
X80438095Y-90231009D02*
X80342857Y-90278628D01*
X80342857Y-90278628D02*
X79961905Y-90278628D01*
X81485714Y-90754819D02*
X80914286Y-90754819D01*
X81200000Y-90754819D02*
X81200000Y-89754819D01*
X81200000Y-89754819D02*
X81104762Y-89897676D01*
X81104762Y-89897676D02*
X81009524Y-89992914D01*
X81009524Y-89992914D02*
X80914286Y-90040533D01*
X84024819Y-97038094D02*
X83024819Y-97038094D01*
X83024819Y-97038094D02*
X83024819Y-96799999D01*
X83024819Y-96799999D02*
X83072438Y-96657142D01*
X83072438Y-96657142D02*
X83167676Y-96561904D01*
X83167676Y-96561904D02*
X83262914Y-96514285D01*
X83262914Y-96514285D02*
X83453390Y-96466666D01*
X83453390Y-96466666D02*
X83596247Y-96466666D01*
X83596247Y-96466666D02*
X83786723Y-96514285D01*
X83786723Y-96514285D02*
X83881961Y-96561904D01*
X83881961Y-96561904D02*
X83977200Y-96657142D01*
X83977200Y-96657142D02*
X84024819Y-96799999D01*
X84024819Y-96799999D02*
X84024819Y-97038094D01*
X84024819Y-95514285D02*
X84024819Y-96085713D01*
X84024819Y-95799999D02*
X83024819Y-95799999D01*
X83024819Y-95799999D02*
X83167676Y-95895237D01*
X83167676Y-95895237D02*
X83262914Y-95990475D01*
X83262914Y-95990475D02*
X83310533Y-96085713D01*
X140257142Y-34259580D02*
X140209523Y-34307200D01*
X140209523Y-34307200D02*
X140066666Y-34354819D01*
X140066666Y-34354819D02*
X139971428Y-34354819D01*
X139971428Y-34354819D02*
X139828571Y-34307200D01*
X139828571Y-34307200D02*
X139733333Y-34211961D01*
X139733333Y-34211961D02*
X139685714Y-34116723D01*
X139685714Y-34116723D02*
X139638095Y-33926247D01*
X139638095Y-33926247D02*
X139638095Y-33783390D01*
X139638095Y-33783390D02*
X139685714Y-33592914D01*
X139685714Y-33592914D02*
X139733333Y-33497676D01*
X139733333Y-33497676D02*
X139828571Y-33402438D01*
X139828571Y-33402438D02*
X139971428Y-33354819D01*
X139971428Y-33354819D02*
X140066666Y-33354819D01*
X140066666Y-33354819D02*
X140209523Y-33402438D01*
X140209523Y-33402438D02*
X140257142Y-33450057D01*
X141209523Y-34354819D02*
X140638095Y-34354819D01*
X140923809Y-34354819D02*
X140923809Y-33354819D01*
X140923809Y-33354819D02*
X140828571Y-33497676D01*
X140828571Y-33497676D02*
X140733333Y-33592914D01*
X140733333Y-33592914D02*
X140638095Y-33640533D01*
X141590476Y-33450057D02*
X141638095Y-33402438D01*
X141638095Y-33402438D02*
X141733333Y-33354819D01*
X141733333Y-33354819D02*
X141971428Y-33354819D01*
X141971428Y-33354819D02*
X142066666Y-33402438D01*
X142066666Y-33402438D02*
X142114285Y-33450057D01*
X142114285Y-33450057D02*
X142161904Y-33545295D01*
X142161904Y-33545295D02*
X142161904Y-33640533D01*
X142161904Y-33640533D02*
X142114285Y-33783390D01*
X142114285Y-33783390D02*
X141542857Y-34354819D01*
X141542857Y-34354819D02*
X142161904Y-34354819D01*
X121232142Y-56234580D02*
X121184523Y-56282200D01*
X121184523Y-56282200D02*
X121041666Y-56329819D01*
X121041666Y-56329819D02*
X120946428Y-56329819D01*
X120946428Y-56329819D02*
X120803571Y-56282200D01*
X120803571Y-56282200D02*
X120708333Y-56186961D01*
X120708333Y-56186961D02*
X120660714Y-56091723D01*
X120660714Y-56091723D02*
X120613095Y-55901247D01*
X120613095Y-55901247D02*
X120613095Y-55758390D01*
X120613095Y-55758390D02*
X120660714Y-55567914D01*
X120660714Y-55567914D02*
X120708333Y-55472676D01*
X120708333Y-55472676D02*
X120803571Y-55377438D01*
X120803571Y-55377438D02*
X120946428Y-55329819D01*
X120946428Y-55329819D02*
X121041666Y-55329819D01*
X121041666Y-55329819D02*
X121184523Y-55377438D01*
X121184523Y-55377438D02*
X121232142Y-55425057D01*
X122184523Y-56329819D02*
X121613095Y-56329819D01*
X121898809Y-56329819D02*
X121898809Y-55329819D01*
X121898809Y-55329819D02*
X121803571Y-55472676D01*
X121803571Y-55472676D02*
X121708333Y-55567914D01*
X121708333Y-55567914D02*
X121613095Y-55615533D01*
X123041666Y-55329819D02*
X122851190Y-55329819D01*
X122851190Y-55329819D02*
X122755952Y-55377438D01*
X122755952Y-55377438D02*
X122708333Y-55425057D01*
X122708333Y-55425057D02*
X122613095Y-55567914D01*
X122613095Y-55567914D02*
X122565476Y-55758390D01*
X122565476Y-55758390D02*
X122565476Y-56139342D01*
X122565476Y-56139342D02*
X122613095Y-56234580D01*
X122613095Y-56234580D02*
X122660714Y-56282200D01*
X122660714Y-56282200D02*
X122755952Y-56329819D01*
X122755952Y-56329819D02*
X122946428Y-56329819D01*
X122946428Y-56329819D02*
X123041666Y-56282200D01*
X123041666Y-56282200D02*
X123089285Y-56234580D01*
X123089285Y-56234580D02*
X123136904Y-56139342D01*
X123136904Y-56139342D02*
X123136904Y-55901247D01*
X123136904Y-55901247D02*
X123089285Y-55806009D01*
X123089285Y-55806009D02*
X123041666Y-55758390D01*
X123041666Y-55758390D02*
X122946428Y-55710771D01*
X122946428Y-55710771D02*
X122755952Y-55710771D01*
X122755952Y-55710771D02*
X122660714Y-55758390D01*
X122660714Y-55758390D02*
X122613095Y-55806009D01*
X122613095Y-55806009D02*
X122565476Y-55901247D01*
X140269580Y-52516666D02*
X140317200Y-52564285D01*
X140317200Y-52564285D02*
X140364819Y-52707142D01*
X140364819Y-52707142D02*
X140364819Y-52802380D01*
X140364819Y-52802380D02*
X140317200Y-52945237D01*
X140317200Y-52945237D02*
X140221961Y-53040475D01*
X140221961Y-53040475D02*
X140126723Y-53088094D01*
X140126723Y-53088094D02*
X139936247Y-53135713D01*
X139936247Y-53135713D02*
X139793390Y-53135713D01*
X139793390Y-53135713D02*
X139602914Y-53088094D01*
X139602914Y-53088094D02*
X139507676Y-53040475D01*
X139507676Y-53040475D02*
X139412438Y-52945237D01*
X139412438Y-52945237D02*
X139364819Y-52802380D01*
X139364819Y-52802380D02*
X139364819Y-52707142D01*
X139364819Y-52707142D02*
X139412438Y-52564285D01*
X139412438Y-52564285D02*
X139460057Y-52516666D01*
X139793390Y-51945237D02*
X139745771Y-52040475D01*
X139745771Y-52040475D02*
X139698152Y-52088094D01*
X139698152Y-52088094D02*
X139602914Y-52135713D01*
X139602914Y-52135713D02*
X139555295Y-52135713D01*
X139555295Y-52135713D02*
X139460057Y-52088094D01*
X139460057Y-52088094D02*
X139412438Y-52040475D01*
X139412438Y-52040475D02*
X139364819Y-51945237D01*
X139364819Y-51945237D02*
X139364819Y-51754761D01*
X139364819Y-51754761D02*
X139412438Y-51659523D01*
X139412438Y-51659523D02*
X139460057Y-51611904D01*
X139460057Y-51611904D02*
X139555295Y-51564285D01*
X139555295Y-51564285D02*
X139602914Y-51564285D01*
X139602914Y-51564285D02*
X139698152Y-51611904D01*
X139698152Y-51611904D02*
X139745771Y-51659523D01*
X139745771Y-51659523D02*
X139793390Y-51754761D01*
X139793390Y-51754761D02*
X139793390Y-51945237D01*
X139793390Y-51945237D02*
X139841009Y-52040475D01*
X139841009Y-52040475D02*
X139888628Y-52088094D01*
X139888628Y-52088094D02*
X139983866Y-52135713D01*
X139983866Y-52135713D02*
X140174342Y-52135713D01*
X140174342Y-52135713D02*
X140269580Y-52088094D01*
X140269580Y-52088094D02*
X140317200Y-52040475D01*
X140317200Y-52040475D02*
X140364819Y-51945237D01*
X140364819Y-51945237D02*
X140364819Y-51754761D01*
X140364819Y-51754761D02*
X140317200Y-51659523D01*
X140317200Y-51659523D02*
X140269580Y-51611904D01*
X140269580Y-51611904D02*
X140174342Y-51564285D01*
X140174342Y-51564285D02*
X139983866Y-51564285D01*
X139983866Y-51564285D02*
X139888628Y-51611904D01*
X139888628Y-51611904D02*
X139841009Y-51659523D01*
X139841009Y-51659523D02*
X139793390Y-51754761D01*
X136909580Y-35826666D02*
X136957200Y-35874285D01*
X136957200Y-35874285D02*
X137004819Y-36017142D01*
X137004819Y-36017142D02*
X137004819Y-36112380D01*
X137004819Y-36112380D02*
X136957200Y-36255237D01*
X136957200Y-36255237D02*
X136861961Y-36350475D01*
X136861961Y-36350475D02*
X136766723Y-36398094D01*
X136766723Y-36398094D02*
X136576247Y-36445713D01*
X136576247Y-36445713D02*
X136433390Y-36445713D01*
X136433390Y-36445713D02*
X136242914Y-36398094D01*
X136242914Y-36398094D02*
X136147676Y-36350475D01*
X136147676Y-36350475D02*
X136052438Y-36255237D01*
X136052438Y-36255237D02*
X136004819Y-36112380D01*
X136004819Y-36112380D02*
X136004819Y-36017142D01*
X136004819Y-36017142D02*
X136052438Y-35874285D01*
X136052438Y-35874285D02*
X136100057Y-35826666D01*
X136004819Y-35493332D02*
X136004819Y-34874285D01*
X136004819Y-34874285D02*
X136385771Y-35207618D01*
X136385771Y-35207618D02*
X136385771Y-35064761D01*
X136385771Y-35064761D02*
X136433390Y-34969523D01*
X136433390Y-34969523D02*
X136481009Y-34921904D01*
X136481009Y-34921904D02*
X136576247Y-34874285D01*
X136576247Y-34874285D02*
X136814342Y-34874285D01*
X136814342Y-34874285D02*
X136909580Y-34921904D01*
X136909580Y-34921904D02*
X136957200Y-34969523D01*
X136957200Y-34969523D02*
X137004819Y-35064761D01*
X137004819Y-35064761D02*
X137004819Y-35350475D01*
X137004819Y-35350475D02*
X136957200Y-35445713D01*
X136957200Y-35445713D02*
X136909580Y-35493332D01*
X135159580Y-60217857D02*
X135207200Y-60265476D01*
X135207200Y-60265476D02*
X135254819Y-60408333D01*
X135254819Y-60408333D02*
X135254819Y-60503571D01*
X135254819Y-60503571D02*
X135207200Y-60646428D01*
X135207200Y-60646428D02*
X135111961Y-60741666D01*
X135111961Y-60741666D02*
X135016723Y-60789285D01*
X135016723Y-60789285D02*
X134826247Y-60836904D01*
X134826247Y-60836904D02*
X134683390Y-60836904D01*
X134683390Y-60836904D02*
X134492914Y-60789285D01*
X134492914Y-60789285D02*
X134397676Y-60741666D01*
X134397676Y-60741666D02*
X134302438Y-60646428D01*
X134302438Y-60646428D02*
X134254819Y-60503571D01*
X134254819Y-60503571D02*
X134254819Y-60408333D01*
X134254819Y-60408333D02*
X134302438Y-60265476D01*
X134302438Y-60265476D02*
X134350057Y-60217857D01*
X135254819Y-59265476D02*
X135254819Y-59836904D01*
X135254819Y-59551190D02*
X134254819Y-59551190D01*
X134254819Y-59551190D02*
X134397676Y-59646428D01*
X134397676Y-59646428D02*
X134492914Y-59741666D01*
X134492914Y-59741666D02*
X134540533Y-59836904D01*
X135254819Y-58313095D02*
X135254819Y-58884523D01*
X135254819Y-58598809D02*
X134254819Y-58598809D01*
X134254819Y-58598809D02*
X134397676Y-58694047D01*
X134397676Y-58694047D02*
X134492914Y-58789285D01*
X134492914Y-58789285D02*
X134540533Y-58884523D01*
X134033333Y-39909580D02*
X133985714Y-39957200D01*
X133985714Y-39957200D02*
X133842857Y-40004819D01*
X133842857Y-40004819D02*
X133747619Y-40004819D01*
X133747619Y-40004819D02*
X133604762Y-39957200D01*
X133604762Y-39957200D02*
X133509524Y-39861961D01*
X133509524Y-39861961D02*
X133461905Y-39766723D01*
X133461905Y-39766723D02*
X133414286Y-39576247D01*
X133414286Y-39576247D02*
X133414286Y-39433390D01*
X133414286Y-39433390D02*
X133461905Y-39242914D01*
X133461905Y-39242914D02*
X133509524Y-39147676D01*
X133509524Y-39147676D02*
X133604762Y-39052438D01*
X133604762Y-39052438D02*
X133747619Y-39004819D01*
X133747619Y-39004819D02*
X133842857Y-39004819D01*
X133842857Y-39004819D02*
X133985714Y-39052438D01*
X133985714Y-39052438D02*
X134033333Y-39100057D01*
X134414286Y-39100057D02*
X134461905Y-39052438D01*
X134461905Y-39052438D02*
X134557143Y-39004819D01*
X134557143Y-39004819D02*
X134795238Y-39004819D01*
X134795238Y-39004819D02*
X134890476Y-39052438D01*
X134890476Y-39052438D02*
X134938095Y-39100057D01*
X134938095Y-39100057D02*
X134985714Y-39195295D01*
X134985714Y-39195295D02*
X134985714Y-39290533D01*
X134985714Y-39290533D02*
X134938095Y-39433390D01*
X134938095Y-39433390D02*
X134366667Y-40004819D01*
X134366667Y-40004819D02*
X134985714Y-40004819D01*
X78542200Y-95734523D02*
X78589819Y-95591666D01*
X78589819Y-95591666D02*
X78589819Y-95353571D01*
X78589819Y-95353571D02*
X78542200Y-95258333D01*
X78542200Y-95258333D02*
X78494580Y-95210714D01*
X78494580Y-95210714D02*
X78399342Y-95163095D01*
X78399342Y-95163095D02*
X78304104Y-95163095D01*
X78304104Y-95163095D02*
X78208866Y-95210714D01*
X78208866Y-95210714D02*
X78161247Y-95258333D01*
X78161247Y-95258333D02*
X78113628Y-95353571D01*
X78113628Y-95353571D02*
X78066009Y-95544047D01*
X78066009Y-95544047D02*
X78018390Y-95639285D01*
X78018390Y-95639285D02*
X77970771Y-95686904D01*
X77970771Y-95686904D02*
X77875533Y-95734523D01*
X77875533Y-95734523D02*
X77780295Y-95734523D01*
X77780295Y-95734523D02*
X77685057Y-95686904D01*
X77685057Y-95686904D02*
X77637438Y-95639285D01*
X77637438Y-95639285D02*
X77589819Y-95544047D01*
X77589819Y-95544047D02*
X77589819Y-95305952D01*
X77589819Y-95305952D02*
X77637438Y-95163095D01*
X77589819Y-94829761D02*
X78589819Y-94591666D01*
X78589819Y-94591666D02*
X77875533Y-94401190D01*
X77875533Y-94401190D02*
X78589819Y-94210714D01*
X78589819Y-94210714D02*
X77589819Y-93972619D01*
X78589819Y-93067857D02*
X78589819Y-93639285D01*
X78589819Y-93353571D02*
X77589819Y-93353571D01*
X77589819Y-93353571D02*
X77732676Y-93448809D01*
X77732676Y-93448809D02*
X77827914Y-93544047D01*
X77827914Y-93544047D02*
X77875533Y-93639285D01*
X77589819Y-92448809D02*
X77589819Y-92353571D01*
X77589819Y-92353571D02*
X77637438Y-92258333D01*
X77637438Y-92258333D02*
X77685057Y-92210714D01*
X77685057Y-92210714D02*
X77780295Y-92163095D01*
X77780295Y-92163095D02*
X77970771Y-92115476D01*
X77970771Y-92115476D02*
X78208866Y-92115476D01*
X78208866Y-92115476D02*
X78399342Y-92163095D01*
X78399342Y-92163095D02*
X78494580Y-92210714D01*
X78494580Y-92210714D02*
X78542200Y-92258333D01*
X78542200Y-92258333D02*
X78589819Y-92353571D01*
X78589819Y-92353571D02*
X78589819Y-92448809D01*
X78589819Y-92448809D02*
X78542200Y-92544047D01*
X78542200Y-92544047D02*
X78494580Y-92591666D01*
X78494580Y-92591666D02*
X78399342Y-92639285D01*
X78399342Y-92639285D02*
X78208866Y-92686904D01*
X78208866Y-92686904D02*
X77970771Y-92686904D01*
X77970771Y-92686904D02*
X77780295Y-92639285D01*
X77780295Y-92639285D02*
X77685057Y-92591666D01*
X77685057Y-92591666D02*
X77637438Y-92544047D01*
X77637438Y-92544047D02*
X77589819Y-92448809D01*
X134954713Y-43512054D02*
X135764396Y-43512054D01*
X135764396Y-43512054D02*
X135859653Y-43464426D01*
X135859653Y-43464426D02*
X135907282Y-43416798D01*
X135907282Y-43416798D02*
X135954910Y-43321541D01*
X135954910Y-43321541D02*
X135954910Y-43131027D01*
X135954910Y-43131027D02*
X135907282Y-43035770D01*
X135907282Y-43035770D02*
X135859653Y-42988142D01*
X135859653Y-42988142D02*
X135764396Y-42940513D01*
X135764396Y-42940513D02*
X134954713Y-42940513D01*
X134954713Y-42559486D02*
X134954713Y-41940317D01*
X134954713Y-41940317D02*
X135335740Y-42273716D01*
X135335740Y-42273716D02*
X135335740Y-42130830D01*
X135335740Y-42130830D02*
X135383369Y-42035574D01*
X135383369Y-42035574D02*
X135430997Y-41987945D01*
X135430997Y-41987945D02*
X135526254Y-41940317D01*
X135526254Y-41940317D02*
X135764396Y-41940317D01*
X135764396Y-41940317D02*
X135859653Y-41987945D01*
X135859653Y-41987945D02*
X135907282Y-42035574D01*
X135907282Y-42035574D02*
X135954910Y-42130830D01*
X135954910Y-42130830D02*
X135954910Y-42416601D01*
X135954910Y-42416601D02*
X135907282Y-42511858D01*
X135907282Y-42511858D02*
X135859653Y-42559486D01*
X140259580Y-44366666D02*
X140307200Y-44414285D01*
X140307200Y-44414285D02*
X140354819Y-44557142D01*
X140354819Y-44557142D02*
X140354819Y-44652380D01*
X140354819Y-44652380D02*
X140307200Y-44795237D01*
X140307200Y-44795237D02*
X140211961Y-44890475D01*
X140211961Y-44890475D02*
X140116723Y-44938094D01*
X140116723Y-44938094D02*
X139926247Y-44985713D01*
X139926247Y-44985713D02*
X139783390Y-44985713D01*
X139783390Y-44985713D02*
X139592914Y-44938094D01*
X139592914Y-44938094D02*
X139497676Y-44890475D01*
X139497676Y-44890475D02*
X139402438Y-44795237D01*
X139402438Y-44795237D02*
X139354819Y-44652380D01*
X139354819Y-44652380D02*
X139354819Y-44557142D01*
X139354819Y-44557142D02*
X139402438Y-44414285D01*
X139402438Y-44414285D02*
X139450057Y-44366666D01*
X140354819Y-43890475D02*
X140354819Y-43699999D01*
X140354819Y-43699999D02*
X140307200Y-43604761D01*
X140307200Y-43604761D02*
X140259580Y-43557142D01*
X140259580Y-43557142D02*
X140116723Y-43461904D01*
X140116723Y-43461904D02*
X139926247Y-43414285D01*
X139926247Y-43414285D02*
X139545295Y-43414285D01*
X139545295Y-43414285D02*
X139450057Y-43461904D01*
X139450057Y-43461904D02*
X139402438Y-43509523D01*
X139402438Y-43509523D02*
X139354819Y-43604761D01*
X139354819Y-43604761D02*
X139354819Y-43795237D01*
X139354819Y-43795237D02*
X139402438Y-43890475D01*
X139402438Y-43890475D02*
X139450057Y-43938094D01*
X139450057Y-43938094D02*
X139545295Y-43985713D01*
X139545295Y-43985713D02*
X139783390Y-43985713D01*
X139783390Y-43985713D02*
X139878628Y-43938094D01*
X139878628Y-43938094D02*
X139926247Y-43890475D01*
X139926247Y-43890475D02*
X139973866Y-43795237D01*
X139973866Y-43795237D02*
X139973866Y-43604761D01*
X139973866Y-43604761D02*
X139926247Y-43509523D01*
X139926247Y-43509523D02*
X139878628Y-43461904D01*
X139878628Y-43461904D02*
X139783390Y-43414285D01*
X80633333Y-94759580D02*
X80585714Y-94807200D01*
X80585714Y-94807200D02*
X80442857Y-94854819D01*
X80442857Y-94854819D02*
X80347619Y-94854819D01*
X80347619Y-94854819D02*
X80204762Y-94807200D01*
X80204762Y-94807200D02*
X80109524Y-94711961D01*
X80109524Y-94711961D02*
X80061905Y-94616723D01*
X80061905Y-94616723D02*
X80014286Y-94426247D01*
X80014286Y-94426247D02*
X80014286Y-94283390D01*
X80014286Y-94283390D02*
X80061905Y-94092914D01*
X80061905Y-94092914D02*
X80109524Y-93997676D01*
X80109524Y-93997676D02*
X80204762Y-93902438D01*
X80204762Y-93902438D02*
X80347619Y-93854819D01*
X80347619Y-93854819D02*
X80442857Y-93854819D01*
X80442857Y-93854819D02*
X80585714Y-93902438D01*
X80585714Y-93902438D02*
X80633333Y-93950057D01*
X81585714Y-94854819D02*
X81014286Y-94854819D01*
X81300000Y-94854819D02*
X81300000Y-93854819D01*
X81300000Y-93854819D02*
X81204762Y-93997676D01*
X81204762Y-93997676D02*
X81109524Y-94092914D01*
X81109524Y-94092914D02*
X81014286Y-94140533D01*
X108099819Y-110143333D02*
X108814104Y-110143333D01*
X108814104Y-110143333D02*
X108956961Y-110190952D01*
X108956961Y-110190952D02*
X109052200Y-110286190D01*
X109052200Y-110286190D02*
X109099819Y-110429047D01*
X109099819Y-110429047D02*
X109099819Y-110524285D01*
X108433152Y-109238571D02*
X109099819Y-109238571D01*
X108052200Y-109476666D02*
X108766485Y-109714761D01*
X108766485Y-109714761D02*
X108766485Y-109095714D01*
X121282142Y-58184580D02*
X121234523Y-58232200D01*
X121234523Y-58232200D02*
X121091666Y-58279819D01*
X121091666Y-58279819D02*
X120996428Y-58279819D01*
X120996428Y-58279819D02*
X120853571Y-58232200D01*
X120853571Y-58232200D02*
X120758333Y-58136961D01*
X120758333Y-58136961D02*
X120710714Y-58041723D01*
X120710714Y-58041723D02*
X120663095Y-57851247D01*
X120663095Y-57851247D02*
X120663095Y-57708390D01*
X120663095Y-57708390D02*
X120710714Y-57517914D01*
X120710714Y-57517914D02*
X120758333Y-57422676D01*
X120758333Y-57422676D02*
X120853571Y-57327438D01*
X120853571Y-57327438D02*
X120996428Y-57279819D01*
X120996428Y-57279819D02*
X121091666Y-57279819D01*
X121091666Y-57279819D02*
X121234523Y-57327438D01*
X121234523Y-57327438D02*
X121282142Y-57375057D01*
X122234523Y-58279819D02*
X121663095Y-58279819D01*
X121948809Y-58279819D02*
X121948809Y-57279819D01*
X121948809Y-57279819D02*
X121853571Y-57422676D01*
X121853571Y-57422676D02*
X121758333Y-57517914D01*
X121758333Y-57517914D02*
X121663095Y-57565533D01*
X122567857Y-57279819D02*
X123186904Y-57279819D01*
X123186904Y-57279819D02*
X122853571Y-57660771D01*
X122853571Y-57660771D02*
X122996428Y-57660771D01*
X122996428Y-57660771D02*
X123091666Y-57708390D01*
X123091666Y-57708390D02*
X123139285Y-57756009D01*
X123139285Y-57756009D02*
X123186904Y-57851247D01*
X123186904Y-57851247D02*
X123186904Y-58089342D01*
X123186904Y-58089342D02*
X123139285Y-58184580D01*
X123139285Y-58184580D02*
X123091666Y-58232200D01*
X123091666Y-58232200D02*
X122996428Y-58279819D01*
X122996428Y-58279819D02*
X122710714Y-58279819D01*
X122710714Y-58279819D02*
X122615476Y-58232200D01*
X122615476Y-58232200D02*
X122567857Y-58184580D01*
X80320000Y-59170000D02*
X80320000Y-58170000D01*
X80320000Y-72170000D02*
X80320000Y-71170000D01*
X80320000Y-72170000D02*
X81320000Y-72170000D01*
X81320000Y-58170000D02*
X80320000Y-58170000D01*
X93320000Y-72170000D02*
X94320000Y-72170000D01*
X94320000Y-58170000D02*
X93320000Y-58170000D01*
X94320000Y-58170000D02*
X94320000Y-59170000D01*
X94320000Y-71170000D02*
X94320000Y-72170000D01*
X106920000Y-70520000D02*
X106920000Y-69520000D01*
X106920000Y-83520000D02*
X106920000Y-82520000D01*
X106920000Y-83520000D02*
X107920000Y-83520000D01*
X107920000Y-69520000D02*
X106920000Y-69520000D01*
X119920000Y-83520000D02*
X120920000Y-83520000D01*
X120920000Y-69520000D02*
X119920000Y-69520000D01*
X120920000Y-69520000D02*
X120920000Y-70520000D01*
X120920000Y-82520000D02*
X120920000Y-83520000D01*
X124420000Y-123620000D02*
X124420000Y-122620000D01*
X124420000Y-136620000D02*
X124420000Y-135620000D01*
X124420000Y-136620000D02*
X125420000Y-136620000D01*
X125420000Y-122620000D02*
X124420000Y-122620000D01*
X137420000Y-136620000D02*
X138420000Y-136620000D01*
X138420000Y-122620000D02*
X137420000Y-122620000D01*
X138420000Y-122620000D02*
X138420000Y-123620000D01*
X138420000Y-135620000D02*
X138420000Y-136620000D01*
X141860000Y-59110000D02*
X141860000Y-58110000D01*
X141860000Y-72110000D02*
X141860000Y-71110000D01*
X141860000Y-72110000D02*
X142860000Y-72110000D01*
X142860000Y-58110000D02*
X141860000Y-58110000D01*
X154860000Y-72110000D02*
X155860000Y-72110000D01*
X155860000Y-58110000D02*
X154860000Y-58110000D01*
X155860000Y-58110000D02*
X155860000Y-59110000D01*
X155860000Y-71110000D02*
X155860000Y-72110000D01*
X168420000Y-47580000D02*
X168420000Y-46580000D01*
X168420000Y-60580000D02*
X168420000Y-59580000D01*
X168420000Y-60580000D02*
X169420000Y-60580000D01*
X169420000Y-46580000D02*
X168420000Y-46580000D01*
X181420000Y-60580000D02*
X182420000Y-60580000D01*
X182420000Y-46580000D02*
X181420000Y-46580000D01*
X182420000Y-46580000D02*
X182420000Y-47580000D01*
X182420000Y-59580000D02*
X182420000Y-60580000D01*
X197390000Y-47460000D02*
X197390000Y-46460000D01*
X197390000Y-60460000D02*
X197390000Y-59460000D01*
X197390000Y-60460000D02*
X198390000Y-60460000D01*
X198390000Y-46460000D02*
X197390000Y-46460000D01*
X210390000Y-60460000D02*
X211390000Y-60460000D01*
X211390000Y-46460000D02*
X210390000Y-46460000D01*
X211390000Y-46460000D02*
X211390000Y-47460000D01*
X211390000Y-59460000D02*
X211390000Y-60460000D01*
X226360000Y-47700000D02*
X226360000Y-46700000D01*
X226360000Y-60700000D02*
X226360000Y-59700000D01*
X226360000Y-60700000D02*
X227360000Y-60700000D01*
X227360000Y-46700000D02*
X226360000Y-46700000D01*
X239360000Y-60700000D02*
X240360000Y-60700000D01*
X240360000Y-46700000D02*
X239360000Y-46700000D01*
X240360000Y-46700000D02*
X240360000Y-47700000D01*
X240360000Y-59700000D02*
X240360000Y-60700000D01*
X136250000Y-90150000D02*
X136250000Y-89150000D01*
X136250000Y-103150000D02*
X136250000Y-102150000D01*
X136250000Y-103150000D02*
X137250000Y-103150000D01*
X137250000Y-89150000D02*
X136250000Y-89150000D01*
X149250000Y-103150000D02*
X150250000Y-103150000D01*
X150250000Y-89150000D02*
X149250000Y-89150000D01*
X150250000Y-89150000D02*
X150250000Y-90150000D01*
X150250000Y-102150000D02*
X150250000Y-103150000D01*
X162860000Y-79040000D02*
X162860000Y-78040000D01*
X162860000Y-92040000D02*
X162860000Y-91040000D01*
X162860000Y-92040000D02*
X163860000Y-92040000D01*
X163860000Y-78040000D02*
X162860000Y-78040000D01*
X175860000Y-92040000D02*
X176860000Y-92040000D01*
X176860000Y-78040000D02*
X175860000Y-78040000D01*
X176860000Y-78040000D02*
X176860000Y-79040000D01*
X176860000Y-91040000D02*
X176860000Y-92040000D01*
X191710000Y-79040000D02*
X191710000Y-78040000D01*
X191710000Y-92040000D02*
X191710000Y-91040000D01*
X191710000Y-92040000D02*
X192710000Y-92040000D01*
X192710000Y-78040000D02*
X191710000Y-78040000D01*
X204710000Y-92040000D02*
X205710000Y-92040000D01*
X205710000Y-78040000D02*
X204710000Y-78040000D01*
X205710000Y-78040000D02*
X205710000Y-79040000D01*
X205710000Y-91040000D02*
X205710000Y-92040000D01*
X220920000Y-79040000D02*
X220920000Y-78040000D01*
X220920000Y-92040000D02*
X220920000Y-91040000D01*
X220920000Y-92040000D02*
X221920000Y-92040000D01*
X221920000Y-78040000D02*
X220920000Y-78040000D01*
X233920000Y-92040000D02*
X234920000Y-92040000D01*
X234920000Y-78040000D02*
X233920000Y-78040000D01*
X234920000Y-78040000D02*
X234920000Y-79040000D01*
X234920000Y-91040000D02*
X234920000Y-92040000D01*
X51225000Y-59050000D02*
X51225000Y-58050000D01*
X51225000Y-72050000D02*
X51225000Y-71050000D01*
X51225000Y-72050000D02*
X52225000Y-72050000D01*
X52225000Y-58050000D02*
X51225000Y-58050000D01*
X64225000Y-72050000D02*
X65225000Y-72050000D01*
X65225000Y-58050000D02*
X64225000Y-58050000D01*
X65225000Y-58050000D02*
X65225000Y-59050000D01*
X65225000Y-71050000D02*
X65225000Y-72050000D01*
D14*
X87500000Y-37500000D02*
X87500000Y-42000000D01*
X90000000Y-43250000D02*
X91500000Y-43250000D01*
X91500000Y-36250000D02*
X90000000Y-36250000D01*
X94000000Y-42000000D02*
X94000000Y-37500000D01*
X64500000Y-37500000D02*
X64500000Y-42000000D01*
X67000000Y-43250000D02*
X68500000Y-43250000D01*
X68500000Y-36250000D02*
X67000000Y-36250000D01*
X71000000Y-42000000D02*
X71000000Y-37500000D01*
X97500000Y-37500000D02*
X97500000Y-42000000D01*
X100000000Y-43250000D02*
X101500000Y-43250000D01*
X101500000Y-36250000D02*
X100000000Y-36250000D01*
X104000000Y-42000000D02*
X104000000Y-37500000D01*
X54500000Y-37500000D02*
X54500000Y-42000000D01*
X57000000Y-43250000D02*
X58500000Y-43250000D01*
X58500000Y-36250000D02*
X57000000Y-36250000D01*
X61000000Y-42000000D02*
X61000000Y-37500000D01*
X74500000Y-37500000D02*
X74500000Y-42000000D01*
X77000000Y-43250000D02*
X78500000Y-43250000D01*
X78500000Y-36250000D02*
X77000000Y-36250000D01*
X81000000Y-42000000D02*
X81000000Y-37500000D01*
X107500000Y-37500000D02*
X107500000Y-42000000D01*
X110000000Y-43250000D02*
X111500000Y-43250000D01*
X111500000Y-36250000D02*
X110000000Y-36250000D01*
X114000000Y-42000000D02*
X114000000Y-37500000D01*
X121800000Y-52007836D02*
X121800000Y-51792164D01*
X122900000Y-52007836D02*
X122900000Y-51792164D01*
D15*
X125791000Y-31181000D02*
X126990000Y-31181000D01*
X126190000Y-31579500D02*
X126591000Y-31579500D01*
X126240500Y-34780000D02*
X125791000Y-31181000D01*
X126390500Y-33180000D02*
X126190000Y-31579500D01*
X126540500Y-34780000D02*
X126240500Y-34780000D01*
D16*
X126550000Y-37725000D02*
X125500000Y-37725000D01*
D15*
X126591000Y-31579500D02*
X126390500Y-33180000D01*
X126990000Y-31181000D02*
X126540500Y-34780000D01*
X128163500Y-31257000D02*
X128544500Y-31257000D01*
X128163500Y-36050000D02*
X128163500Y-31257000D01*
X128544500Y-31257000D02*
X128544500Y-33256000D01*
X128544500Y-33256000D02*
X128747500Y-35669000D01*
X128747500Y-35669000D02*
X129154000Y-35669000D01*
X129154000Y-35669000D02*
X129357000Y-33256000D01*
X129357000Y-31257000D02*
X129690000Y-31257000D01*
X129357000Y-33256000D02*
X129357000Y-31257000D01*
X129662000Y-36050000D02*
X128163500Y-36050000D01*
X129690000Y-31257000D02*
X129690000Y-36050000D01*
X129690000Y-36050000D02*
X129662000Y-36050000D01*
X130787500Y-31079500D02*
X131986000Y-31079500D01*
X131186000Y-31478000D02*
X131587500Y-31478000D01*
X131237000Y-34678500D02*
X130787500Y-31079500D01*
D16*
X131250000Y-37725000D02*
X132300000Y-37725000D01*
D15*
X131386500Y-33078500D02*
X131186000Y-31478000D01*
X131536500Y-34678500D02*
X131237000Y-34678500D01*
X131587500Y-31478000D02*
X131386500Y-33078500D01*
X131986000Y-31079500D02*
X131536500Y-34678500D01*
D17*
X201185600Y-121337900D02*
X228240600Y-121312500D01*
X201185600Y-148961700D02*
X201185600Y-121337900D01*
X228240600Y-121312500D02*
X228240600Y-148936300D01*
D11*
X210900000Y-120812500D02*
G75*
G02*
X210700000Y-120812500I-100000J0D01*
G01*
X210700000Y-120812500D02*
G75*
G02*
X210900000Y-120812500I100000J0D01*
G01*
D14*
X124200000Y-61950000D02*
X130050000Y-61950000D01*
X130050000Y-58350000D02*
X124200000Y-58350000D01*
X130050000Y-61950000D02*
X130050000Y-58350000D01*
X89265000Y-95500000D02*
X89265000Y-97785000D01*
X89265000Y-97785000D02*
X90735000Y-97785000D01*
X90735000Y-97785000D02*
X90735000Y-95500000D01*
D17*
X140380000Y-36500000D02*
X140620000Y-36500000D01*
X140620000Y-39500000D02*
X140380000Y-39500000D01*
X141250000Y-37660000D02*
X141250000Y-38340000D01*
D11*
X138100000Y-37050000D02*
G75*
G02*
X137900000Y-37050000I-100000J0D01*
G01*
X137900000Y-37050000D02*
G75*
G02*
X138100000Y-37050000I100000J0D01*
G01*
D14*
X133950000Y-56659420D02*
X133950000Y-56940580D01*
X135150000Y-56659420D02*
X135150000Y-56940580D01*
X89450000Y-92978641D02*
X89450000Y-92671359D01*
X90550000Y-92978641D02*
X90550000Y-92671359D01*
X128007836Y-57000000D02*
X127792164Y-57000000D01*
X128007836Y-58100000D02*
X127792164Y-58100000D01*
D16*
X62371000Y-93900000D02*
X62371000Y-93200000D01*
X63350000Y-94972000D02*
X68250000Y-94972000D01*
X65900000Y-92178000D02*
X64300000Y-92178000D01*
X67400000Y-92200000D02*
X67250000Y-92200000D01*
X69229000Y-93950000D02*
X69229000Y-93300000D01*
D14*
X126392164Y-40150000D02*
X126607836Y-40150000D01*
X126392164Y-41250000D02*
X126607836Y-41250000D01*
X84450000Y-92671359D02*
X84450000Y-92978641D01*
X85550000Y-92671359D02*
X85550000Y-92978641D01*
X132757836Y-40550000D02*
X132542164Y-40550000D01*
X132757836Y-41650000D02*
X132542164Y-41650000D01*
X138309420Y-45650000D02*
X138590580Y-45650000D01*
X138309420Y-46850000D02*
X138590580Y-46850000D01*
X198455000Y-102780000D02*
X199725000Y-102780000D01*
X198455000Y-104050000D02*
X198455000Y-102780000D01*
X200767929Y-106210000D02*
X201165000Y-106210000D01*
X200767929Y-106970000D02*
X201165000Y-106970000D01*
X200767929Y-108750000D02*
X201165000Y-108750000D01*
X200767929Y-109510000D02*
X201165000Y-109510000D01*
X200767929Y-111290000D02*
X201165000Y-111290000D01*
X200767929Y-112050000D02*
X201165000Y-112050000D01*
X200767929Y-113830000D02*
X201165000Y-113830000D01*
X200767929Y-114590000D02*
X201165000Y-114590000D01*
X200767929Y-116370000D02*
X201165000Y-116370000D01*
X200767929Y-117130000D02*
X201165000Y-117130000D01*
X200835000Y-103670000D02*
X201165000Y-103670000D01*
X200835000Y-104430000D02*
X201165000Y-104430000D01*
X201165000Y-102720000D02*
X201165000Y-118080000D01*
X201165000Y-105320000D02*
X203825000Y-105320000D01*
X201165000Y-107860000D02*
X203825000Y-107860000D01*
X201165000Y-110400000D02*
X203825000Y-110400000D01*
X201165000Y-112940000D02*
X203825000Y-112940000D01*
X201165000Y-115480000D02*
X203825000Y-115480000D01*
X201165000Y-118080000D02*
X203825000Y-118080000D01*
X203825000Y-102720000D02*
X201165000Y-102720000D01*
X203825000Y-103670000D02*
X209825000Y-103670000D01*
X203825000Y-103730000D02*
X209825000Y-103730000D01*
X203825000Y-103850000D02*
X209825000Y-103850000D01*
X203825000Y-103970000D02*
X209825000Y-103970000D01*
X203825000Y-104090000D02*
X209825000Y-104090000D01*
X203825000Y-104210000D02*
X209825000Y-104210000D01*
X203825000Y-104330000D02*
X209825000Y-104330000D01*
X203825000Y-106210000D02*
X209825000Y-106210000D01*
X203825000Y-108750000D02*
X209825000Y-108750000D01*
X203825000Y-111290000D02*
X209825000Y-111290000D01*
X203825000Y-113830000D02*
X209825000Y-113830000D01*
X203825000Y-116370000D02*
X209825000Y-116370000D01*
X203825000Y-118080000D02*
X203825000Y-102720000D01*
X209825000Y-103670000D02*
X209825000Y-104430000D01*
X209825000Y-104430000D02*
X203825000Y-104430000D01*
X209825000Y-106210000D02*
X209825000Y-106970000D01*
X209825000Y-106970000D02*
X203825000Y-106970000D01*
X209825000Y-108750000D02*
X209825000Y-109510000D01*
X209825000Y-109510000D02*
X203825000Y-109510000D01*
X209825000Y-111290000D02*
X209825000Y-112050000D01*
X209825000Y-112050000D02*
X203825000Y-112050000D01*
X209825000Y-113830000D02*
X209825000Y-114590000D01*
X209825000Y-114590000D02*
X203825000Y-114590000D01*
X209825000Y-116370000D02*
X209825000Y-117130000D01*
X209825000Y-117130000D02*
X203825000Y-117130000D01*
X65950000Y-89046359D02*
X65950000Y-89353641D01*
X67050000Y-89046359D02*
X67050000Y-89353641D01*
X120300000Y-52590580D02*
X120300000Y-52309420D01*
X121500000Y-52590580D02*
X121500000Y-52309420D01*
X80753641Y-91150000D02*
X80446359Y-91150000D01*
X80753641Y-92250000D02*
X80446359Y-92250000D01*
X84265000Y-95500000D02*
X84265000Y-97785000D01*
X84265000Y-97785000D02*
X85735000Y-97785000D01*
X85735000Y-97785000D02*
X85735000Y-95500000D01*
X141040580Y-34700000D02*
X140759420Y-34700000D01*
X141040580Y-35900000D02*
X140759420Y-35900000D01*
X125062836Y-55250000D02*
X124847164Y-55250000D01*
X125062836Y-56350000D02*
X124847164Y-56350000D01*
X138200000Y-52242164D02*
X138200000Y-52457836D01*
X139300000Y-52242164D02*
X139300000Y-52457836D01*
X135900000Y-38609420D02*
X135900000Y-38890580D01*
X137100000Y-38609420D02*
X137100000Y-38890580D01*
X132600000Y-56142164D02*
X132600000Y-56357836D01*
X133700000Y-56142164D02*
X133700000Y-56357836D01*
X134999420Y-40420000D02*
X135280580Y-40420000D01*
X134999420Y-41620000D02*
X135280580Y-41620000D01*
D17*
X71950000Y-97000000D02*
X71950000Y-92500000D01*
X73320000Y-97300000D02*
X75680000Y-97300000D01*
X75680000Y-92200000D02*
X73320000Y-92200000D01*
X77050000Y-97000000D02*
X77050000Y-92500000D01*
D11*
X76475000Y-90500000D02*
G75*
G02*
X76275000Y-90500000I-100000J0D01*
G01*
X76275000Y-90500000D02*
G75*
G02*
X76475000Y-90500000I100000J0D01*
G01*
D17*
X125400000Y-43900000D02*
X134600000Y-43900000D01*
X125400000Y-53100000D02*
X125400000Y-43900000D01*
X134600000Y-43900000D02*
X134600000Y-53100000D01*
X134600000Y-53100000D02*
X125400000Y-53100000D01*
X125682841Y-54300000D02*
G75*
G02*
X125117159Y-54300000I-282841J0D01*
G01*
X125117159Y-54300000D02*
G75*
G02*
X125682841Y-54300000I282841J0D01*
G01*
X125623606Y-54300000D02*
G75*
G02*
X125176394Y-54300000I-223606J0D01*
G01*
X125176394Y-54300000D02*
G75*
G02*
X125623606Y-54300000I223606J0D01*
G01*
X125541419Y-54300000D02*
G75*
G02*
X125258581Y-54300000I-141419J0D01*
G01*
X125258581Y-54300000D02*
G75*
G02*
X125541419Y-54300000I141419J0D01*
G01*
X125541419Y-54300000D02*
G75*
G02*
X125258581Y-54300000I-141419J0D01*
G01*
X125258581Y-54300000D02*
G75*
G02*
X125541419Y-54300000I141419J0D01*
G01*
X125500000Y-54300000D02*
G75*
G02*
X125300000Y-54300000I-100000J0D01*
G01*
X125300000Y-54300000D02*
G75*
G02*
X125500000Y-54300000I100000J0D01*
G01*
X125500000Y-54400000D02*
G75*
G02*
X125300000Y-54400000I-100000J0D01*
G01*
X125300000Y-54400000D02*
G75*
G02*
X125500000Y-54400000I100000J0D01*
G01*
X127383094Y-51800000D02*
G75*
G02*
X126216906Y-51800000I-583094J0D01*
G01*
X126216906Y-51800000D02*
G75*
G02*
X127383094Y-51800000I583094J0D01*
G01*
X127365684Y-51800000D02*
G75*
G02*
X126234316Y-51800000I-565684J0D01*
G01*
X126234316Y-51800000D02*
G75*
G02*
X127365684Y-51800000I565684J0D01*
G01*
X127300000Y-51800000D02*
G75*
G02*
X126300000Y-51800000I-500000J0D01*
G01*
X126300000Y-51800000D02*
G75*
G02*
X127300000Y-51800000I500000J0D01*
G01*
X127224262Y-51800000D02*
G75*
G02*
X126375738Y-51800000I-424262J0D01*
G01*
X126375738Y-51800000D02*
G75*
G02*
X127224262Y-51800000I424262J0D01*
G01*
X127160553Y-51800000D02*
G75*
G02*
X126439447Y-51800000I-360553J0D01*
G01*
X126439447Y-51800000D02*
G75*
G02*
X127160553Y-51800000I360553J0D01*
G01*
X127082841Y-51800000D02*
G75*
G02*
X126517159Y-51800000I-282841J0D01*
G01*
X126517159Y-51800000D02*
G75*
G02*
X127082841Y-51800000I282841J0D01*
G01*
X127023606Y-51800000D02*
G75*
G02*
X126576394Y-51800000I-223606J0D01*
G01*
X126576394Y-51800000D02*
G75*
G02*
X127023606Y-51800000I223606J0D01*
G01*
X126941419Y-51800000D02*
G75*
G02*
X126658581Y-51800000I-141419J0D01*
G01*
X126658581Y-51800000D02*
G75*
G02*
X126941419Y-51800000I141419J0D01*
G01*
X126900000Y-51900000D02*
G75*
G02*
X126700000Y-51900000I-100000J0D01*
G01*
X126700000Y-51900000D02*
G75*
G02*
X126900000Y-51900000I100000J0D01*
G01*
D14*
X136950000Y-43742164D02*
X136950000Y-43957836D01*
X138050000Y-43742164D02*
X138050000Y-43957836D01*
X80492164Y-92450000D02*
X80707836Y-92450000D01*
X80492164Y-93550000D02*
X80707836Y-93550000D01*
X94885000Y-106865000D02*
X94885000Y-109525000D01*
X94885000Y-109525000D02*
X107705000Y-109525000D01*
X95835000Y-106467929D02*
X95835000Y-106865000D01*
X95835000Y-115525000D02*
X95835000Y-109525000D01*
X96595000Y-106467929D02*
X96595000Y-106865000D01*
X96595000Y-109525000D02*
X96595000Y-115525000D01*
X96595000Y-115525000D02*
X95835000Y-115525000D01*
X97485000Y-106865000D02*
X97485000Y-109525000D01*
X98375000Y-106467929D02*
X98375000Y-106865000D01*
X98375000Y-115525000D02*
X98375000Y-109525000D01*
X99135000Y-106467929D02*
X99135000Y-106865000D01*
X99135000Y-109525000D02*
X99135000Y-115525000D01*
X99135000Y-115525000D02*
X98375000Y-115525000D01*
X100025000Y-106865000D02*
X100025000Y-109525000D01*
X100915000Y-106467929D02*
X100915000Y-106865000D01*
X100915000Y-115525000D02*
X100915000Y-109525000D01*
X101675000Y-106467929D02*
X101675000Y-106865000D01*
X101675000Y-109525000D02*
X101675000Y-115525000D01*
X101675000Y-115525000D02*
X100915000Y-115525000D01*
X102565000Y-106865000D02*
X102565000Y-109525000D01*
X103455000Y-106467929D02*
X103455000Y-106865000D01*
X103455000Y-115525000D02*
X103455000Y-109525000D01*
X104215000Y-106467929D02*
X104215000Y-106865000D01*
X104215000Y-109525000D02*
X104215000Y-115525000D01*
X104215000Y-115525000D02*
X103455000Y-115525000D01*
X105105000Y-106865000D02*
X105105000Y-109525000D01*
X105995000Y-106535000D02*
X105995000Y-106865000D01*
X105995000Y-115525000D02*
X105995000Y-109525000D01*
X106095000Y-109525000D02*
X106095000Y-115525000D01*
X106215000Y-109525000D02*
X106215000Y-115525000D01*
X106335000Y-109525000D02*
X106335000Y-115525000D01*
X106375000Y-104155000D02*
X107645000Y-104155000D01*
X106455000Y-109525000D02*
X106455000Y-115525000D01*
X106575000Y-109525000D02*
X106575000Y-115525000D01*
X106695000Y-109525000D02*
X106695000Y-115525000D01*
X106755000Y-106535000D02*
X106755000Y-106865000D01*
X106755000Y-109525000D02*
X106755000Y-115525000D01*
X106755000Y-115525000D02*
X105995000Y-115525000D01*
X107645000Y-104155000D02*
X107645000Y-105425000D01*
X107705000Y-106865000D02*
X94885000Y-106865000D01*
X107705000Y-109525000D02*
X107705000Y-106865000D01*
X125307836Y-57050000D02*
X125092164Y-57050000D01*
X125307836Y-58150000D02*
X125092164Y-58150000D01*
%LPC*%
D18*
X81820000Y-65170000D03*
D19*
X87320000Y-59220000D03*
D20*
X87320000Y-65170000D03*
D19*
X92320000Y-61420000D03*
D18*
X92820000Y-65170000D03*
D21*
X87320000Y-71070000D03*
X82320000Y-68970000D03*
D18*
X108420000Y-76520000D03*
D19*
X113920000Y-70570000D03*
D20*
X113920000Y-76520000D03*
D19*
X118920000Y-72770000D03*
D18*
X119420000Y-76520000D03*
D21*
X113920000Y-82420000D03*
X108920000Y-80320000D03*
D18*
X125920000Y-129620000D03*
D19*
X131420000Y-123670000D03*
D20*
X131420000Y-129620000D03*
D19*
X136420000Y-125870000D03*
D18*
X136920000Y-129620000D03*
D21*
X131420000Y-135520000D03*
X126420000Y-133420000D03*
D18*
X143360000Y-65110000D03*
D19*
X148860000Y-59160000D03*
D20*
X148860000Y-65110000D03*
D19*
X153860000Y-61360000D03*
D18*
X154360000Y-65110000D03*
D21*
X148860000Y-71010000D03*
X143860000Y-68910000D03*
D18*
X169920000Y-53580000D03*
D19*
X175420000Y-47630000D03*
D20*
X175420000Y-53580000D03*
D19*
X180420000Y-49830000D03*
D18*
X180920000Y-53580000D03*
D21*
X175420000Y-59480000D03*
X170420000Y-57380000D03*
D18*
X198890000Y-53460000D03*
D19*
X204390000Y-47510000D03*
D20*
X204390000Y-53460000D03*
D19*
X209390000Y-49710000D03*
D18*
X209890000Y-53460000D03*
D21*
X204390000Y-59360000D03*
X199390000Y-57260000D03*
D18*
X227860000Y-53700000D03*
D19*
X233360000Y-47750000D03*
D20*
X233360000Y-53700000D03*
D19*
X238360000Y-49950000D03*
D18*
X238860000Y-53700000D03*
D21*
X233360000Y-59600000D03*
X228360000Y-57500000D03*
D18*
X137750000Y-96150000D03*
D19*
X143250000Y-90200000D03*
D20*
X143250000Y-96150000D03*
D19*
X148250000Y-92400000D03*
D18*
X148750000Y-96150000D03*
D21*
X143250000Y-102050000D03*
X138250000Y-99950000D03*
D18*
X164360000Y-85040000D03*
D19*
X169860000Y-79090000D03*
D20*
X169860000Y-85040000D03*
D19*
X174860000Y-81290000D03*
D18*
X175360000Y-85040000D03*
D21*
X169860000Y-90940000D03*
X164860000Y-88840000D03*
D18*
X193210000Y-85040000D03*
D19*
X198710000Y-79090000D03*
D20*
X198710000Y-85040000D03*
D19*
X203710000Y-81290000D03*
D18*
X204210000Y-85040000D03*
D21*
X198710000Y-90940000D03*
X193710000Y-88840000D03*
D18*
X222420000Y-85040000D03*
D19*
X227920000Y-79090000D03*
D20*
X227920000Y-85040000D03*
D19*
X232920000Y-81290000D03*
D18*
X233420000Y-85040000D03*
D21*
X227920000Y-90940000D03*
X222920000Y-88840000D03*
D22*
X47000000Y-37000000D03*
X47000000Y-143000000D03*
X243000000Y-143000000D03*
X243000000Y-37000000D03*
D18*
X52725000Y-65050000D03*
D19*
X58225000Y-59100000D03*
D20*
X58225000Y-65050000D03*
D19*
X63225000Y-61300000D03*
D18*
X63725000Y-65050000D03*
D21*
X58225000Y-70950000D03*
X53225000Y-68850000D03*
D22*
X150000000Y-37000000D03*
D23*
X88500000Y-43000000D03*
X88500000Y-36500000D03*
X93000000Y-43000000D03*
X93000000Y-36500000D03*
X65500000Y-43000000D03*
X65500000Y-36500000D03*
X70000000Y-43000000D03*
X70000000Y-36500000D03*
X98500000Y-43000000D03*
X98500000Y-36500000D03*
X103000000Y-43000000D03*
X103000000Y-36500000D03*
X55500000Y-43000000D03*
X55500000Y-36500000D03*
X60000000Y-43000000D03*
X60000000Y-36500000D03*
X75500000Y-43000000D03*
X75500000Y-36500000D03*
X80000000Y-43000000D03*
X80000000Y-36500000D03*
X108500000Y-43000000D03*
X108500000Y-36500000D03*
X113000000Y-43000000D03*
X113000000Y-36500000D03*
D22*
X133500000Y-78000000D03*
X150000000Y-143000000D03*
D24*
X122350000Y-52380000D03*
X122350000Y-51420000D03*
D25*
X130500000Y-37525000D03*
X129700000Y-37525000D03*
X128900000Y-37525000D03*
X128100000Y-37525000D03*
X127300000Y-37525000D03*
D26*
X124000000Y-37025000D03*
D27*
X124000000Y-32775000D03*
D26*
X133800000Y-37025000D03*
D27*
X133800000Y-32775000D03*
D28*
X42720000Y-45350000D03*
D29*
X210990000Y-122812500D03*
D30*
X213530000Y-122812500D03*
X216070000Y-122812500D03*
X218610000Y-122812500D03*
D31*
X203150000Y-123312500D03*
X226450000Y-123312500D03*
X226450000Y-147012500D03*
X203150000Y-147012500D03*
D32*
X128750000Y-60150000D03*
X125050000Y-60150000D03*
D33*
X90000000Y-97087500D03*
X90000000Y-95512500D03*
D34*
X139355000Y-37050000D03*
X139355000Y-38000000D03*
X139355000Y-38950000D03*
X141645000Y-38950000D03*
X141645000Y-37050000D03*
D35*
X134550000Y-56025000D03*
X134550000Y-57575000D03*
D36*
X90000000Y-93335000D03*
X90000000Y-92315000D03*
D37*
X128380000Y-57550000D03*
X127420000Y-57550000D03*
D38*
X68050000Y-91825000D03*
X66550000Y-91825000D03*
X63550000Y-91825000D03*
D39*
X69450000Y-94675000D03*
X69450000Y-92475000D03*
X62150000Y-94675000D03*
X62150000Y-92475000D03*
D40*
X126020000Y-40700000D03*
X126980000Y-40700000D03*
D41*
X85000000Y-92315000D03*
X85000000Y-93335000D03*
D37*
X133130000Y-41100000D03*
X132170000Y-41100000D03*
D42*
X137675000Y-46250000D03*
X139225000Y-46250000D03*
D43*
X199725000Y-104050000D03*
D44*
X199725000Y-106590000D03*
X199725000Y-109130000D03*
X199725000Y-111670000D03*
X199725000Y-114210000D03*
X199725000Y-116750000D03*
D45*
X135850000Y-54350000D03*
D41*
X66500000Y-88690000D03*
X66500000Y-89710000D03*
D46*
X120900000Y-53225000D03*
X120900000Y-51675000D03*
D47*
X81110000Y-91700000D03*
X80090000Y-91700000D03*
D33*
X85000000Y-97087500D03*
X85000000Y-95512500D03*
D48*
X141675000Y-35300000D03*
X140125000Y-35300000D03*
D37*
X125435000Y-55800000D03*
X124475000Y-55800000D03*
D49*
X138750000Y-51870000D03*
X138750000Y-52830000D03*
D35*
X136500000Y-37975000D03*
X136500000Y-39525000D03*
D28*
X43750000Y-134550000D03*
D49*
X133150000Y-55770000D03*
X133150000Y-56730000D03*
D42*
X134365000Y-41020000D03*
X135915000Y-41020000D03*
D50*
X76375000Y-91750000D03*
X76375000Y-97750000D03*
X72625000Y-91750000D03*
X72625000Y-97750000D03*
D51*
X126250000Y-54200000D03*
X126750000Y-54200000D03*
X127250000Y-54200000D03*
X127750000Y-54200000D03*
X128250000Y-54200000D03*
X128750000Y-54200000D03*
X129250000Y-54200000D03*
X129750000Y-54200000D03*
X130250000Y-54200000D03*
X130750000Y-54200000D03*
X131250000Y-54200000D03*
X131750000Y-54200000D03*
X132250000Y-54200000D03*
X132750000Y-54200000D03*
X133250000Y-54200000D03*
X133750000Y-54200000D03*
D52*
X135700000Y-52250000D03*
X135700000Y-51750000D03*
X135700000Y-51250000D03*
X135700000Y-50750000D03*
X135700000Y-50250000D03*
X135700000Y-49750000D03*
X135700000Y-49250000D03*
X135700000Y-48750000D03*
X135700000Y-48250000D03*
X135700000Y-47750000D03*
X135700000Y-47250000D03*
X135700000Y-46750000D03*
X135700000Y-46250000D03*
X135700000Y-45750000D03*
X135700000Y-45250000D03*
X135700000Y-44750000D03*
D51*
X133750000Y-42800000D03*
X133250000Y-42800000D03*
X132750000Y-42800000D03*
X132250000Y-42800000D03*
X131750000Y-42800000D03*
X131250000Y-42800000D03*
X130750000Y-42800000D03*
X130250000Y-42800000D03*
X129750000Y-42800000D03*
X129250000Y-42800000D03*
X128750000Y-42800000D03*
X128250000Y-42800000D03*
X127750000Y-42800000D03*
X127250000Y-42800000D03*
X126750000Y-42800000D03*
X126250000Y-42800000D03*
D52*
X124300000Y-44750000D03*
X124300000Y-45250000D03*
X124300000Y-45750000D03*
X124300000Y-46250000D03*
X124300000Y-46750000D03*
X124300000Y-47250000D03*
X124300000Y-47750000D03*
X124300000Y-48250000D03*
X124300000Y-48750000D03*
X124300000Y-49250000D03*
X124300000Y-49750000D03*
X124300000Y-50250000D03*
X124300000Y-50750000D03*
X124300000Y-51250000D03*
X124300000Y-51750000D03*
X124300000Y-52250000D03*
D49*
X137500000Y-43370000D03*
X137500000Y-44330000D03*
D28*
X247200000Y-134550000D03*
D45*
X124150000Y-42650000D03*
D40*
X80120000Y-93000000D03*
X81080000Y-93000000D03*
D43*
X106375000Y-105425000D03*
D44*
X103835000Y-105425000D03*
X101295000Y-105425000D03*
X98755000Y-105425000D03*
X96215000Y-105425000D03*
D37*
X125680000Y-57600000D03*
X124720000Y-57600000D03*
%LPD*%
M02*
