%TF.GenerationSoftware,KiCad,Pcbnew,8.0.1*%
%TF.CreationDate,2024-05-01T14:37:59+02:00*%
%TF.ProjectId,PE2-for-review,5045322d-666f-4722-9d72-65766965772e,rev?*%
%TF.SameCoordinates,Original*%
%TF.FileFunction,Legend,Bot*%
%TF.FilePolarity,Positive*%
%FSLAX46Y46*%
G04 Gerber Fmt 4.6, Leading zero omitted, Abs format (unit mm)*
G04 Created by KiCad (PCBNEW 8.0.1) date 2024-05-01 14:37:59*
%MOMM*%
%LPD*%
G01*
G04 APERTURE LIST*
G04 Aperture macros list*
%AMRoundRect*
0 Rectangle with rounded corners*
0 $1 Rounding radius*
0 $2 $3 $4 $5 $6 $7 $8 $9 X,Y pos of 4 corners*
0 Add a 4 corners polygon primitive as box body*
4,1,4,$2,$3,$4,$5,$6,$7,$8,$9,$2,$3,0*
0 Add four circle primitives for the rounded corners*
1,1,$1+$1,$2,$3*
1,1,$1+$1,$4,$5*
1,1,$1+$1,$6,$7*
1,1,$1+$1,$8,$9*
0 Add four rect primitives between the rounded corners*
20,1,$1+$1,$2,$3,$4,$5,0*
20,1,$1+$1,$4,$5,$6,$7,0*
20,1,$1+$1,$6,$7,$8,$9,0*
20,1,$1+$1,$8,$9,$2,$3,0*%
G04 Aperture macros list end*
%ADD10C,0.150000*%
%ADD11C,1.701800*%
%ADD12C,3.000000*%
%ADD13C,3.429000*%
%ADD14R,2.600000X2.600000*%
%ADD15C,2.032000*%
%ADD16C,6.300000*%
%ADD17C,2.000000*%
%ADD18RoundRect,0.102000X-0.754000X-0.754000X0.754000X-0.754000X0.754000X0.754000X-0.754000X0.754000X0*%
%ADD19C,1.712000*%
%ADD20C,3.204000*%
%ADD21R,1.700000X1.700000*%
%ADD22O,1.700000X1.700000*%
G04 APERTURE END LIST*
D10*
X93098332Y-57957200D02*
X92955475Y-58004819D01*
X92955475Y-58004819D02*
X92717380Y-58004819D01*
X92717380Y-58004819D02*
X92622142Y-57957200D01*
X92622142Y-57957200D02*
X92574523Y-57909580D01*
X92574523Y-57909580D02*
X92526904Y-57814342D01*
X92526904Y-57814342D02*
X92526904Y-57719104D01*
X92526904Y-57719104D02*
X92574523Y-57623866D01*
X92574523Y-57623866D02*
X92622142Y-57576247D01*
X92622142Y-57576247D02*
X92717380Y-57528628D01*
X92717380Y-57528628D02*
X92907856Y-57481009D01*
X92907856Y-57481009D02*
X93003094Y-57433390D01*
X93003094Y-57433390D02*
X93050713Y-57385771D01*
X93050713Y-57385771D02*
X93098332Y-57290533D01*
X93098332Y-57290533D02*
X93098332Y-57195295D01*
X93098332Y-57195295D02*
X93050713Y-57100057D01*
X93050713Y-57100057D02*
X93003094Y-57052438D01*
X93003094Y-57052438D02*
X92907856Y-57004819D01*
X92907856Y-57004819D02*
X92669761Y-57004819D01*
X92669761Y-57004819D02*
X92526904Y-57052438D01*
X92193570Y-57004819D02*
X91955475Y-58004819D01*
X91955475Y-58004819D02*
X91764999Y-57290533D01*
X91764999Y-57290533D02*
X91574523Y-58004819D01*
X91574523Y-58004819D02*
X91336428Y-57004819D01*
X90526904Y-57004819D02*
X90717380Y-57004819D01*
X90717380Y-57004819D02*
X90812618Y-57052438D01*
X90812618Y-57052438D02*
X90860237Y-57100057D01*
X90860237Y-57100057D02*
X90955475Y-57242914D01*
X90955475Y-57242914D02*
X91003094Y-57433390D01*
X91003094Y-57433390D02*
X91003094Y-57814342D01*
X91003094Y-57814342D02*
X90955475Y-57909580D01*
X90955475Y-57909580D02*
X90907856Y-57957200D01*
X90907856Y-57957200D02*
X90812618Y-58004819D01*
X90812618Y-58004819D02*
X90622142Y-58004819D01*
X90622142Y-58004819D02*
X90526904Y-57957200D01*
X90526904Y-57957200D02*
X90479285Y-57909580D01*
X90479285Y-57909580D02*
X90431666Y-57814342D01*
X90431666Y-57814342D02*
X90431666Y-57576247D01*
X90431666Y-57576247D02*
X90479285Y-57481009D01*
X90479285Y-57481009D02*
X90526904Y-57433390D01*
X90526904Y-57433390D02*
X90622142Y-57385771D01*
X90622142Y-57385771D02*
X90812618Y-57385771D01*
X90812618Y-57385771D02*
X90907856Y-57433390D01*
X90907856Y-57433390D02*
X90955475Y-57481009D01*
X90955475Y-57481009D02*
X91003094Y-57576247D01*
X120174523Y-69307200D02*
X120031666Y-69354819D01*
X120031666Y-69354819D02*
X119793571Y-69354819D01*
X119793571Y-69354819D02*
X119698333Y-69307200D01*
X119698333Y-69307200D02*
X119650714Y-69259580D01*
X119650714Y-69259580D02*
X119603095Y-69164342D01*
X119603095Y-69164342D02*
X119603095Y-69069104D01*
X119603095Y-69069104D02*
X119650714Y-68973866D01*
X119650714Y-68973866D02*
X119698333Y-68926247D01*
X119698333Y-68926247D02*
X119793571Y-68878628D01*
X119793571Y-68878628D02*
X119984047Y-68831009D01*
X119984047Y-68831009D02*
X120079285Y-68783390D01*
X120079285Y-68783390D02*
X120126904Y-68735771D01*
X120126904Y-68735771D02*
X120174523Y-68640533D01*
X120174523Y-68640533D02*
X120174523Y-68545295D01*
X120174523Y-68545295D02*
X120126904Y-68450057D01*
X120126904Y-68450057D02*
X120079285Y-68402438D01*
X120079285Y-68402438D02*
X119984047Y-68354819D01*
X119984047Y-68354819D02*
X119745952Y-68354819D01*
X119745952Y-68354819D02*
X119603095Y-68402438D01*
X119269761Y-68354819D02*
X119031666Y-69354819D01*
X119031666Y-69354819D02*
X118841190Y-68640533D01*
X118841190Y-68640533D02*
X118650714Y-69354819D01*
X118650714Y-69354819D02*
X118412619Y-68354819D01*
X117507857Y-69354819D02*
X118079285Y-69354819D01*
X117793571Y-69354819D02*
X117793571Y-68354819D01*
X117793571Y-68354819D02*
X117888809Y-68497676D01*
X117888809Y-68497676D02*
X117984047Y-68592914D01*
X117984047Y-68592914D02*
X118079285Y-68640533D01*
X117126904Y-68450057D02*
X117079285Y-68402438D01*
X117079285Y-68402438D02*
X116984047Y-68354819D01*
X116984047Y-68354819D02*
X116745952Y-68354819D01*
X116745952Y-68354819D02*
X116650714Y-68402438D01*
X116650714Y-68402438D02*
X116603095Y-68450057D01*
X116603095Y-68450057D02*
X116555476Y-68545295D01*
X116555476Y-68545295D02*
X116555476Y-68640533D01*
X116555476Y-68640533D02*
X116603095Y-68783390D01*
X116603095Y-68783390D02*
X117174523Y-69354819D01*
X117174523Y-69354819D02*
X116555476Y-69354819D01*
X137674523Y-122407200D02*
X137531666Y-122454819D01*
X137531666Y-122454819D02*
X137293571Y-122454819D01*
X137293571Y-122454819D02*
X137198333Y-122407200D01*
X137198333Y-122407200D02*
X137150714Y-122359580D01*
X137150714Y-122359580D02*
X137103095Y-122264342D01*
X137103095Y-122264342D02*
X137103095Y-122169104D01*
X137103095Y-122169104D02*
X137150714Y-122073866D01*
X137150714Y-122073866D02*
X137198333Y-122026247D01*
X137198333Y-122026247D02*
X137293571Y-121978628D01*
X137293571Y-121978628D02*
X137484047Y-121931009D01*
X137484047Y-121931009D02*
X137579285Y-121883390D01*
X137579285Y-121883390D02*
X137626904Y-121835771D01*
X137626904Y-121835771D02*
X137674523Y-121740533D01*
X137674523Y-121740533D02*
X137674523Y-121645295D01*
X137674523Y-121645295D02*
X137626904Y-121550057D01*
X137626904Y-121550057D02*
X137579285Y-121502438D01*
X137579285Y-121502438D02*
X137484047Y-121454819D01*
X137484047Y-121454819D02*
X137245952Y-121454819D01*
X137245952Y-121454819D02*
X137103095Y-121502438D01*
X136769761Y-121454819D02*
X136531666Y-122454819D01*
X136531666Y-122454819D02*
X136341190Y-121740533D01*
X136341190Y-121740533D02*
X136150714Y-122454819D01*
X136150714Y-122454819D02*
X135912619Y-121454819D01*
X135007857Y-122454819D02*
X135579285Y-122454819D01*
X135293571Y-122454819D02*
X135293571Y-121454819D01*
X135293571Y-121454819D02*
X135388809Y-121597676D01*
X135388809Y-121597676D02*
X135484047Y-121692914D01*
X135484047Y-121692914D02*
X135579285Y-121740533D01*
X134436428Y-121883390D02*
X134531666Y-121835771D01*
X134531666Y-121835771D02*
X134579285Y-121788152D01*
X134579285Y-121788152D02*
X134626904Y-121692914D01*
X134626904Y-121692914D02*
X134626904Y-121645295D01*
X134626904Y-121645295D02*
X134579285Y-121550057D01*
X134579285Y-121550057D02*
X134531666Y-121502438D01*
X134531666Y-121502438D02*
X134436428Y-121454819D01*
X134436428Y-121454819D02*
X134245952Y-121454819D01*
X134245952Y-121454819D02*
X134150714Y-121502438D01*
X134150714Y-121502438D02*
X134103095Y-121550057D01*
X134103095Y-121550057D02*
X134055476Y-121645295D01*
X134055476Y-121645295D02*
X134055476Y-121692914D01*
X134055476Y-121692914D02*
X134103095Y-121788152D01*
X134103095Y-121788152D02*
X134150714Y-121835771D01*
X134150714Y-121835771D02*
X134245952Y-121883390D01*
X134245952Y-121883390D02*
X134436428Y-121883390D01*
X134436428Y-121883390D02*
X134531666Y-121931009D01*
X134531666Y-121931009D02*
X134579285Y-121978628D01*
X134579285Y-121978628D02*
X134626904Y-122073866D01*
X134626904Y-122073866D02*
X134626904Y-122264342D01*
X134626904Y-122264342D02*
X134579285Y-122359580D01*
X134579285Y-122359580D02*
X134531666Y-122407200D01*
X134531666Y-122407200D02*
X134436428Y-122454819D01*
X134436428Y-122454819D02*
X134245952Y-122454819D01*
X134245952Y-122454819D02*
X134150714Y-122407200D01*
X134150714Y-122407200D02*
X134103095Y-122359580D01*
X134103095Y-122359580D02*
X134055476Y-122264342D01*
X134055476Y-122264342D02*
X134055476Y-122073866D01*
X134055476Y-122073866D02*
X134103095Y-121978628D01*
X134103095Y-121978628D02*
X134150714Y-121931009D01*
X134150714Y-121931009D02*
X134245952Y-121883390D01*
X155114523Y-57897200D02*
X154971666Y-57944819D01*
X154971666Y-57944819D02*
X154733571Y-57944819D01*
X154733571Y-57944819D02*
X154638333Y-57897200D01*
X154638333Y-57897200D02*
X154590714Y-57849580D01*
X154590714Y-57849580D02*
X154543095Y-57754342D01*
X154543095Y-57754342D02*
X154543095Y-57659104D01*
X154543095Y-57659104D02*
X154590714Y-57563866D01*
X154590714Y-57563866D02*
X154638333Y-57516247D01*
X154638333Y-57516247D02*
X154733571Y-57468628D01*
X154733571Y-57468628D02*
X154924047Y-57421009D01*
X154924047Y-57421009D02*
X155019285Y-57373390D01*
X155019285Y-57373390D02*
X155066904Y-57325771D01*
X155066904Y-57325771D02*
X155114523Y-57230533D01*
X155114523Y-57230533D02*
X155114523Y-57135295D01*
X155114523Y-57135295D02*
X155066904Y-57040057D01*
X155066904Y-57040057D02*
X155019285Y-56992438D01*
X155019285Y-56992438D02*
X154924047Y-56944819D01*
X154924047Y-56944819D02*
X154685952Y-56944819D01*
X154685952Y-56944819D02*
X154543095Y-56992438D01*
X154209761Y-56944819D02*
X153971666Y-57944819D01*
X153971666Y-57944819D02*
X153781190Y-57230533D01*
X153781190Y-57230533D02*
X153590714Y-57944819D01*
X153590714Y-57944819D02*
X153352619Y-56944819D01*
X152447857Y-57944819D02*
X153019285Y-57944819D01*
X152733571Y-57944819D02*
X152733571Y-56944819D01*
X152733571Y-56944819D02*
X152828809Y-57087676D01*
X152828809Y-57087676D02*
X152924047Y-57182914D01*
X152924047Y-57182914D02*
X153019285Y-57230533D01*
X151590714Y-56944819D02*
X151781190Y-56944819D01*
X151781190Y-56944819D02*
X151876428Y-56992438D01*
X151876428Y-56992438D02*
X151924047Y-57040057D01*
X151924047Y-57040057D02*
X152019285Y-57182914D01*
X152019285Y-57182914D02*
X152066904Y-57373390D01*
X152066904Y-57373390D02*
X152066904Y-57754342D01*
X152066904Y-57754342D02*
X152019285Y-57849580D01*
X152019285Y-57849580D02*
X151971666Y-57897200D01*
X151971666Y-57897200D02*
X151876428Y-57944819D01*
X151876428Y-57944819D02*
X151685952Y-57944819D01*
X151685952Y-57944819D02*
X151590714Y-57897200D01*
X151590714Y-57897200D02*
X151543095Y-57849580D01*
X151543095Y-57849580D02*
X151495476Y-57754342D01*
X151495476Y-57754342D02*
X151495476Y-57516247D01*
X151495476Y-57516247D02*
X151543095Y-57421009D01*
X151543095Y-57421009D02*
X151590714Y-57373390D01*
X151590714Y-57373390D02*
X151685952Y-57325771D01*
X151685952Y-57325771D02*
X151876428Y-57325771D01*
X151876428Y-57325771D02*
X151971666Y-57373390D01*
X151971666Y-57373390D02*
X152019285Y-57421009D01*
X152019285Y-57421009D02*
X152066904Y-57516247D01*
X181198332Y-46367200D02*
X181055475Y-46414819D01*
X181055475Y-46414819D02*
X180817380Y-46414819D01*
X180817380Y-46414819D02*
X180722142Y-46367200D01*
X180722142Y-46367200D02*
X180674523Y-46319580D01*
X180674523Y-46319580D02*
X180626904Y-46224342D01*
X180626904Y-46224342D02*
X180626904Y-46129104D01*
X180626904Y-46129104D02*
X180674523Y-46033866D01*
X180674523Y-46033866D02*
X180722142Y-45986247D01*
X180722142Y-45986247D02*
X180817380Y-45938628D01*
X180817380Y-45938628D02*
X181007856Y-45891009D01*
X181007856Y-45891009D02*
X181103094Y-45843390D01*
X181103094Y-45843390D02*
X181150713Y-45795771D01*
X181150713Y-45795771D02*
X181198332Y-45700533D01*
X181198332Y-45700533D02*
X181198332Y-45605295D01*
X181198332Y-45605295D02*
X181150713Y-45510057D01*
X181150713Y-45510057D02*
X181103094Y-45462438D01*
X181103094Y-45462438D02*
X181007856Y-45414819D01*
X181007856Y-45414819D02*
X180769761Y-45414819D01*
X180769761Y-45414819D02*
X180626904Y-45462438D01*
X180293570Y-45414819D02*
X180055475Y-46414819D01*
X180055475Y-46414819D02*
X179864999Y-45700533D01*
X179864999Y-45700533D02*
X179674523Y-46414819D01*
X179674523Y-46414819D02*
X179436428Y-45414819D01*
X179150713Y-45414819D02*
X178531666Y-45414819D01*
X178531666Y-45414819D02*
X178864999Y-45795771D01*
X178864999Y-45795771D02*
X178722142Y-45795771D01*
X178722142Y-45795771D02*
X178626904Y-45843390D01*
X178626904Y-45843390D02*
X178579285Y-45891009D01*
X178579285Y-45891009D02*
X178531666Y-45986247D01*
X178531666Y-45986247D02*
X178531666Y-46224342D01*
X178531666Y-46224342D02*
X178579285Y-46319580D01*
X178579285Y-46319580D02*
X178626904Y-46367200D01*
X178626904Y-46367200D02*
X178722142Y-46414819D01*
X178722142Y-46414819D02*
X179007856Y-46414819D01*
X179007856Y-46414819D02*
X179103094Y-46367200D01*
X179103094Y-46367200D02*
X179150713Y-46319580D01*
X210168332Y-46247200D02*
X210025475Y-46294819D01*
X210025475Y-46294819D02*
X209787380Y-46294819D01*
X209787380Y-46294819D02*
X209692142Y-46247200D01*
X209692142Y-46247200D02*
X209644523Y-46199580D01*
X209644523Y-46199580D02*
X209596904Y-46104342D01*
X209596904Y-46104342D02*
X209596904Y-46009104D01*
X209596904Y-46009104D02*
X209644523Y-45913866D01*
X209644523Y-45913866D02*
X209692142Y-45866247D01*
X209692142Y-45866247D02*
X209787380Y-45818628D01*
X209787380Y-45818628D02*
X209977856Y-45771009D01*
X209977856Y-45771009D02*
X210073094Y-45723390D01*
X210073094Y-45723390D02*
X210120713Y-45675771D01*
X210120713Y-45675771D02*
X210168332Y-45580533D01*
X210168332Y-45580533D02*
X210168332Y-45485295D01*
X210168332Y-45485295D02*
X210120713Y-45390057D01*
X210120713Y-45390057D02*
X210073094Y-45342438D01*
X210073094Y-45342438D02*
X209977856Y-45294819D01*
X209977856Y-45294819D02*
X209739761Y-45294819D01*
X209739761Y-45294819D02*
X209596904Y-45342438D01*
X209263570Y-45294819D02*
X209025475Y-46294819D01*
X209025475Y-46294819D02*
X208834999Y-45580533D01*
X208834999Y-45580533D02*
X208644523Y-46294819D01*
X208644523Y-46294819D02*
X208406428Y-45294819D01*
X208120713Y-45294819D02*
X207454047Y-45294819D01*
X207454047Y-45294819D02*
X207882618Y-46294819D01*
X239614523Y-46487200D02*
X239471666Y-46534819D01*
X239471666Y-46534819D02*
X239233571Y-46534819D01*
X239233571Y-46534819D02*
X239138333Y-46487200D01*
X239138333Y-46487200D02*
X239090714Y-46439580D01*
X239090714Y-46439580D02*
X239043095Y-46344342D01*
X239043095Y-46344342D02*
X239043095Y-46249104D01*
X239043095Y-46249104D02*
X239090714Y-46153866D01*
X239090714Y-46153866D02*
X239138333Y-46106247D01*
X239138333Y-46106247D02*
X239233571Y-46058628D01*
X239233571Y-46058628D02*
X239424047Y-46011009D01*
X239424047Y-46011009D02*
X239519285Y-45963390D01*
X239519285Y-45963390D02*
X239566904Y-45915771D01*
X239566904Y-45915771D02*
X239614523Y-45820533D01*
X239614523Y-45820533D02*
X239614523Y-45725295D01*
X239614523Y-45725295D02*
X239566904Y-45630057D01*
X239566904Y-45630057D02*
X239519285Y-45582438D01*
X239519285Y-45582438D02*
X239424047Y-45534819D01*
X239424047Y-45534819D02*
X239185952Y-45534819D01*
X239185952Y-45534819D02*
X239043095Y-45582438D01*
X238709761Y-45534819D02*
X238471666Y-46534819D01*
X238471666Y-46534819D02*
X238281190Y-45820533D01*
X238281190Y-45820533D02*
X238090714Y-46534819D01*
X238090714Y-46534819D02*
X237852619Y-45534819D01*
X236947857Y-46534819D02*
X237519285Y-46534819D01*
X237233571Y-46534819D02*
X237233571Y-45534819D01*
X237233571Y-45534819D02*
X237328809Y-45677676D01*
X237328809Y-45677676D02*
X237424047Y-45772914D01*
X237424047Y-45772914D02*
X237519285Y-45820533D01*
X236614523Y-45534819D02*
X235995476Y-45534819D01*
X235995476Y-45534819D02*
X236328809Y-45915771D01*
X236328809Y-45915771D02*
X236185952Y-45915771D01*
X236185952Y-45915771D02*
X236090714Y-45963390D01*
X236090714Y-45963390D02*
X236043095Y-46011009D01*
X236043095Y-46011009D02*
X235995476Y-46106247D01*
X235995476Y-46106247D02*
X235995476Y-46344342D01*
X235995476Y-46344342D02*
X236043095Y-46439580D01*
X236043095Y-46439580D02*
X236090714Y-46487200D01*
X236090714Y-46487200D02*
X236185952Y-46534819D01*
X236185952Y-46534819D02*
X236471666Y-46534819D01*
X236471666Y-46534819D02*
X236566904Y-46487200D01*
X236566904Y-46487200D02*
X236614523Y-46439580D01*
X149504523Y-88937200D02*
X149361666Y-88984819D01*
X149361666Y-88984819D02*
X149123571Y-88984819D01*
X149123571Y-88984819D02*
X149028333Y-88937200D01*
X149028333Y-88937200D02*
X148980714Y-88889580D01*
X148980714Y-88889580D02*
X148933095Y-88794342D01*
X148933095Y-88794342D02*
X148933095Y-88699104D01*
X148933095Y-88699104D02*
X148980714Y-88603866D01*
X148980714Y-88603866D02*
X149028333Y-88556247D01*
X149028333Y-88556247D02*
X149123571Y-88508628D01*
X149123571Y-88508628D02*
X149314047Y-88461009D01*
X149314047Y-88461009D02*
X149409285Y-88413390D01*
X149409285Y-88413390D02*
X149456904Y-88365771D01*
X149456904Y-88365771D02*
X149504523Y-88270533D01*
X149504523Y-88270533D02*
X149504523Y-88175295D01*
X149504523Y-88175295D02*
X149456904Y-88080057D01*
X149456904Y-88080057D02*
X149409285Y-88032438D01*
X149409285Y-88032438D02*
X149314047Y-87984819D01*
X149314047Y-87984819D02*
X149075952Y-87984819D01*
X149075952Y-87984819D02*
X148933095Y-88032438D01*
X148599761Y-87984819D02*
X148361666Y-88984819D01*
X148361666Y-88984819D02*
X148171190Y-88270533D01*
X148171190Y-88270533D02*
X147980714Y-88984819D01*
X147980714Y-88984819D02*
X147742619Y-87984819D01*
X146837857Y-88984819D02*
X147409285Y-88984819D01*
X147123571Y-88984819D02*
X147123571Y-87984819D01*
X147123571Y-87984819D02*
X147218809Y-88127676D01*
X147218809Y-88127676D02*
X147314047Y-88222914D01*
X147314047Y-88222914D02*
X147409285Y-88270533D01*
X146504523Y-87984819D02*
X145837857Y-87984819D01*
X145837857Y-87984819D02*
X146266428Y-88984819D01*
X175638332Y-77827200D02*
X175495475Y-77874819D01*
X175495475Y-77874819D02*
X175257380Y-77874819D01*
X175257380Y-77874819D02*
X175162142Y-77827200D01*
X175162142Y-77827200D02*
X175114523Y-77779580D01*
X175114523Y-77779580D02*
X175066904Y-77684342D01*
X175066904Y-77684342D02*
X175066904Y-77589104D01*
X175066904Y-77589104D02*
X175114523Y-77493866D01*
X175114523Y-77493866D02*
X175162142Y-77446247D01*
X175162142Y-77446247D02*
X175257380Y-77398628D01*
X175257380Y-77398628D02*
X175447856Y-77351009D01*
X175447856Y-77351009D02*
X175543094Y-77303390D01*
X175543094Y-77303390D02*
X175590713Y-77255771D01*
X175590713Y-77255771D02*
X175638332Y-77160533D01*
X175638332Y-77160533D02*
X175638332Y-77065295D01*
X175638332Y-77065295D02*
X175590713Y-76970057D01*
X175590713Y-76970057D02*
X175543094Y-76922438D01*
X175543094Y-76922438D02*
X175447856Y-76874819D01*
X175447856Y-76874819D02*
X175209761Y-76874819D01*
X175209761Y-76874819D02*
X175066904Y-76922438D01*
X174733570Y-76874819D02*
X174495475Y-77874819D01*
X174495475Y-77874819D02*
X174304999Y-77160533D01*
X174304999Y-77160533D02*
X174114523Y-77874819D01*
X174114523Y-77874819D02*
X173876428Y-76874819D01*
X173066904Y-77208152D02*
X173066904Y-77874819D01*
X173304999Y-76827200D02*
X173543094Y-77541485D01*
X173543094Y-77541485D02*
X172924047Y-77541485D01*
X204488332Y-77827200D02*
X204345475Y-77874819D01*
X204345475Y-77874819D02*
X204107380Y-77874819D01*
X204107380Y-77874819D02*
X204012142Y-77827200D01*
X204012142Y-77827200D02*
X203964523Y-77779580D01*
X203964523Y-77779580D02*
X203916904Y-77684342D01*
X203916904Y-77684342D02*
X203916904Y-77589104D01*
X203916904Y-77589104D02*
X203964523Y-77493866D01*
X203964523Y-77493866D02*
X204012142Y-77446247D01*
X204012142Y-77446247D02*
X204107380Y-77398628D01*
X204107380Y-77398628D02*
X204297856Y-77351009D01*
X204297856Y-77351009D02*
X204393094Y-77303390D01*
X204393094Y-77303390D02*
X204440713Y-77255771D01*
X204440713Y-77255771D02*
X204488332Y-77160533D01*
X204488332Y-77160533D02*
X204488332Y-77065295D01*
X204488332Y-77065295D02*
X204440713Y-76970057D01*
X204440713Y-76970057D02*
X204393094Y-76922438D01*
X204393094Y-76922438D02*
X204297856Y-76874819D01*
X204297856Y-76874819D02*
X204059761Y-76874819D01*
X204059761Y-76874819D02*
X203916904Y-76922438D01*
X203583570Y-76874819D02*
X203345475Y-77874819D01*
X203345475Y-77874819D02*
X203154999Y-77160533D01*
X203154999Y-77160533D02*
X202964523Y-77874819D01*
X202964523Y-77874819D02*
X202726428Y-76874819D01*
X202202618Y-77303390D02*
X202297856Y-77255771D01*
X202297856Y-77255771D02*
X202345475Y-77208152D01*
X202345475Y-77208152D02*
X202393094Y-77112914D01*
X202393094Y-77112914D02*
X202393094Y-77065295D01*
X202393094Y-77065295D02*
X202345475Y-76970057D01*
X202345475Y-76970057D02*
X202297856Y-76922438D01*
X202297856Y-76922438D02*
X202202618Y-76874819D01*
X202202618Y-76874819D02*
X202012142Y-76874819D01*
X202012142Y-76874819D02*
X201916904Y-76922438D01*
X201916904Y-76922438D02*
X201869285Y-76970057D01*
X201869285Y-76970057D02*
X201821666Y-77065295D01*
X201821666Y-77065295D02*
X201821666Y-77112914D01*
X201821666Y-77112914D02*
X201869285Y-77208152D01*
X201869285Y-77208152D02*
X201916904Y-77255771D01*
X201916904Y-77255771D02*
X202012142Y-77303390D01*
X202012142Y-77303390D02*
X202202618Y-77303390D01*
X202202618Y-77303390D02*
X202297856Y-77351009D01*
X202297856Y-77351009D02*
X202345475Y-77398628D01*
X202345475Y-77398628D02*
X202393094Y-77493866D01*
X202393094Y-77493866D02*
X202393094Y-77684342D01*
X202393094Y-77684342D02*
X202345475Y-77779580D01*
X202345475Y-77779580D02*
X202297856Y-77827200D01*
X202297856Y-77827200D02*
X202202618Y-77874819D01*
X202202618Y-77874819D02*
X202012142Y-77874819D01*
X202012142Y-77874819D02*
X201916904Y-77827200D01*
X201916904Y-77827200D02*
X201869285Y-77779580D01*
X201869285Y-77779580D02*
X201821666Y-77684342D01*
X201821666Y-77684342D02*
X201821666Y-77493866D01*
X201821666Y-77493866D02*
X201869285Y-77398628D01*
X201869285Y-77398628D02*
X201916904Y-77351009D01*
X201916904Y-77351009D02*
X202012142Y-77303390D01*
X234174523Y-77827200D02*
X234031666Y-77874819D01*
X234031666Y-77874819D02*
X233793571Y-77874819D01*
X233793571Y-77874819D02*
X233698333Y-77827200D01*
X233698333Y-77827200D02*
X233650714Y-77779580D01*
X233650714Y-77779580D02*
X233603095Y-77684342D01*
X233603095Y-77684342D02*
X233603095Y-77589104D01*
X233603095Y-77589104D02*
X233650714Y-77493866D01*
X233650714Y-77493866D02*
X233698333Y-77446247D01*
X233698333Y-77446247D02*
X233793571Y-77398628D01*
X233793571Y-77398628D02*
X233984047Y-77351009D01*
X233984047Y-77351009D02*
X234079285Y-77303390D01*
X234079285Y-77303390D02*
X234126904Y-77255771D01*
X234126904Y-77255771D02*
X234174523Y-77160533D01*
X234174523Y-77160533D02*
X234174523Y-77065295D01*
X234174523Y-77065295D02*
X234126904Y-76970057D01*
X234126904Y-76970057D02*
X234079285Y-76922438D01*
X234079285Y-76922438D02*
X233984047Y-76874819D01*
X233984047Y-76874819D02*
X233745952Y-76874819D01*
X233745952Y-76874819D02*
X233603095Y-76922438D01*
X233269761Y-76874819D02*
X233031666Y-77874819D01*
X233031666Y-77874819D02*
X232841190Y-77160533D01*
X232841190Y-77160533D02*
X232650714Y-77874819D01*
X232650714Y-77874819D02*
X232412619Y-76874819D01*
X231507857Y-77874819D02*
X232079285Y-77874819D01*
X231793571Y-77874819D02*
X231793571Y-76874819D01*
X231793571Y-76874819D02*
X231888809Y-77017676D01*
X231888809Y-77017676D02*
X231984047Y-77112914D01*
X231984047Y-77112914D02*
X232079285Y-77160533D01*
X230650714Y-77208152D02*
X230650714Y-77874819D01*
X230888809Y-76827200D02*
X231126904Y-77541485D01*
X231126904Y-77541485D02*
X230507857Y-77541485D01*
X64003332Y-57837200D02*
X63860475Y-57884819D01*
X63860475Y-57884819D02*
X63622380Y-57884819D01*
X63622380Y-57884819D02*
X63527142Y-57837200D01*
X63527142Y-57837200D02*
X63479523Y-57789580D01*
X63479523Y-57789580D02*
X63431904Y-57694342D01*
X63431904Y-57694342D02*
X63431904Y-57599104D01*
X63431904Y-57599104D02*
X63479523Y-57503866D01*
X63479523Y-57503866D02*
X63527142Y-57456247D01*
X63527142Y-57456247D02*
X63622380Y-57408628D01*
X63622380Y-57408628D02*
X63812856Y-57361009D01*
X63812856Y-57361009D02*
X63908094Y-57313390D01*
X63908094Y-57313390D02*
X63955713Y-57265771D01*
X63955713Y-57265771D02*
X64003332Y-57170533D01*
X64003332Y-57170533D02*
X64003332Y-57075295D01*
X64003332Y-57075295D02*
X63955713Y-56980057D01*
X63955713Y-56980057D02*
X63908094Y-56932438D01*
X63908094Y-56932438D02*
X63812856Y-56884819D01*
X63812856Y-56884819D02*
X63574761Y-56884819D01*
X63574761Y-56884819D02*
X63431904Y-56932438D01*
X63098570Y-56884819D02*
X62860475Y-57884819D01*
X62860475Y-57884819D02*
X62669999Y-57170533D01*
X62669999Y-57170533D02*
X62479523Y-57884819D01*
X62479523Y-57884819D02*
X62241428Y-56884819D01*
X61908094Y-56980057D02*
X61860475Y-56932438D01*
X61860475Y-56932438D02*
X61765237Y-56884819D01*
X61765237Y-56884819D02*
X61527142Y-56884819D01*
X61527142Y-56884819D02*
X61431904Y-56932438D01*
X61431904Y-56932438D02*
X61384285Y-56980057D01*
X61384285Y-56980057D02*
X61336666Y-57075295D01*
X61336666Y-57075295D02*
X61336666Y-57170533D01*
X61336666Y-57170533D02*
X61384285Y-57313390D01*
X61384285Y-57313390D02*
X61955713Y-57884819D01*
X61955713Y-57884819D02*
X61336666Y-57884819D01*
X85320000Y-57470000D02*
X85820000Y-56970000D01*
X85320000Y-60970000D02*
X85820000Y-61470000D01*
X85820000Y-56970000D02*
X88820000Y-56970000D01*
X85820000Y-61470000D02*
X88320000Y-61470000D01*
X88820000Y-56970000D02*
X89320000Y-57470000D01*
X89320000Y-58470000D02*
X89320000Y-57470000D01*
X89820000Y-62970000D02*
X89820000Y-63670000D01*
X89820000Y-63670000D02*
X94320000Y-63670000D01*
X94320000Y-58970000D02*
X89820000Y-58970000D01*
X94320000Y-59570000D02*
X94320000Y-58970000D01*
X94320000Y-63670000D02*
X94320000Y-63170000D01*
X88320000Y-61470000D02*
G75*
G02*
X89820000Y-62970000I0J-1500000D01*
G01*
X89820000Y-58970000D02*
G75*
G02*
X89320000Y-58470000I0J500000D01*
G01*
X111920000Y-68820000D02*
X112420000Y-68320000D01*
X111920000Y-72320000D02*
X112420000Y-72820000D01*
X112420000Y-68320000D02*
X115420000Y-68320000D01*
X112420000Y-72820000D02*
X114920000Y-72820000D01*
X115420000Y-68320000D02*
X115920000Y-68820000D01*
X115920000Y-69820000D02*
X115920000Y-68820000D01*
X116420000Y-74320000D02*
X116420000Y-75020000D01*
X116420000Y-75020000D02*
X120920000Y-75020000D01*
X120920000Y-70320000D02*
X116420000Y-70320000D01*
X120920000Y-70920000D02*
X120920000Y-70320000D01*
X120920000Y-75020000D02*
X120920000Y-74520000D01*
X114920000Y-72820000D02*
G75*
G02*
X116420000Y-74320000I0J-1500000D01*
G01*
X116420000Y-70320000D02*
G75*
G02*
X115920000Y-69820000I0J500000D01*
G01*
X129420000Y-121920000D02*
X129920000Y-121420000D01*
X129420000Y-125420000D02*
X129920000Y-125920000D01*
X129920000Y-121420000D02*
X132920000Y-121420000D01*
X129920000Y-125920000D02*
X132420000Y-125920000D01*
X132920000Y-121420000D02*
X133420000Y-121920000D01*
X133420000Y-122920000D02*
X133420000Y-121920000D01*
X133920000Y-127420000D02*
X133920000Y-128120000D01*
X133920000Y-128120000D02*
X138420000Y-128120000D01*
X138420000Y-123420000D02*
X133920000Y-123420000D01*
X138420000Y-124020000D02*
X138420000Y-123420000D01*
X138420000Y-128120000D02*
X138420000Y-127620000D01*
X132420000Y-125920000D02*
G75*
G02*
X133920000Y-127420000I0J-1500000D01*
G01*
X133920000Y-123420000D02*
G75*
G02*
X133420000Y-122920000I0J500000D01*
G01*
X146860000Y-57410000D02*
X147360000Y-56910000D01*
X146860000Y-60910000D02*
X147360000Y-61410000D01*
X147360000Y-56910000D02*
X150360000Y-56910000D01*
X147360000Y-61410000D02*
X149860000Y-61410000D01*
X150360000Y-56910000D02*
X150860000Y-57410000D01*
X150860000Y-58410000D02*
X150860000Y-57410000D01*
X151360000Y-62910000D02*
X151360000Y-63610000D01*
X151360000Y-63610000D02*
X155860000Y-63610000D01*
X155860000Y-58910000D02*
X151360000Y-58910000D01*
X155860000Y-59510000D02*
X155860000Y-58910000D01*
X155860000Y-63610000D02*
X155860000Y-63110000D01*
X149860000Y-61410000D02*
G75*
G02*
X151360000Y-62910000I0J-1500000D01*
G01*
X151360000Y-58910000D02*
G75*
G02*
X150860000Y-58410000I0J500000D01*
G01*
X173420000Y-45880000D02*
X173920000Y-45380000D01*
X173420000Y-49380000D02*
X173920000Y-49880000D01*
X173920000Y-45380000D02*
X176920000Y-45380000D01*
X173920000Y-49880000D02*
X176420000Y-49880000D01*
X176920000Y-45380000D02*
X177420000Y-45880000D01*
X177420000Y-46880000D02*
X177420000Y-45880000D01*
X177920000Y-51380000D02*
X177920000Y-52080000D01*
X177920000Y-52080000D02*
X182420000Y-52080000D01*
X182420000Y-47380000D02*
X177920000Y-47380000D01*
X182420000Y-47980000D02*
X182420000Y-47380000D01*
X182420000Y-52080000D02*
X182420000Y-51580000D01*
X176420000Y-49880000D02*
G75*
G02*
X177920000Y-51380000I0J-1500000D01*
G01*
X177920000Y-47380000D02*
G75*
G02*
X177420000Y-46880000I0J500000D01*
G01*
X202390000Y-45760000D02*
X202890000Y-45260000D01*
X202390000Y-49260000D02*
X202890000Y-49760000D01*
X202890000Y-45260000D02*
X205890000Y-45260000D01*
X202890000Y-49760000D02*
X205390000Y-49760000D01*
X205890000Y-45260000D02*
X206390000Y-45760000D01*
X206390000Y-46760000D02*
X206390000Y-45760000D01*
X206890000Y-51260000D02*
X206890000Y-51960000D01*
X206890000Y-51960000D02*
X211390000Y-51960000D01*
X211390000Y-47260000D02*
X206890000Y-47260000D01*
X211390000Y-47860000D02*
X211390000Y-47260000D01*
X211390000Y-51960000D02*
X211390000Y-51460000D01*
X205390000Y-49760000D02*
G75*
G02*
X206890000Y-51260000I0J-1500000D01*
G01*
X206890000Y-47260000D02*
G75*
G02*
X206390000Y-46760000I0J500000D01*
G01*
X231360000Y-46000000D02*
X231860000Y-45500000D01*
X231360000Y-49500000D02*
X231860000Y-50000000D01*
X231860000Y-45500000D02*
X234860000Y-45500000D01*
X231860000Y-50000000D02*
X234360000Y-50000000D01*
X234860000Y-45500000D02*
X235360000Y-46000000D01*
X235360000Y-47000000D02*
X235360000Y-46000000D01*
X235860000Y-51500000D02*
X235860000Y-52200000D01*
X235860000Y-52200000D02*
X240360000Y-52200000D01*
X240360000Y-47500000D02*
X235860000Y-47500000D01*
X240360000Y-48100000D02*
X240360000Y-47500000D01*
X240360000Y-52200000D02*
X240360000Y-51700000D01*
X234360000Y-50000000D02*
G75*
G02*
X235860000Y-51500000I0J-1500000D01*
G01*
X235860000Y-47500000D02*
G75*
G02*
X235360000Y-47000000I0J500000D01*
G01*
X141250000Y-88450000D02*
X141750000Y-87950000D01*
X141250000Y-91950000D02*
X141750000Y-92450000D01*
X141750000Y-87950000D02*
X144750000Y-87950000D01*
X141750000Y-92450000D02*
X144250000Y-92450000D01*
X144750000Y-87950000D02*
X145250000Y-88450000D01*
X145250000Y-89450000D02*
X145250000Y-88450000D01*
X145750000Y-93950000D02*
X145750000Y-94650000D01*
X145750000Y-94650000D02*
X150250000Y-94650000D01*
X150250000Y-89950000D02*
X145750000Y-89950000D01*
X150250000Y-90550000D02*
X150250000Y-89950000D01*
X150250000Y-94650000D02*
X150250000Y-94150000D01*
X144250000Y-92450000D02*
G75*
G02*
X145750000Y-93950000I0J-1500000D01*
G01*
X145750000Y-89950000D02*
G75*
G02*
X145250000Y-89450000I0J500000D01*
G01*
X167860000Y-77340000D02*
X168360000Y-76840000D01*
X167860000Y-80840000D02*
X168360000Y-81340000D01*
X168360000Y-76840000D02*
X171360000Y-76840000D01*
X168360000Y-81340000D02*
X170860000Y-81340000D01*
X171360000Y-76840000D02*
X171860000Y-77340000D01*
X171860000Y-78340000D02*
X171860000Y-77340000D01*
X172360000Y-82840000D02*
X172360000Y-83540000D01*
X172360000Y-83540000D02*
X176860000Y-83540000D01*
X176860000Y-78840000D02*
X172360000Y-78840000D01*
X176860000Y-79440000D02*
X176860000Y-78840000D01*
X176860000Y-83540000D02*
X176860000Y-83040000D01*
X170860000Y-81340000D02*
G75*
G02*
X172360000Y-82840000I0J-1500000D01*
G01*
X172360000Y-78840000D02*
G75*
G02*
X171860000Y-78340000I0J500000D01*
G01*
X196710000Y-77340000D02*
X197210000Y-76840000D01*
X196710000Y-80840000D02*
X197210000Y-81340000D01*
X197210000Y-76840000D02*
X200210000Y-76840000D01*
X197210000Y-81340000D02*
X199710000Y-81340000D01*
X200210000Y-76840000D02*
X200710000Y-77340000D01*
X200710000Y-78340000D02*
X200710000Y-77340000D01*
X201210000Y-82840000D02*
X201210000Y-83540000D01*
X201210000Y-83540000D02*
X205710000Y-83540000D01*
X205710000Y-78840000D02*
X201210000Y-78840000D01*
X205710000Y-79440000D02*
X205710000Y-78840000D01*
X205710000Y-83540000D02*
X205710000Y-83040000D01*
X199710000Y-81340000D02*
G75*
G02*
X201210000Y-82840000I0J-1500000D01*
G01*
X201210000Y-78840000D02*
G75*
G02*
X200710000Y-78340000I0J500000D01*
G01*
X225920000Y-77340000D02*
X226420000Y-76840000D01*
X225920000Y-80840000D02*
X226420000Y-81340000D01*
X226420000Y-76840000D02*
X229420000Y-76840000D01*
X226420000Y-81340000D02*
X228920000Y-81340000D01*
X229420000Y-76840000D02*
X229920000Y-77340000D01*
X229920000Y-78340000D02*
X229920000Y-77340000D01*
X230420000Y-82840000D02*
X230420000Y-83540000D01*
X230420000Y-83540000D02*
X234920000Y-83540000D01*
X234920000Y-78840000D02*
X230420000Y-78840000D01*
X234920000Y-79440000D02*
X234920000Y-78840000D01*
X234920000Y-83540000D02*
X234920000Y-83040000D01*
X228920000Y-81340000D02*
G75*
G02*
X230420000Y-82840000I0J-1500000D01*
G01*
X230420000Y-78840000D02*
G75*
G02*
X229920000Y-78340000I0J500000D01*
G01*
X56225000Y-57350000D02*
X56725000Y-56850000D01*
X56225000Y-60850000D02*
X56725000Y-61350000D01*
X56725000Y-56850000D02*
X59725000Y-56850000D01*
X56725000Y-61350000D02*
X59225000Y-61350000D01*
X59725000Y-56850000D02*
X60225000Y-57350000D01*
X60225000Y-58350000D02*
X60225000Y-57350000D01*
X60725000Y-62850000D02*
X60725000Y-63550000D01*
X60725000Y-63550000D02*
X65225000Y-63550000D01*
X65225000Y-58850000D02*
X60725000Y-58850000D01*
X65225000Y-59450000D02*
X65225000Y-58850000D01*
X65225000Y-63550000D02*
X65225000Y-63050000D01*
X59225000Y-61350000D02*
G75*
G02*
X60725000Y-62850000I0J-1500000D01*
G01*
X60725000Y-58850000D02*
G75*
G02*
X60225000Y-58350000I0J500000D01*
G01*
%LPC*%
D11*
X81820000Y-65170000D03*
D12*
X87320000Y-59220000D03*
D13*
X87320000Y-65170000D03*
D12*
X92320000Y-61420000D03*
D11*
X92820000Y-65170000D03*
D14*
X84045000Y-59220000D03*
D15*
X87320000Y-71070000D03*
X82320000Y-68970000D03*
D14*
X95595000Y-61420000D03*
D11*
X108420000Y-76520000D03*
D12*
X113920000Y-70570000D03*
D13*
X113920000Y-76520000D03*
D12*
X118920000Y-72770000D03*
D11*
X119420000Y-76520000D03*
D14*
X110645000Y-70570000D03*
D15*
X113920000Y-82420000D03*
X108920000Y-80320000D03*
D14*
X122195000Y-72770000D03*
D11*
X125920000Y-129620000D03*
D12*
X131420000Y-123670000D03*
D13*
X131420000Y-129620000D03*
D12*
X136420000Y-125870000D03*
D11*
X136920000Y-129620000D03*
D14*
X128145000Y-123670000D03*
D15*
X131420000Y-135520000D03*
X126420000Y-133420000D03*
D14*
X139695000Y-125870000D03*
D11*
X143360000Y-65110000D03*
D12*
X148860000Y-59160000D03*
D13*
X148860000Y-65110000D03*
D12*
X153860000Y-61360000D03*
D11*
X154360000Y-65110000D03*
D14*
X145585000Y-59160000D03*
D15*
X148860000Y-71010000D03*
X143860000Y-68910000D03*
D14*
X157135000Y-61360000D03*
D11*
X169920000Y-53580000D03*
D12*
X175420000Y-47630000D03*
D13*
X175420000Y-53580000D03*
D12*
X180420000Y-49830000D03*
D11*
X180920000Y-53580000D03*
D14*
X172145000Y-47630000D03*
D15*
X175420000Y-59480000D03*
X170420000Y-57380000D03*
D14*
X183695000Y-49830000D03*
D11*
X198890000Y-53460000D03*
D12*
X204390000Y-47510000D03*
D13*
X204390000Y-53460000D03*
D12*
X209390000Y-49710000D03*
D11*
X209890000Y-53460000D03*
D14*
X201115000Y-47510000D03*
D15*
X204390000Y-59360000D03*
X199390000Y-57260000D03*
D14*
X212665000Y-49710000D03*
D11*
X227860000Y-53700000D03*
D12*
X233360000Y-47750000D03*
D13*
X233360000Y-53700000D03*
D12*
X238360000Y-49950000D03*
D11*
X238860000Y-53700000D03*
D14*
X230085000Y-47750000D03*
D15*
X233360000Y-59600000D03*
X228360000Y-57500000D03*
D14*
X241635000Y-49950000D03*
D11*
X137750000Y-96150000D03*
D12*
X143250000Y-90200000D03*
D13*
X143250000Y-96150000D03*
D12*
X148250000Y-92400000D03*
D11*
X148750000Y-96150000D03*
D14*
X139975000Y-90200000D03*
D15*
X143250000Y-102050000D03*
X138250000Y-99950000D03*
D14*
X151525000Y-92400000D03*
D11*
X164360000Y-85040000D03*
D12*
X169860000Y-79090000D03*
D13*
X169860000Y-85040000D03*
D12*
X174860000Y-81290000D03*
D11*
X175360000Y-85040000D03*
D14*
X166585000Y-79090000D03*
D15*
X169860000Y-90940000D03*
X164860000Y-88840000D03*
D14*
X178135000Y-81290000D03*
D11*
X193210000Y-85040000D03*
D12*
X198710000Y-79090000D03*
D13*
X198710000Y-85040000D03*
D12*
X203710000Y-81290000D03*
D11*
X204210000Y-85040000D03*
D14*
X195435000Y-79090000D03*
D15*
X198710000Y-90940000D03*
X193710000Y-88840000D03*
D14*
X206985000Y-81290000D03*
D11*
X222420000Y-85040000D03*
D12*
X227920000Y-79090000D03*
D13*
X227920000Y-85040000D03*
D12*
X232920000Y-81290000D03*
D11*
X233420000Y-85040000D03*
D14*
X224645000Y-79090000D03*
D15*
X227920000Y-90940000D03*
X222920000Y-88840000D03*
D14*
X236195000Y-81290000D03*
D16*
X47000000Y-37000000D03*
X47000000Y-143000000D03*
X243000000Y-143000000D03*
X243000000Y-37000000D03*
D11*
X52725000Y-65050000D03*
D12*
X58225000Y-59100000D03*
D13*
X58225000Y-65050000D03*
D12*
X63225000Y-61300000D03*
D11*
X63725000Y-65050000D03*
D14*
X54950000Y-59100000D03*
D15*
X58225000Y-70950000D03*
X53225000Y-68850000D03*
D14*
X66500000Y-61300000D03*
D16*
X150000000Y-37000000D03*
D17*
X88500000Y-43000000D03*
X88500000Y-36500000D03*
X93000000Y-43000000D03*
X93000000Y-36500000D03*
X65500000Y-43000000D03*
X65500000Y-36500000D03*
X70000000Y-43000000D03*
X70000000Y-36500000D03*
X98500000Y-43000000D03*
X98500000Y-36500000D03*
X103000000Y-43000000D03*
X103000000Y-36500000D03*
X55500000Y-43000000D03*
X55500000Y-36500000D03*
X60000000Y-43000000D03*
X60000000Y-36500000D03*
X75500000Y-43000000D03*
X75500000Y-36500000D03*
X80000000Y-43000000D03*
X80000000Y-36500000D03*
X108500000Y-43000000D03*
X108500000Y-36500000D03*
X113000000Y-43000000D03*
X113000000Y-36500000D03*
D16*
X133500000Y-78000000D03*
X150000000Y-143000000D03*
D18*
X210990000Y-122812500D03*
D19*
X213530000Y-122812500D03*
X216070000Y-122812500D03*
X218610000Y-122812500D03*
D20*
X203150000Y-123312500D03*
X226450000Y-123312500D03*
X226450000Y-147012500D03*
X203150000Y-147012500D03*
D21*
X199725000Y-104050000D03*
D22*
X199725000Y-106590000D03*
X199725000Y-109130000D03*
X199725000Y-111670000D03*
X199725000Y-114210000D03*
X199725000Y-116750000D03*
D21*
X106375000Y-105425000D03*
D22*
X103835000Y-105425000D03*
X101295000Y-105425000D03*
X98755000Y-105425000D03*
X96215000Y-105425000D03*
%LPD*%
M02*
