%TF.GenerationSoftware,KiCad,Pcbnew,8.0.1*%
%TF.CreationDate,2024-05-01T14:37:59+02:00*%
%TF.ProjectId,PE2-for-review,5045322d-666f-4722-9d72-65766965772e,rev?*%
%TF.SameCoordinates,Original*%
%TF.FileFunction,Soldermask,Top*%
%TF.FilePolarity,Negative*%
%FSLAX46Y46*%
G04 Gerber Fmt 4.6, Leading zero omitted, Abs format (unit mm)*
G04 Created by KiCad (PCBNEW 8.0.1) date 2024-05-01 14:37:59*
%MOMM*%
%LPD*%
G01*
G04 APERTURE LIST*
G04 Aperture macros list*
%AMRoundRect*
0 Rectangle with rounded corners*
0 $1 Rounding radius*
0 $2 $3 $4 $5 $6 $7 $8 $9 X,Y pos of 4 corners*
0 Add a 4 corners polygon primitive as box body*
4,1,4,$2,$3,$4,$5,$6,$7,$8,$9,$2,$3,0*
0 Add four circle primitives for the rounded corners*
1,1,$1+$1,$2,$3*
1,1,$1+$1,$4,$5*
1,1,$1+$1,$6,$7*
1,1,$1+$1,$8,$9*
0 Add four rect primitives between the rounded corners*
20,1,$1+$1,$2,$3,$4,$5,0*
20,1,$1+$1,$4,$5,$6,$7,0*
20,1,$1+$1,$6,$7,$8,$9,0*
20,1,$1+$1,$8,$9,$2,$3,0*%
G04 Aperture macros list end*
%ADD10C,1.701800*%
%ADD11C,3.000000*%
%ADD12C,3.429000*%
%ADD13C,2.032000*%
%ADD14C,6.300000*%
%ADD15C,2.000000*%
%ADD16RoundRect,0.140000X0.170000X-0.140000X0.170000X0.140000X-0.170000X0.140000X-0.170000X-0.140000X0*%
%ADD17R,0.500000X1.850000*%
%ADD18R,2.000000X3.000000*%
%ADD19R,2.000000X3.500000*%
%ADD20C,2.250000*%
%ADD21RoundRect,0.102000X-0.754000X-0.754000X0.754000X-0.754000X0.754000X0.754000X-0.754000X0.754000X0*%
%ADD22C,1.712000*%
%ADD23C,3.204000*%
%ADD24R,2.000000X2.400000*%
%ADD25RoundRect,0.218750X0.256250X-0.218750X0.256250X0.218750X-0.256250X0.218750X-0.256250X-0.218750X0*%
%ADD26RoundRect,0.102000X-0.710000X-0.290000X0.710000X-0.290000X0.710000X0.290000X-0.710000X0.290000X0*%
%ADD27RoundRect,0.225000X-0.250000X0.225000X-0.250000X-0.225000X0.250000X-0.225000X0.250000X0.225000X0*%
%ADD28RoundRect,0.135000X0.185000X-0.135000X0.185000X0.135000X-0.185000X0.135000X-0.185000X-0.135000X0*%
%ADD29RoundRect,0.140000X0.140000X0.170000X-0.140000X0.170000X-0.140000X-0.170000X0.140000X-0.170000X0*%
%ADD30R,0.700000X1.800000*%
%ADD31R,1.000000X0.800000*%
%ADD32RoundRect,0.140000X-0.140000X-0.170000X0.140000X-0.170000X0.140000X0.170000X-0.140000X0.170000X0*%
%ADD33RoundRect,0.135000X-0.185000X0.135000X-0.185000X-0.135000X0.185000X-0.135000X0.185000X0.135000X0*%
%ADD34RoundRect,0.225000X-0.225000X-0.250000X0.225000X-0.250000X0.225000X0.250000X-0.225000X0.250000X0*%
%ADD35R,1.700000X1.700000*%
%ADD36O,1.700000X1.700000*%
%ADD37C,1.000000*%
%ADD38RoundRect,0.225000X0.250000X-0.225000X0.250000X0.225000X-0.250000X0.225000X-0.250000X-0.225000X0*%
%ADD39RoundRect,0.135000X0.135000X0.185000X-0.135000X0.185000X-0.135000X-0.185000X0.135000X-0.185000X0*%
%ADD40RoundRect,0.225000X0.225000X0.250000X-0.225000X0.250000X-0.225000X-0.250000X0.225000X-0.250000X0*%
%ADD41RoundRect,0.140000X-0.170000X0.140000X-0.170000X-0.140000X0.170000X-0.140000X0.170000X0.140000X0*%
%ADD42RoundRect,0.102000X-0.375000X0.500000X-0.375000X-0.500000X0.375000X-0.500000X0.375000X0.500000X0*%
%ADD43R,0.300000X1.500000*%
%ADD44R,1.500000X0.300000*%
G04 APERTURE END LIST*
D10*
X81820000Y-65170000D03*
D11*
X87320000Y-59220000D03*
D12*
X87320000Y-65170000D03*
D11*
X92320000Y-61420000D03*
D10*
X92820000Y-65170000D03*
D13*
X87320000Y-71070000D03*
X82320000Y-68970000D03*
D10*
X108420000Y-76520000D03*
D11*
X113920000Y-70570000D03*
D12*
X113920000Y-76520000D03*
D11*
X118920000Y-72770000D03*
D10*
X119420000Y-76520000D03*
D13*
X113920000Y-82420000D03*
X108920000Y-80320000D03*
D10*
X125920000Y-129620000D03*
D11*
X131420000Y-123670000D03*
D12*
X131420000Y-129620000D03*
D11*
X136420000Y-125870000D03*
D10*
X136920000Y-129620000D03*
D13*
X131420000Y-135520000D03*
X126420000Y-133420000D03*
D10*
X143360000Y-65110000D03*
D11*
X148860000Y-59160000D03*
D12*
X148860000Y-65110000D03*
D11*
X153860000Y-61360000D03*
D10*
X154360000Y-65110000D03*
D13*
X148860000Y-71010000D03*
X143860000Y-68910000D03*
D10*
X169920000Y-53580000D03*
D11*
X175420000Y-47630000D03*
D12*
X175420000Y-53580000D03*
D11*
X180420000Y-49830000D03*
D10*
X180920000Y-53580000D03*
D13*
X175420000Y-59480000D03*
X170420000Y-57380000D03*
D10*
X198890000Y-53460000D03*
D11*
X204390000Y-47510000D03*
D12*
X204390000Y-53460000D03*
D11*
X209390000Y-49710000D03*
D10*
X209890000Y-53460000D03*
D13*
X204390000Y-59360000D03*
X199390000Y-57260000D03*
D10*
X227860000Y-53700000D03*
D11*
X233360000Y-47750000D03*
D12*
X233360000Y-53700000D03*
D11*
X238360000Y-49950000D03*
D10*
X238860000Y-53700000D03*
D13*
X233360000Y-59600000D03*
X228360000Y-57500000D03*
D10*
X137750000Y-96150000D03*
D11*
X143250000Y-90200000D03*
D12*
X143250000Y-96150000D03*
D11*
X148250000Y-92400000D03*
D10*
X148750000Y-96150000D03*
D13*
X143250000Y-102050000D03*
X138250000Y-99950000D03*
D10*
X164360000Y-85040000D03*
D11*
X169860000Y-79090000D03*
D12*
X169860000Y-85040000D03*
D11*
X174860000Y-81290000D03*
D10*
X175360000Y-85040000D03*
D13*
X169860000Y-90940000D03*
X164860000Y-88840000D03*
D10*
X193210000Y-85040000D03*
D11*
X198710000Y-79090000D03*
D12*
X198710000Y-85040000D03*
D11*
X203710000Y-81290000D03*
D10*
X204210000Y-85040000D03*
D13*
X198710000Y-90940000D03*
X193710000Y-88840000D03*
D10*
X222420000Y-85040000D03*
D11*
X227920000Y-79090000D03*
D12*
X227920000Y-85040000D03*
D11*
X232920000Y-81290000D03*
D10*
X233420000Y-85040000D03*
D13*
X227920000Y-90940000D03*
X222920000Y-88840000D03*
D14*
X47000000Y-37000000D03*
X47000000Y-143000000D03*
X243000000Y-143000000D03*
X243000000Y-37000000D03*
D10*
X52725000Y-65050000D03*
D11*
X58225000Y-59100000D03*
D12*
X58225000Y-65050000D03*
D11*
X63225000Y-61300000D03*
D10*
X63725000Y-65050000D03*
D13*
X58225000Y-70950000D03*
X53225000Y-68850000D03*
D14*
X150000000Y-37000000D03*
D15*
X88500000Y-43000000D03*
X88500000Y-36500000D03*
X93000000Y-43000000D03*
X93000000Y-36500000D03*
X65500000Y-43000000D03*
X65500000Y-36500000D03*
X70000000Y-43000000D03*
X70000000Y-36500000D03*
X98500000Y-43000000D03*
X98500000Y-36500000D03*
X103000000Y-43000000D03*
X103000000Y-36500000D03*
X55500000Y-43000000D03*
X55500000Y-36500000D03*
X60000000Y-43000000D03*
X60000000Y-36500000D03*
X75500000Y-43000000D03*
X75500000Y-36500000D03*
X80000000Y-43000000D03*
X80000000Y-36500000D03*
X108500000Y-43000000D03*
X108500000Y-36500000D03*
X113000000Y-43000000D03*
X113000000Y-36500000D03*
D14*
X133500000Y-78000000D03*
X150000000Y-143000000D03*
D16*
X122350000Y-52380000D03*
X122350000Y-51420000D03*
D17*
X130500000Y-37525000D03*
X129700000Y-37525000D03*
X128900000Y-37525000D03*
X128100000Y-37525000D03*
X127300000Y-37525000D03*
D18*
X124000000Y-37025000D03*
D19*
X124000000Y-32775000D03*
D18*
X133800000Y-37025000D03*
D19*
X133800000Y-32775000D03*
D20*
X42720000Y-45350000D03*
D21*
X210990000Y-122812500D03*
D22*
X213530000Y-122812500D03*
X216070000Y-122812500D03*
X218610000Y-122812500D03*
D23*
X203150000Y-123312500D03*
X226450000Y-123312500D03*
X226450000Y-147012500D03*
X203150000Y-147012500D03*
D24*
X128750000Y-60150000D03*
X125050000Y-60150000D03*
D25*
X90000000Y-97087500D03*
X90000000Y-95512500D03*
D26*
X139355000Y-37050000D03*
X139355000Y-38000000D03*
X139355000Y-38950000D03*
X141645000Y-38950000D03*
X141645000Y-37050000D03*
D27*
X134550000Y-56025000D03*
X134550000Y-57575000D03*
D28*
X90000000Y-93335000D03*
X90000000Y-92315000D03*
D29*
X128380000Y-57550000D03*
X127420000Y-57550000D03*
D30*
X68050000Y-91825000D03*
X66550000Y-91825000D03*
X63550000Y-91825000D03*
D31*
X69450000Y-94675000D03*
X69450000Y-92475000D03*
X62150000Y-94675000D03*
X62150000Y-92475000D03*
D32*
X126020000Y-40700000D03*
X126980000Y-40700000D03*
D33*
X85000000Y-92315000D03*
X85000000Y-93335000D03*
D29*
X133130000Y-41100000D03*
X132170000Y-41100000D03*
D34*
X137675000Y-46250000D03*
X139225000Y-46250000D03*
D35*
X199725000Y-104050000D03*
D36*
X199725000Y-106590000D03*
X199725000Y-109130000D03*
X199725000Y-111670000D03*
X199725000Y-114210000D03*
X199725000Y-116750000D03*
D37*
X135850000Y-54350000D03*
D33*
X66500000Y-88690000D03*
X66500000Y-89710000D03*
D38*
X120900000Y-53225000D03*
X120900000Y-51675000D03*
D39*
X81110000Y-91700000D03*
X80090000Y-91700000D03*
D25*
X85000000Y-97087500D03*
X85000000Y-95512500D03*
D40*
X141675000Y-35300000D03*
X140125000Y-35300000D03*
D29*
X125435000Y-55800000D03*
X124475000Y-55800000D03*
D41*
X138750000Y-51870000D03*
X138750000Y-52830000D03*
D27*
X136500000Y-37975000D03*
X136500000Y-39525000D03*
D20*
X43750000Y-134550000D03*
D41*
X133150000Y-55770000D03*
X133150000Y-56730000D03*
D34*
X134365000Y-41020000D03*
X135915000Y-41020000D03*
D42*
X76375000Y-91750000D03*
X76375000Y-97750000D03*
X72625000Y-91750000D03*
X72625000Y-97750000D03*
D43*
X126250000Y-54200000D03*
X126750000Y-54200000D03*
X127250000Y-54200000D03*
X127750000Y-54200000D03*
X128250000Y-54200000D03*
X128750000Y-54200000D03*
X129250000Y-54200000D03*
X129750000Y-54200000D03*
X130250000Y-54200000D03*
X130750000Y-54200000D03*
X131250000Y-54200000D03*
X131750000Y-54200000D03*
X132250000Y-54200000D03*
X132750000Y-54200000D03*
X133250000Y-54200000D03*
X133750000Y-54200000D03*
D44*
X135700000Y-52250000D03*
X135700000Y-51750000D03*
X135700000Y-51250000D03*
X135700000Y-50750000D03*
X135700000Y-50250000D03*
X135700000Y-49750000D03*
X135700000Y-49250000D03*
X135700000Y-48750000D03*
X135700000Y-48250000D03*
X135700000Y-47750000D03*
X135700000Y-47250000D03*
X135700000Y-46750000D03*
X135700000Y-46250000D03*
X135700000Y-45750000D03*
X135700000Y-45250000D03*
X135700000Y-44750000D03*
D43*
X133750000Y-42800000D03*
X133250000Y-42800000D03*
X132750000Y-42800000D03*
X132250000Y-42800000D03*
X131750000Y-42800000D03*
X131250000Y-42800000D03*
X130750000Y-42800000D03*
X130250000Y-42800000D03*
X129750000Y-42800000D03*
X129250000Y-42800000D03*
X128750000Y-42800000D03*
X128250000Y-42800000D03*
X127750000Y-42800000D03*
X127250000Y-42800000D03*
X126750000Y-42800000D03*
X126250000Y-42800000D03*
D44*
X124300000Y-44750000D03*
X124300000Y-45250000D03*
X124300000Y-45750000D03*
X124300000Y-46250000D03*
X124300000Y-46750000D03*
X124300000Y-47250000D03*
X124300000Y-47750000D03*
X124300000Y-48250000D03*
X124300000Y-48750000D03*
X124300000Y-49250000D03*
X124300000Y-49750000D03*
X124300000Y-50250000D03*
X124300000Y-50750000D03*
X124300000Y-51250000D03*
X124300000Y-51750000D03*
X124300000Y-52250000D03*
D41*
X137500000Y-43370000D03*
X137500000Y-44330000D03*
D20*
X247200000Y-134550000D03*
D37*
X124150000Y-42650000D03*
D32*
X80120000Y-93000000D03*
X81080000Y-93000000D03*
D35*
X106375000Y-105425000D03*
D36*
X103835000Y-105425000D03*
X101295000Y-105425000D03*
X98755000Y-105425000D03*
X96215000Y-105425000D03*
D29*
X125680000Y-57600000D03*
X124720000Y-57600000D03*
M02*
