%TF.GenerationSoftware,KiCad,Pcbnew,8.0.1*%
%TF.CreationDate,2024-05-01T14:37:59+02:00*%
%TF.ProjectId,PE2-for-review,5045322d-666f-4722-9d72-65766965772e,rev?*%
%TF.SameCoordinates,Original*%
%TF.FileFunction,Paste,Top*%
%TF.FilePolarity,Positive*%
%FSLAX46Y46*%
G04 Gerber Fmt 4.6, Leading zero omitted, Abs format (unit mm)*
G04 Created by KiCad (PCBNEW 8.0.1) date 2024-05-01 14:37:59*
%MOMM*%
%LPD*%
G01*
G04 APERTURE LIST*
G04 Aperture macros list*
%AMRoundRect*
0 Rectangle with rounded corners*
0 $1 Rounding radius*
0 $2 $3 $4 $5 $6 $7 $8 $9 X,Y pos of 4 corners*
0 Add a 4 corners polygon primitive as box body*
4,1,4,$2,$3,$4,$5,$6,$7,$8,$9,$2,$3,0*
0 Add four circle primitives for the rounded corners*
1,1,$1+$1,$2,$3*
1,1,$1+$1,$4,$5*
1,1,$1+$1,$6,$7*
1,1,$1+$1,$8,$9*
0 Add four rect primitives between the rounded corners*
20,1,$1+$1,$2,$3,$4,$5,0*
20,1,$1+$1,$4,$5,$6,$7,0*
20,1,$1+$1,$6,$7,$8,$9,0*
20,1,$1+$1,$8,$9,$2,$3,0*%
G04 Aperture macros list end*
%ADD10RoundRect,0.140000X0.170000X-0.140000X0.170000X0.140000X-0.170000X0.140000X-0.170000X-0.140000X0*%
%ADD11R,0.500000X1.850000*%
%ADD12R,2.000000X3.000000*%
%ADD13R,2.000000X3.500000*%
%ADD14R,2.000000X2.400000*%
%ADD15RoundRect,0.218750X0.256250X-0.218750X0.256250X0.218750X-0.256250X0.218750X-0.256250X-0.218750X0*%
%ADD16R,1.420000X0.580000*%
%ADD17RoundRect,0.225000X-0.250000X0.225000X-0.250000X-0.225000X0.250000X-0.225000X0.250000X0.225000X0*%
%ADD18RoundRect,0.135000X0.185000X-0.135000X0.185000X0.135000X-0.185000X0.135000X-0.185000X-0.135000X0*%
%ADD19RoundRect,0.140000X0.140000X0.170000X-0.140000X0.170000X-0.140000X-0.170000X0.140000X-0.170000X0*%
%ADD20R,0.700000X1.800000*%
%ADD21R,1.000000X0.800000*%
%ADD22RoundRect,0.140000X-0.140000X-0.170000X0.140000X-0.170000X0.140000X0.170000X-0.140000X0.170000X0*%
%ADD23RoundRect,0.135000X-0.185000X0.135000X-0.185000X-0.135000X0.185000X-0.135000X0.185000X0.135000X0*%
%ADD24RoundRect,0.225000X-0.225000X-0.250000X0.225000X-0.250000X0.225000X0.250000X-0.225000X0.250000X0*%
%ADD25RoundRect,0.225000X0.250000X-0.225000X0.250000X0.225000X-0.250000X0.225000X-0.250000X-0.225000X0*%
%ADD26RoundRect,0.135000X0.135000X0.185000X-0.135000X0.185000X-0.135000X-0.185000X0.135000X-0.185000X0*%
%ADD27RoundRect,0.225000X0.225000X0.250000X-0.225000X0.250000X-0.225000X-0.250000X0.225000X-0.250000X0*%
%ADD28RoundRect,0.140000X-0.170000X0.140000X-0.170000X-0.140000X0.170000X-0.140000X0.170000X0.140000X0*%
%ADD29R,0.750000X1.000000*%
%ADD30R,0.300000X1.500000*%
%ADD31R,1.500000X0.300000*%
G04 APERTURE END LIST*
D10*
X122350000Y-52380000D03*
X122350000Y-51420000D03*
D11*
X130500000Y-37525000D03*
X129700000Y-37525000D03*
X128900000Y-37525000D03*
X128100000Y-37525000D03*
X127300000Y-37525000D03*
D12*
X124000000Y-37025000D03*
D13*
X124000000Y-32775000D03*
D12*
X133800000Y-37025000D03*
D13*
X133800000Y-32775000D03*
D14*
X128750000Y-60150000D03*
X125050000Y-60150000D03*
D15*
X90000000Y-97087500D03*
X90000000Y-95512500D03*
D16*
X139355000Y-37050000D03*
X139355000Y-38000000D03*
X139355000Y-38950000D03*
X141645000Y-38950000D03*
X141645000Y-37050000D03*
D17*
X134550000Y-56025000D03*
X134550000Y-57575000D03*
D18*
X90000000Y-93335000D03*
X90000000Y-92315000D03*
D19*
X128380000Y-57550000D03*
X127420000Y-57550000D03*
D20*
X68050000Y-91825000D03*
X66550000Y-91825000D03*
X63550000Y-91825000D03*
D21*
X69450000Y-94675000D03*
X69450000Y-92475000D03*
X62150000Y-94675000D03*
X62150000Y-92475000D03*
D22*
X126020000Y-40700000D03*
X126980000Y-40700000D03*
D23*
X85000000Y-92315000D03*
X85000000Y-93335000D03*
D19*
X133130000Y-41100000D03*
X132170000Y-41100000D03*
D24*
X137675000Y-46250000D03*
X139225000Y-46250000D03*
D23*
X66500000Y-88690000D03*
X66500000Y-89710000D03*
D25*
X120900000Y-53225000D03*
X120900000Y-51675000D03*
D26*
X81110000Y-91700000D03*
X80090000Y-91700000D03*
D15*
X85000000Y-97087500D03*
X85000000Y-95512500D03*
D27*
X141675000Y-35300000D03*
X140125000Y-35300000D03*
D19*
X125435000Y-55800000D03*
X124475000Y-55800000D03*
D28*
X138750000Y-51870000D03*
X138750000Y-52830000D03*
D17*
X136500000Y-37975000D03*
X136500000Y-39525000D03*
D28*
X133150000Y-55770000D03*
X133150000Y-56730000D03*
D24*
X134365000Y-41020000D03*
X135915000Y-41020000D03*
D29*
X76375000Y-91750000D03*
X76375000Y-97750000D03*
X72625000Y-91750000D03*
X72625000Y-97750000D03*
D30*
X126250000Y-54200000D03*
X126750000Y-54200000D03*
X127250000Y-54200000D03*
X127750000Y-54200000D03*
X128250000Y-54200000D03*
X128750000Y-54200000D03*
X129250000Y-54200000D03*
X129750000Y-54200000D03*
X130250000Y-54200000D03*
X130750000Y-54200000D03*
X131250000Y-54200000D03*
X131750000Y-54200000D03*
X132250000Y-54200000D03*
X132750000Y-54200000D03*
X133250000Y-54200000D03*
X133750000Y-54200000D03*
D31*
X135700000Y-52250000D03*
X135700000Y-51750000D03*
X135700000Y-51250000D03*
X135700000Y-50750000D03*
X135700000Y-50250000D03*
X135700000Y-49750000D03*
X135700000Y-49250000D03*
X135700000Y-48750000D03*
X135700000Y-48250000D03*
X135700000Y-47750000D03*
X135700000Y-47250000D03*
X135700000Y-46750000D03*
X135700000Y-46250000D03*
X135700000Y-45750000D03*
X135700000Y-45250000D03*
X135700000Y-44750000D03*
D30*
X133750000Y-42800000D03*
X133250000Y-42800000D03*
X132750000Y-42800000D03*
X132250000Y-42800000D03*
X131750000Y-42800000D03*
X131250000Y-42800000D03*
X130750000Y-42800000D03*
X130250000Y-42800000D03*
X129750000Y-42800000D03*
X129250000Y-42800000D03*
X128750000Y-42800000D03*
X128250000Y-42800000D03*
X127750000Y-42800000D03*
X127250000Y-42800000D03*
X126750000Y-42800000D03*
X126250000Y-42800000D03*
D31*
X124300000Y-44750000D03*
X124300000Y-45250000D03*
X124300000Y-45750000D03*
X124300000Y-46250000D03*
X124300000Y-46750000D03*
X124300000Y-47250000D03*
X124300000Y-47750000D03*
X124300000Y-48250000D03*
X124300000Y-48750000D03*
X124300000Y-49250000D03*
X124300000Y-49750000D03*
X124300000Y-50250000D03*
X124300000Y-50750000D03*
X124300000Y-51250000D03*
X124300000Y-51750000D03*
X124300000Y-52250000D03*
D28*
X137500000Y-43370000D03*
X137500000Y-44330000D03*
D22*
X80120000Y-93000000D03*
X81080000Y-93000000D03*
D19*
X125680000Y-57600000D03*
X124720000Y-57600000D03*
M02*
