%TF.GenerationSoftware,KiCad,Pcbnew,8.0.1*%
%TF.CreationDate,2024-05-01T14:37:59+02:00*%
%TF.ProjectId,PE2-for-review,5045322d-666f-4722-9d72-65766965772e,rev?*%
%TF.SameCoordinates,Original*%
%TF.FileFunction,Soldermask,Bot*%
%TF.FilePolarity,Negative*%
%FSLAX46Y46*%
G04 Gerber Fmt 4.6, Leading zero omitted, Abs format (unit mm)*
G04 Created by KiCad (PCBNEW 8.0.1) date 2024-05-01 14:37:59*
%MOMM*%
%LPD*%
G01*
G04 APERTURE LIST*
G04 Aperture macros list*
%AMRoundRect*
0 Rectangle with rounded corners*
0 $1 Rounding radius*
0 $2 $3 $4 $5 $6 $7 $8 $9 X,Y pos of 4 corners*
0 Add a 4 corners polygon primitive as box body*
4,1,4,$2,$3,$4,$5,$6,$7,$8,$9,$2,$3,0*
0 Add four circle primitives for the rounded corners*
1,1,$1+$1,$2,$3*
1,1,$1+$1,$4,$5*
1,1,$1+$1,$6,$7*
1,1,$1+$1,$8,$9*
0 Add four rect primitives between the rounded corners*
20,1,$1+$1,$2,$3,$4,$5,0*
20,1,$1+$1,$4,$5,$6,$7,0*
20,1,$1+$1,$6,$7,$8,$9,0*
20,1,$1+$1,$8,$9,$2,$3,0*%
G04 Aperture macros list end*
%ADD10C,1.701800*%
%ADD11C,3.000000*%
%ADD12C,3.429000*%
%ADD13R,2.600000X2.600000*%
%ADD14C,2.032000*%
%ADD15C,6.300000*%
%ADD16C,2.000000*%
%ADD17RoundRect,0.102000X-0.754000X-0.754000X0.754000X-0.754000X0.754000X0.754000X-0.754000X0.754000X0*%
%ADD18C,1.712000*%
%ADD19C,3.204000*%
%ADD20R,1.700000X1.700000*%
%ADD21O,1.700000X1.700000*%
G04 APERTURE END LIST*
D10*
X81820000Y-65170000D03*
D11*
X87320000Y-59220000D03*
D12*
X87320000Y-65170000D03*
D11*
X92320000Y-61420000D03*
D10*
X92820000Y-65170000D03*
D13*
X84045000Y-59220000D03*
D14*
X87320000Y-71070000D03*
X82320000Y-68970000D03*
D13*
X95595000Y-61420000D03*
D10*
X108420000Y-76520000D03*
D11*
X113920000Y-70570000D03*
D12*
X113920000Y-76520000D03*
D11*
X118920000Y-72770000D03*
D10*
X119420000Y-76520000D03*
D13*
X110645000Y-70570000D03*
D14*
X113920000Y-82420000D03*
X108920000Y-80320000D03*
D13*
X122195000Y-72770000D03*
D10*
X125920000Y-129620000D03*
D11*
X131420000Y-123670000D03*
D12*
X131420000Y-129620000D03*
D11*
X136420000Y-125870000D03*
D10*
X136920000Y-129620000D03*
D13*
X128145000Y-123670000D03*
D14*
X131420000Y-135520000D03*
X126420000Y-133420000D03*
D13*
X139695000Y-125870000D03*
D10*
X143360000Y-65110000D03*
D11*
X148860000Y-59160000D03*
D12*
X148860000Y-65110000D03*
D11*
X153860000Y-61360000D03*
D10*
X154360000Y-65110000D03*
D13*
X145585000Y-59160000D03*
D14*
X148860000Y-71010000D03*
X143860000Y-68910000D03*
D13*
X157135000Y-61360000D03*
D10*
X169920000Y-53580000D03*
D11*
X175420000Y-47630000D03*
D12*
X175420000Y-53580000D03*
D11*
X180420000Y-49830000D03*
D10*
X180920000Y-53580000D03*
D13*
X172145000Y-47630000D03*
D14*
X175420000Y-59480000D03*
X170420000Y-57380000D03*
D13*
X183695000Y-49830000D03*
D10*
X198890000Y-53460000D03*
D11*
X204390000Y-47510000D03*
D12*
X204390000Y-53460000D03*
D11*
X209390000Y-49710000D03*
D10*
X209890000Y-53460000D03*
D13*
X201115000Y-47510000D03*
D14*
X204390000Y-59360000D03*
X199390000Y-57260000D03*
D13*
X212665000Y-49710000D03*
D10*
X227860000Y-53700000D03*
D11*
X233360000Y-47750000D03*
D12*
X233360000Y-53700000D03*
D11*
X238360000Y-49950000D03*
D10*
X238860000Y-53700000D03*
D13*
X230085000Y-47750000D03*
D14*
X233360000Y-59600000D03*
X228360000Y-57500000D03*
D13*
X241635000Y-49950000D03*
D10*
X137750000Y-96150000D03*
D11*
X143250000Y-90200000D03*
D12*
X143250000Y-96150000D03*
D11*
X148250000Y-92400000D03*
D10*
X148750000Y-96150000D03*
D13*
X139975000Y-90200000D03*
D14*
X143250000Y-102050000D03*
X138250000Y-99950000D03*
D13*
X151525000Y-92400000D03*
D10*
X164360000Y-85040000D03*
D11*
X169860000Y-79090000D03*
D12*
X169860000Y-85040000D03*
D11*
X174860000Y-81290000D03*
D10*
X175360000Y-85040000D03*
D13*
X166585000Y-79090000D03*
D14*
X169860000Y-90940000D03*
X164860000Y-88840000D03*
D13*
X178135000Y-81290000D03*
D10*
X193210000Y-85040000D03*
D11*
X198710000Y-79090000D03*
D12*
X198710000Y-85040000D03*
D11*
X203710000Y-81290000D03*
D10*
X204210000Y-85040000D03*
D13*
X195435000Y-79090000D03*
D14*
X198710000Y-90940000D03*
X193710000Y-88840000D03*
D13*
X206985000Y-81290000D03*
D10*
X222420000Y-85040000D03*
D11*
X227920000Y-79090000D03*
D12*
X227920000Y-85040000D03*
D11*
X232920000Y-81290000D03*
D10*
X233420000Y-85040000D03*
D13*
X224645000Y-79090000D03*
D14*
X227920000Y-90940000D03*
X222920000Y-88840000D03*
D13*
X236195000Y-81290000D03*
D15*
X47000000Y-37000000D03*
X47000000Y-143000000D03*
X243000000Y-143000000D03*
X243000000Y-37000000D03*
D10*
X52725000Y-65050000D03*
D11*
X58225000Y-59100000D03*
D12*
X58225000Y-65050000D03*
D11*
X63225000Y-61300000D03*
D10*
X63725000Y-65050000D03*
D13*
X54950000Y-59100000D03*
D14*
X58225000Y-70950000D03*
X53225000Y-68850000D03*
D13*
X66500000Y-61300000D03*
D15*
X150000000Y-37000000D03*
D16*
X88500000Y-43000000D03*
X88500000Y-36500000D03*
X93000000Y-43000000D03*
X93000000Y-36500000D03*
X65500000Y-43000000D03*
X65500000Y-36500000D03*
X70000000Y-43000000D03*
X70000000Y-36500000D03*
X98500000Y-43000000D03*
X98500000Y-36500000D03*
X103000000Y-43000000D03*
X103000000Y-36500000D03*
X55500000Y-43000000D03*
X55500000Y-36500000D03*
X60000000Y-43000000D03*
X60000000Y-36500000D03*
X75500000Y-43000000D03*
X75500000Y-36500000D03*
X80000000Y-43000000D03*
X80000000Y-36500000D03*
X108500000Y-43000000D03*
X108500000Y-36500000D03*
X113000000Y-43000000D03*
X113000000Y-36500000D03*
D15*
X133500000Y-78000000D03*
X150000000Y-143000000D03*
D17*
X210990000Y-122812500D03*
D18*
X213530000Y-122812500D03*
X216070000Y-122812500D03*
X218610000Y-122812500D03*
D19*
X203150000Y-123312500D03*
X226450000Y-123312500D03*
X226450000Y-147012500D03*
X203150000Y-147012500D03*
D20*
X199725000Y-104050000D03*
D21*
X199725000Y-106590000D03*
X199725000Y-109130000D03*
X199725000Y-111670000D03*
X199725000Y-114210000D03*
X199725000Y-116750000D03*
D20*
X106375000Y-105425000D03*
D21*
X103835000Y-105425000D03*
X101295000Y-105425000D03*
X98755000Y-105425000D03*
X96215000Y-105425000D03*
M02*
